<?xml version="1.0" encoding="utf-8" standalone="no"?>
<!DOCTYPE svg PUBLIC "-//W3C//DTD SVG 1.1//EN"
  "http://www.w3.org/Graphics/SVG/1.1/DTD/svg11.dtd">
<svg xmlns:xlink="http://www.w3.org/1999/xlink" width="720pt" height="432pt" viewBox="0 0 720 432" xmlns="http://www.w3.org/2000/svg" version="1.1">
 <metadata>
  <rdf:RDF xmlns:dc="http://purl.org/dc/elements/1.1/" xmlns:cc="http://creativecommons.org/ns#" xmlns:rdf="http://www.w3.org/1999/02/22-rdf-syntax-ns#">
   <cc:Work>
    <dc:type rdf:resource="http://purl.org/dc/dcmitype/StillImage"/>
    <dc:date>2024-10-18T16:27:03.070707</dc:date>
    <dc:format>image/svg+xml</dc:format>
    <dc:creator>
     <cc:Agent>
      <dc:title>Matplotlib v3.9.2, https://matplotlib.org/</dc:title>
     </cc:Agent>
    </dc:creator>
   </cc:Work>
  </rdf:RDF>
 </metadata>
 <defs>
  <style type="text/css">*{stroke-linejoin: round; stroke-linecap: butt}</style>
 </defs>
 <g id="figure_1">
  <g id="patch_1">
   <path d="M 0 432 
L 720 432 
L 720 0 
L 0 0 
z
" style="fill: #ffffff"/>
  </g>
  <g id="axes_1">
   <g id="patch_2">
    <path d="M 76.43 361.96 
L 698.4 361.96 
L 698.4 44.16 
L 76.43 44.16 
z
" style="fill: #ffffff"/>
   </g>
   <g id="matplotlib.axis_1">
    <g id="xtick_1">
     <g id="line2d_1">
      <defs>
       <path id="me3ab710535" d="M 0 0 
L 0 3.5 
" style="stroke: #000000; stroke-width: 0.8"/>
      </defs>
      <g>
       <use xlink:href="#me3ab710535" x="104.701364" y="361.96" style="stroke: #000000; stroke-width: 0.8"/>
      </g>
     </g>
     <g id="text_1">
      <text style="font: 20px 'Times New Roman'; text-anchor: middle" x="104.701364" y="382.8475" transform="rotate(-0 104.701364 382.8475)">0</text>
     </g>
    </g>
    <g id="xtick_2">
     <g id="line2d_2">
      <g>
       <use xlink:href="#me3ab710535" x="220.094685" y="361.96" style="stroke: #000000; stroke-width: 0.8"/>
      </g>
     </g>
     <g id="text_2">
      <text style="font: 20px 'Times New Roman'; text-anchor: middle" x="220.094685" y="382.8475" transform="rotate(-0 220.094685 382.8475)">100</text>
     </g>
    </g>
    <g id="xtick_3">
     <g id="line2d_3">
      <g>
       <use xlink:href="#me3ab710535" x="335.488006" y="361.96" style="stroke: #000000; stroke-width: 0.8"/>
      </g>
     </g>
     <g id="text_3">
      <text style="font: 20px 'Times New Roman'; text-anchor: middle" x="335.488006" y="382.8475" transform="rotate(-0 335.488006 382.8475)">200</text>
     </g>
    </g>
    <g id="xtick_4">
     <g id="line2d_4">
      <g>
       <use xlink:href="#me3ab710535" x="450.881327" y="361.96" style="stroke: #000000; stroke-width: 0.8"/>
      </g>
     </g>
     <g id="text_4">
      <text style="font: 20px 'Times New Roman'; text-anchor: middle" x="450.881327" y="382.8475" transform="rotate(-0 450.881327 382.8475)">300</text>
     </g>
    </g>
    <g id="xtick_5">
     <g id="line2d_5">
      <g>
       <use xlink:href="#me3ab710535" x="566.274647" y="361.96" style="stroke: #000000; stroke-width: 0.8"/>
      </g>
     </g>
     <g id="text_5">
      <text style="font: 20px 'Times New Roman'; text-anchor: middle" x="566.274647" y="382.8475" transform="rotate(-0 566.274647 382.8475)">400</text>
     </g>
    </g>
    <g id="xtick_6">
     <g id="line2d_6">
      <g>
       <use xlink:href="#me3ab710535" x="681.667968" y="361.96" style="stroke: #000000; stroke-width: 0.8"/>
      </g>
     </g>
     <g id="text_6">
      <text style="font: 20px 'Times New Roman'; text-anchor: middle" x="681.667968" y="382.8475" transform="rotate(-0 681.667968 382.8475)">500</text>
     </g>
    </g>
    <g id="text_7">
     <text style="font: 20px 'Times New Roman'; text-anchor: middle" x="387.415" y="405.013125" transform="rotate(-0 387.415 405.013125)">Time</text>
    </g>
   </g>
   <g id="matplotlib.axis_2">
    <g id="ytick_1">
     <g id="line2d_7">
      <defs>
       <path id="me4a6bfcad6" d="M 0 0 
L -3.5 0 
" style="stroke: #000000; stroke-width: 0.8"/>
      </defs>
      <g>
       <use xlink:href="#me4a6bfcad6" x="76.43" y="347.497059" style="stroke: #000000; stroke-width: 0.8"/>
      </g>
     </g>
     <g id="text_8">
      <text style="font: 20px 'Times New Roman'; text-anchor: end" x="69.43" y="354.440809" transform="rotate(-0 69.43 354.440809)">0.0</text>
     </g>
    </g>
    <g id="ytick_2">
     <g id="line2d_8">
      <g>
       <use xlink:href="#me4a6bfcad6" x="76.43" y="284.348598" style="stroke: #000000; stroke-width: 0.8"/>
      </g>
     </g>
     <g id="text_9">
      <text style="font: 20px 'Times New Roman'; text-anchor: end" x="69.43" y="291.292348" transform="rotate(-0 69.43 291.292348)">0.2</text>
     </g>
    </g>
    <g id="ytick_3">
     <g id="line2d_9">
      <g>
       <use xlink:href="#me4a6bfcad6" x="76.43" y="221.200138" style="stroke: #000000; stroke-width: 0.8"/>
      </g>
     </g>
     <g id="text_10">
      <text style="font: 20px 'Times New Roman'; text-anchor: end" x="69.43" y="228.143888" transform="rotate(-0 69.43 228.143888)">0.4</text>
     </g>
    </g>
    <g id="ytick_4">
     <g id="line2d_10">
      <g>
       <use xlink:href="#me4a6bfcad6" x="76.43" y="158.051678" style="stroke: #000000; stroke-width: 0.8"/>
      </g>
     </g>
     <g id="text_11">
      <text style="font: 20px 'Times New Roman'; text-anchor: end" x="69.43" y="164.995428" transform="rotate(-0 69.43 164.995428)">0.6</text>
     </g>
    </g>
    <g id="ytick_5">
     <g id="line2d_11">
      <g>
       <use xlink:href="#me4a6bfcad6" x="76.43" y="94.903218" style="stroke: #000000; stroke-width: 0.8"/>
      </g>
     </g>
     <g id="text_12">
      <text style="font: 20px 'Times New Roman'; text-anchor: end" x="69.43" y="101.846968" transform="rotate(-0 69.43 101.846968)">0.8</text>
     </g>
    </g>
    <g id="text_13">
     <text style="font: 20px 'Times New Roman'; text-anchor: middle" x="36.114375" y="203.06" transform="rotate(-90 36.114375 203.06)">Density</text>
    </g>
   </g>
   <g id="line2d_12">
    <path d="M 104.701364 347.497059 
L 116.240696 345.269015 
L 127.780028 337.247649 
L 139.31936 321.400358 
L 150.858692 299.894496 
L 162.398024 275.881829 
L 173.937356 251.197457 
L 185.476688 227.170389 
L 197.01602 204.639997 
L 208.555353 183.994082 
L 220.094685 165.328306 
L 231.634017 148.776395 
L 243.173349 134.557447 
L 254.712681 122.365958 
L 266.252013 111.766809 
L 277.791345 102.789832 
L 289.330677 95.224155 
L 300.870009 88.866106 
L 312.409341 83.618993 
L 323.948673 79.180393 
L 335.488006 75.45053 
L 347.027338 72.29465 
L 358.56667 69.710696 
L 370.106002 67.673981 
L 381.645334 65.942773 
L 393.184666 64.517072 
L 404.723998 63.39585 
L 416.26333 62.463898 
L 427.802662 61.726361 
L 439.341994 61.11226 
L 450.881327 60.64217 
L 462.420659 60.23997 
L 473.959991 59.918004 
L 485.499323 59.675244 
L 497.038655 59.441742 
L 508.577987 59.265844 
L 520.117319 59.133149 
L 531.656651 59.008683 
L 543.195983 58.930506 
L 554.735315 58.872902 
L 566.274647 58.799868 
L 577.81398 58.747407 
L 589.353312 58.709348 
L 600.892644 58.682603 
L 612.431976 58.661001 
L 623.971308 58.642486 
L 635.51064 58.633228 
L 647.049972 58.617798 
L 658.589304 58.60854 
L 670.128636 58.605455 
" clip-path="url(#pcc4ca1a11d)" style="fill: none; stroke: #008000; stroke-width: 1.5; stroke-linecap: square"/>
    <defs>
     <path id="mab31ae821d" d="M 0 -3 
L -0.673542 -0.927051 
L -2.85317 -0.927051 
L -1.089814 0.354102 
L -1.763356 2.427051 
L -0 1.145898 
L 1.763356 2.427051 
L 1.089814 0.354102 
L 2.85317 -0.927051 
L 0.673542 -0.927051 
z
" style="stroke: #008000; stroke-linejoin: bevel"/>
    </defs>
    <g clip-path="url(#pcc4ca1a11d)">
     <use xlink:href="#mab31ae821d" x="104.701364" y="347.497059" style="fill: #008000; stroke: #008000; stroke-linejoin: bevel"/>
     <use xlink:href="#mab31ae821d" x="116.240696" y="345.269015" style="fill: #008000; stroke: #008000; stroke-linejoin: bevel"/>
     <use xlink:href="#mab31ae821d" x="127.780028" y="337.247649" style="fill: #008000; stroke: #008000; stroke-linejoin: bevel"/>
     <use xlink:href="#mab31ae821d" x="139.31936" y="321.400358" style="fill: #008000; stroke: #008000; stroke-linejoin: bevel"/>
     <use xlink:href="#mab31ae821d" x="150.858692" y="299.894496" style="fill: #008000; stroke: #008000; stroke-linejoin: bevel"/>
     <use xlink:href="#mab31ae821d" x="162.398024" y="275.881829" style="fill: #008000; stroke: #008000; stroke-linejoin: bevel"/>
     <use xlink:href="#mab31ae821d" x="173.937356" y="251.197457" style="fill: #008000; stroke: #008000; stroke-linejoin: bevel"/>
     <use xlink:href="#mab31ae821d" x="185.476688" y="227.170389" style="fill: #008000; stroke: #008000; stroke-linejoin: bevel"/>
     <use xlink:href="#mab31ae821d" x="197.01602" y="204.639997" style="fill: #008000; stroke: #008000; stroke-linejoin: bevel"/>
     <use xlink:href="#mab31ae821d" x="208.555353" y="183.994082" style="fill: #008000; stroke: #008000; stroke-linejoin: bevel"/>
     <use xlink:href="#mab31ae821d" x="220.094685" y="165.328306" style="fill: #008000; stroke: #008000; stroke-linejoin: bevel"/>
     <use xlink:href="#mab31ae821d" x="231.634017" y="148.776395" style="fill: #008000; stroke: #008000; stroke-linejoin: bevel"/>
     <use xlink:href="#mab31ae821d" x="243.173349" y="134.557447" style="fill: #008000; stroke: #008000; stroke-linejoin: bevel"/>
     <use xlink:href="#mab31ae821d" x="254.712681" y="122.365958" style="fill: #008000; stroke: #008000; stroke-linejoin: bevel"/>
     <use xlink:href="#mab31ae821d" x="266.252013" y="111.766809" style="fill: #008000; stroke: #008000; stroke-linejoin: bevel"/>
     <use xlink:href="#mab31ae821d" x="277.791345" y="102.789832" style="fill: #008000; stroke: #008000; stroke-linejoin: bevel"/>
     <use xlink:href="#mab31ae821d" x="289.330677" y="95.224155" style="fill: #008000; stroke: #008000; stroke-linejoin: bevel"/>
     <use xlink:href="#mab31ae821d" x="300.870009" y="88.866106" style="fill: #008000; stroke: #008000; stroke-linejoin: bevel"/>
     <use xlink:href="#mab31ae821d" x="312.409341" y="83.618993" style="fill: #008000; stroke: #008000; stroke-linejoin: bevel"/>
     <use xlink:href="#mab31ae821d" x="323.948673" y="79.180393" style="fill: #008000; stroke: #008000; stroke-linejoin: bevel"/>
     <use xlink:href="#mab31ae821d" x="335.488006" y="75.45053" style="fill: #008000; stroke: #008000; stroke-linejoin: bevel"/>
     <use xlink:href="#mab31ae821d" x="347.027338" y="72.29465" style="fill: #008000; stroke: #008000; stroke-linejoin: bevel"/>
     <use xlink:href="#mab31ae821d" x="358.56667" y="69.710696" style="fill: #008000; stroke: #008000; stroke-linejoin: bevel"/>
     <use xlink:href="#mab31ae821d" x="370.106002" y="67.673981" style="fill: #008000; stroke: #008000; stroke-linejoin: bevel"/>
     <use xlink:href="#mab31ae821d" x="381.645334" y="65.942773" style="fill: #008000; stroke: #008000; stroke-linejoin: bevel"/>
     <use xlink:href="#mab31ae821d" x="393.184666" y="64.517072" style="fill: #008000; stroke: #008000; stroke-linejoin: bevel"/>
     <use xlink:href="#mab31ae821d" x="404.723998" y="63.39585" style="fill: #008000; stroke: #008000; stroke-linejoin: bevel"/>
     <use xlink:href="#mab31ae821d" x="416.26333" y="62.463898" style="fill: #008000; stroke: #008000; stroke-linejoin: bevel"/>
     <use xlink:href="#mab31ae821d" x="427.802662" y="61.726361" style="fill: #008000; stroke: #008000; stroke-linejoin: bevel"/>
     <use xlink:href="#mab31ae821d" x="439.341994" y="61.11226" style="fill: #008000; stroke: #008000; stroke-linejoin: bevel"/>
     <use xlink:href="#mab31ae821d" x="450.881327" y="60.64217" style="fill: #008000; stroke: #008000; stroke-linejoin: bevel"/>
     <use xlink:href="#mab31ae821d" x="462.420659" y="60.23997" style="fill: #008000; stroke: #008000; stroke-linejoin: bevel"/>
     <use xlink:href="#mab31ae821d" x="473.959991" y="59.918004" style="fill: #008000; stroke: #008000; stroke-linejoin: bevel"/>
     <use xlink:href="#mab31ae821d" x="485.499323" y="59.675244" style="fill: #008000; stroke: #008000; stroke-linejoin: bevel"/>
     <use xlink:href="#mab31ae821d" x="497.038655" y="59.441742" style="fill: #008000; stroke: #008000; stroke-linejoin: bevel"/>
     <use xlink:href="#mab31ae821d" x="508.577987" y="59.265844" style="fill: #008000; stroke: #008000; stroke-linejoin: bevel"/>
     <use xlink:href="#mab31ae821d" x="520.117319" y="59.133149" style="fill: #008000; stroke: #008000; stroke-linejoin: bevel"/>
     <use xlink:href="#mab31ae821d" x="531.656651" y="59.008683" style="fill: #008000; stroke: #008000; stroke-linejoin: bevel"/>
     <use xlink:href="#mab31ae821d" x="543.195983" y="58.930506" style="fill: #008000; stroke: #008000; stroke-linejoin: bevel"/>
     <use xlink:href="#mab31ae821d" x="554.735315" y="58.872902" style="fill: #008000; stroke: #008000; stroke-linejoin: bevel"/>
     <use xlink:href="#mab31ae821d" x="566.274647" y="58.799868" style="fill: #008000; stroke: #008000; stroke-linejoin: bevel"/>
     <use xlink:href="#mab31ae821d" x="577.81398" y="58.747407" style="fill: #008000; stroke: #008000; stroke-linejoin: bevel"/>
     <use xlink:href="#mab31ae821d" x="589.353312" y="58.709348" style="fill: #008000; stroke: #008000; stroke-linejoin: bevel"/>
     <use xlink:href="#mab31ae821d" x="600.892644" y="58.682603" style="fill: #008000; stroke: #008000; stroke-linejoin: bevel"/>
     <use xlink:href="#mab31ae821d" x="612.431976" y="58.661001" style="fill: #008000; stroke: #008000; stroke-linejoin: bevel"/>
     <use xlink:href="#mab31ae821d" x="623.971308" y="58.642486" style="fill: #008000; stroke: #008000; stroke-linejoin: bevel"/>
     <use xlink:href="#mab31ae821d" x="635.51064" y="58.633228" style="fill: #008000; stroke: #008000; stroke-linejoin: bevel"/>
     <use xlink:href="#mab31ae821d" x="647.049972" y="58.617798" style="fill: #008000; stroke: #008000; stroke-linejoin: bevel"/>
     <use xlink:href="#mab31ae821d" x="658.589304" y="58.60854" style="fill: #008000; stroke: #008000; stroke-linejoin: bevel"/>
     <use xlink:href="#mab31ae821d" x="670.128636" y="58.605455" style="fill: #008000; stroke: #008000; stroke-linejoin: bevel"/>
    </g>
   </g>
   <g id="line2d_13">
    <path d="M 104.701364 345.918347 
L 116.240696 335.174931 
L 127.780028 310.835155 
L 139.31936 286.861576 
L 150.858692 271.187097 
L 162.398024 263.578217 
L 173.937356 261.783233 
L 185.476688 264.162487 
L 197.01602 269.294392 
L 208.555353 275.870514 
L 220.094685 283.504082 
L 231.634017 291.229199 
L 243.173349 298.426621 
L 254.712681 305.037717 
L 266.252013 311.215753 
L 277.791345 316.516356 
L 289.330677 321.316009 
L 300.870009 325.521106 
L 312.409341 329.014382 
L 323.948673 332.104428 
L 335.488006 334.700726 
L 347.027338 337.018261 
L 358.56667 338.913024 
L 370.106002 340.416901 
L 381.645334 341.741795 
L 393.184666 342.856845 
L 404.723998 343.71782 
L 416.26333 344.449186 
L 427.802662 345.019055 
L 439.341994 345.496346 
L 450.881327 345.870772 
L 462.420659 346.192738 
L 473.959991 346.445784 
L 485.499323 346.625797 
L 497.038655 346.818153 
L 508.577987 346.958049 
L 520.117319 347.063999 
L 531.656651 347.16995 
L 543.195983 347.235783 
L 554.735315 347.281043 
L 566.274647 347.343791 
L 577.81398 347.393165 
L 589.353312 347.424025 
L 600.892644 347.449741 
L 612.431976 347.469285 
L 623.971308 347.484715 
L 635.51064 347.491915 
L 647.049972 347.504259 
L 658.589304 347.513517 
L 670.128636 347.514545 
" clip-path="url(#pcc4ca1a11d)" style="fill: none; stroke: #ff0000; stroke-width: 1.5; stroke-linecap: square"/>
    <defs>
     <path id="m84e7484c82" d="M 0 -3 
L -0.673542 -0.927051 
L -2.85317 -0.927051 
L -1.089814 0.354102 
L -1.763356 2.427051 
L -0 1.145898 
L 1.763356 2.427051 
L 1.089814 0.354102 
L 2.85317 -0.927051 
L 0.673542 -0.927051 
z
" style="stroke: #ff0000; stroke-linejoin: bevel"/>
    </defs>
    <g clip-path="url(#pcc4ca1a11d)">
     <use xlink:href="#m84e7484c82" x="104.701364" y="345.918347" style="fill: #ff0000; stroke: #ff0000; stroke-linejoin: bevel"/>
     <use xlink:href="#m84e7484c82" x="116.240696" y="335.174931" style="fill: #ff0000; stroke: #ff0000; stroke-linejoin: bevel"/>
     <use xlink:href="#m84e7484c82" x="127.780028" y="310.835155" style="fill: #ff0000; stroke: #ff0000; stroke-linejoin: bevel"/>
     <use xlink:href="#m84e7484c82" x="139.31936" y="286.861576" style="fill: #ff0000; stroke: #ff0000; stroke-linejoin: bevel"/>
     <use xlink:href="#m84e7484c82" x="150.858692" y="271.187097" style="fill: #ff0000; stroke: #ff0000; stroke-linejoin: bevel"/>
     <use xlink:href="#m84e7484c82" x="162.398024" y="263.578217" style="fill: #ff0000; stroke: #ff0000; stroke-linejoin: bevel"/>
     <use xlink:href="#m84e7484c82" x="173.937356" y="261.783233" style="fill: #ff0000; stroke: #ff0000; stroke-linejoin: bevel"/>
     <use xlink:href="#m84e7484c82" x="185.476688" y="264.162487" style="fill: #ff0000; stroke: #ff0000; stroke-linejoin: bevel"/>
     <use xlink:href="#m84e7484c82" x="197.01602" y="269.294392" style="fill: #ff0000; stroke: #ff0000; stroke-linejoin: bevel"/>
     <use xlink:href="#m84e7484c82" x="208.555353" y="275.870514" style="fill: #ff0000; stroke: #ff0000; stroke-linejoin: bevel"/>
     <use xlink:href="#m84e7484c82" x="220.094685" y="283.504082" style="fill: #ff0000; stroke: #ff0000; stroke-linejoin: bevel"/>
     <use xlink:href="#m84e7484c82" x="231.634017" y="291.229199" style="fill: #ff0000; stroke: #ff0000; stroke-linejoin: bevel"/>
     <use xlink:href="#m84e7484c82" x="243.173349" y="298.426621" style="fill: #ff0000; stroke: #ff0000; stroke-linejoin: bevel"/>
     <use xlink:href="#m84e7484c82" x="254.712681" y="305.037717" style="fill: #ff0000; stroke: #ff0000; stroke-linejoin: bevel"/>
     <use xlink:href="#m84e7484c82" x="266.252013" y="311.215753" style="fill: #ff0000; stroke: #ff0000; stroke-linejoin: bevel"/>
     <use xlink:href="#m84e7484c82" x="277.791345" y="316.516356" style="fill: #ff0000; stroke: #ff0000; stroke-linejoin: bevel"/>
     <use xlink:href="#m84e7484c82" x="289.330677" y="321.316009" style="fill: #ff0000; stroke: #ff0000; stroke-linejoin: bevel"/>
     <use xlink:href="#m84e7484c82" x="300.870009" y="325.521106" style="fill: #ff0000; stroke: #ff0000; stroke-linejoin: bevel"/>
     <use xlink:href="#m84e7484c82" x="312.409341" y="329.014382" style="fill: #ff0000; stroke: #ff0000; stroke-linejoin: bevel"/>
     <use xlink:href="#m84e7484c82" x="323.948673" y="332.104428" style="fill: #ff0000; stroke: #ff0000; stroke-linejoin: bevel"/>
     <use xlink:href="#m84e7484c82" x="335.488006" y="334.700726" style="fill: #ff0000; stroke: #ff0000; stroke-linejoin: bevel"/>
     <use xlink:href="#m84e7484c82" x="347.027338" y="337.018261" style="fill: #ff0000; stroke: #ff0000; stroke-linejoin: bevel"/>
     <use xlink:href="#m84e7484c82" x="358.56667" y="338.913024" style="fill: #ff0000; stroke: #ff0000; stroke-linejoin: bevel"/>
     <use xlink:href="#m84e7484c82" x="370.106002" y="340.416901" style="fill: #ff0000; stroke: #ff0000; stroke-linejoin: bevel"/>
     <use xlink:href="#m84e7484c82" x="381.645334" y="341.741795" style="fill: #ff0000; stroke: #ff0000; stroke-linejoin: bevel"/>
     <use xlink:href="#m84e7484c82" x="393.184666" y="342.856845" style="fill: #ff0000; stroke: #ff0000; stroke-linejoin: bevel"/>
     <use xlink:href="#m84e7484c82" x="404.723998" y="343.71782" style="fill: #ff0000; stroke: #ff0000; stroke-linejoin: bevel"/>
     <use xlink:href="#m84e7484c82" x="416.26333" y="344.449186" style="fill: #ff0000; stroke: #ff0000; stroke-linejoin: bevel"/>
     <use xlink:href="#m84e7484c82" x="427.802662" y="345.019055" style="fill: #ff0000; stroke: #ff0000; stroke-linejoin: bevel"/>
     <use xlink:href="#m84e7484c82" x="439.341994" y="345.496346" style="fill: #ff0000; stroke: #ff0000; stroke-linejoin: bevel"/>
     <use xlink:href="#m84e7484c82" x="450.881327" y="345.870772" style="fill: #ff0000; stroke: #ff0000; stroke-linejoin: bevel"/>
     <use xlink:href="#m84e7484c82" x="462.420659" y="346.192738" style="fill: #ff0000; stroke: #ff0000; stroke-linejoin: bevel"/>
     <use xlink:href="#m84e7484c82" x="473.959991" y="346.445784" style="fill: #ff0000; stroke: #ff0000; stroke-linejoin: bevel"/>
     <use xlink:href="#m84e7484c82" x="485.499323" y="346.625797" style="fill: #ff0000; stroke: #ff0000; stroke-linejoin: bevel"/>
     <use xlink:href="#m84e7484c82" x="497.038655" y="346.818153" style="fill: #ff0000; stroke: #ff0000; stroke-linejoin: bevel"/>
     <use xlink:href="#m84e7484c82" x="508.577987" y="346.958049" style="fill: #ff0000; stroke: #ff0000; stroke-linejoin: bevel"/>
     <use xlink:href="#m84e7484c82" x="520.117319" y="347.063999" style="fill: #ff0000; stroke: #ff0000; stroke-linejoin: bevel"/>
     <use xlink:href="#m84e7484c82" x="531.656651" y="347.16995" style="fill: #ff0000; stroke: #ff0000; stroke-linejoin: bevel"/>
     <use xlink:href="#m84e7484c82" x="543.195983" y="347.235783" style="fill: #ff0000; stroke: #ff0000; stroke-linejoin: bevel"/>
     <use xlink:href="#m84e7484c82" x="554.735315" y="347.281043" style="fill: #ff0000; stroke: #ff0000; stroke-linejoin: bevel"/>
     <use xlink:href="#m84e7484c82" x="566.274647" y="347.343791" style="fill: #ff0000; stroke: #ff0000; stroke-linejoin: bevel"/>
     <use xlink:href="#m84e7484c82" x="577.81398" y="347.393165" style="fill: #ff0000; stroke: #ff0000; stroke-linejoin: bevel"/>
     <use xlink:href="#m84e7484c82" x="589.353312" y="347.424025" style="fill: #ff0000; stroke: #ff0000; stroke-linejoin: bevel"/>
     <use xlink:href="#m84e7484c82" x="600.892644" y="347.449741" style="fill: #ff0000; stroke: #ff0000; stroke-linejoin: bevel"/>
     <use xlink:href="#m84e7484c82" x="612.431976" y="347.469285" style="fill: #ff0000; stroke: #ff0000; stroke-linejoin: bevel"/>
     <use xlink:href="#m84e7484c82" x="623.971308" y="347.484715" style="fill: #ff0000; stroke: #ff0000; stroke-linejoin: bevel"/>
     <use xlink:href="#m84e7484c82" x="635.51064" y="347.491915" style="fill: #ff0000; stroke: #ff0000; stroke-linejoin: bevel"/>
     <use xlink:href="#m84e7484c82" x="647.049972" y="347.504259" style="fill: #ff0000; stroke: #ff0000; stroke-linejoin: bevel"/>
     <use xlink:href="#m84e7484c82" x="658.589304" y="347.513517" style="fill: #ff0000; stroke: #ff0000; stroke-linejoin: bevel"/>
     <use xlink:href="#m84e7484c82" x="670.128636" y="347.514545" style="fill: #ff0000; stroke: #ff0000; stroke-linejoin: bevel"/>
    </g>
   </g>
   <g id="line2d_14">
    <path d="M 104.701364 347.497059 
L 116.240696 318.3566 
L 127.780028 279.868853 
L 139.31936 262.956916 
L 150.858692 264.015391 
L 162.398024 272.237343 
L 173.937356 283.306582 
L 185.476688 294.19478 
L 197.01602 303.863005 
L 208.555353 312.175478 
L 220.094685 319.013904 
L 231.634017 324.654988 
L 243.173349 329.233483 
L 254.712681 332.948945 
L 266.252013 335.903211 
L 277.791345 338.385329 
L 289.330677 340.267748 
L 300.870009 341.822029 
L 312.409341 343.036858 
L 323.948673 343.933835 
L 335.488006 344.694003 
L 347.027338 345.285474 
L 358.56667 345.790538 
L 370.106002 346.134105 
L 381.645334 346.414925 
L 393.184666 346.62374 
L 404.723998 346.803752 
L 416.26333 346.94982 
L 427.802662 347.052684 
L 439.341994 347.150405 
L 450.881327 347.217267 
L 462.420659 347.277957 
L 473.959991 347.320132 
L 485.499323 347.363335 
L 497.038655 347.39008 
L 508.577987 347.413738 
L 520.117319 347.431225 
L 531.656651 347.447684 
L 543.195983 347.45797 
L 554.735315 347.469285 
L 566.274647 347.476486 
L 577.81398 347.477514 
L 589.353312 347.483686 
L 600.892644 347.484715 
L 612.431976 347.486772 
L 623.971308 347.489858 
L 635.51064 347.491915 
L 647.049972 347.493973 
L 658.589304 347.493973 
L 670.128636 347.49603 
" clip-path="url(#pcc4ca1a11d)" style="fill: none; stroke: #add8e6; stroke-width: 1.5; stroke-linecap: square"/>
    <defs>
     <path id="m34b6164575" d="M 0 -3 
L -0.673542 -0.927051 
L -2.85317 -0.927051 
L -1.089814 0.354102 
L -1.763356 2.427051 
L -0 1.145898 
L 1.763356 2.427051 
L 1.089814 0.354102 
L 2.85317 -0.927051 
L 0.673542 -0.927051 
z
" style="stroke: #add8e6; stroke-linejoin: bevel"/>
    </defs>
    <g clip-path="url(#pcc4ca1a11d)">
     <use xlink:href="#m34b6164575" x="104.701364" y="347.497059" style="fill: #add8e6; stroke: #add8e6; stroke-linejoin: bevel"/>
     <use xlink:href="#m34b6164575" x="116.240696" y="318.3566" style="fill: #add8e6; stroke: #add8e6; stroke-linejoin: bevel"/>
     <use xlink:href="#m34b6164575" x="127.780028" y="279.868853" style="fill: #add8e6; stroke: #add8e6; stroke-linejoin: bevel"/>
     <use xlink:href="#m34b6164575" x="139.31936" y="262.956916" style="fill: #add8e6; stroke: #add8e6; stroke-linejoin: bevel"/>
     <use xlink:href="#m34b6164575" x="150.858692" y="264.015391" style="fill: #add8e6; stroke: #add8e6; stroke-linejoin: bevel"/>
     <use xlink:href="#m34b6164575" x="162.398024" y="272.237343" style="fill: #add8e6; stroke: #add8e6; stroke-linejoin: bevel"/>
     <use xlink:href="#m34b6164575" x="173.937356" y="283.306582" style="fill: #add8e6; stroke: #add8e6; stroke-linejoin: bevel"/>
     <use xlink:href="#m34b6164575" x="185.476688" y="294.19478" style="fill: #add8e6; stroke: #add8e6; stroke-linejoin: bevel"/>
     <use xlink:href="#m34b6164575" x="197.01602" y="303.863005" style="fill: #add8e6; stroke: #add8e6; stroke-linejoin: bevel"/>
     <use xlink:href="#m34b6164575" x="208.555353" y="312.175478" style="fill: #add8e6; stroke: #add8e6; stroke-linejoin: bevel"/>
     <use xlink:href="#m34b6164575" x="220.094685" y="319.013904" style="fill: #add8e6; stroke: #add8e6; stroke-linejoin: bevel"/>
     <use xlink:href="#m34b6164575" x="231.634017" y="324.654988" style="fill: #add8e6; stroke: #add8e6; stroke-linejoin: bevel"/>
     <use xlink:href="#m34b6164575" x="243.173349" y="329.233483" style="fill: #add8e6; stroke: #add8e6; stroke-linejoin: bevel"/>
     <use xlink:href="#m34b6164575" x="254.712681" y="332.948945" style="fill: #add8e6; stroke: #add8e6; stroke-linejoin: bevel"/>
     <use xlink:href="#m34b6164575" x="266.252013" y="335.903211" style="fill: #add8e6; stroke: #add8e6; stroke-linejoin: bevel"/>
     <use xlink:href="#m34b6164575" x="277.791345" y="338.385329" style="fill: #add8e6; stroke: #add8e6; stroke-linejoin: bevel"/>
     <use xlink:href="#m34b6164575" x="289.330677" y="340.267748" style="fill: #add8e6; stroke: #add8e6; stroke-linejoin: bevel"/>
     <use xlink:href="#m34b6164575" x="300.870009" y="341.822029" style="fill: #add8e6; stroke: #add8e6; stroke-linejoin: bevel"/>
     <use xlink:href="#m34b6164575" x="312.409341" y="343.036858" style="fill: #add8e6; stroke: #add8e6; stroke-linejoin: bevel"/>
     <use xlink:href="#m34b6164575" x="323.948673" y="343.933835" style="fill: #add8e6; stroke: #add8e6; stroke-linejoin: bevel"/>
     <use xlink:href="#m34b6164575" x="335.488006" y="344.694003" style="fill: #add8e6; stroke: #add8e6; stroke-linejoin: bevel"/>
     <use xlink:href="#m34b6164575" x="347.027338" y="345.285474" style="fill: #add8e6; stroke: #add8e6; stroke-linejoin: bevel"/>
     <use xlink:href="#m34b6164575" x="358.56667" y="345.790538" style="fill: #add8e6; stroke: #add8e6; stroke-linejoin: bevel"/>
     <use xlink:href="#m34b6164575" x="370.106002" y="346.134105" style="fill: #add8e6; stroke: #add8e6; stroke-linejoin: bevel"/>
     <use xlink:href="#m34b6164575" x="381.645334" y="346.414925" style="fill: #add8e6; stroke: #add8e6; stroke-linejoin: bevel"/>
     <use xlink:href="#m34b6164575" x="393.184666" y="346.62374" style="fill: #add8e6; stroke: #add8e6; stroke-linejoin: bevel"/>
     <use xlink:href="#m34b6164575" x="404.723998" y="346.803752" style="fill: #add8e6; stroke: #add8e6; stroke-linejoin: bevel"/>
     <use xlink:href="#m34b6164575" x="416.26333" y="346.94982" style="fill: #add8e6; stroke: #add8e6; stroke-linejoin: bevel"/>
     <use xlink:href="#m34b6164575" x="427.802662" y="347.052684" style="fill: #add8e6; stroke: #add8e6; stroke-linejoin: bevel"/>
     <use xlink:href="#m34b6164575" x="439.341994" y="347.150405" style="fill: #add8e6; stroke: #add8e6; stroke-linejoin: bevel"/>
     <use xlink:href="#m34b6164575" x="450.881327" y="347.217267" style="fill: #add8e6; stroke: #add8e6; stroke-linejoin: bevel"/>
     <use xlink:href="#m34b6164575" x="462.420659" y="347.277957" style="fill: #add8e6; stroke: #add8e6; stroke-linejoin: bevel"/>
     <use xlink:href="#m34b6164575" x="473.959991" y="347.320132" style="fill: #add8e6; stroke: #add8e6; stroke-linejoin: bevel"/>
     <use xlink:href="#m34b6164575" x="485.499323" y="347.363335" style="fill: #add8e6; stroke: #add8e6; stroke-linejoin: bevel"/>
     <use xlink:href="#m34b6164575" x="497.038655" y="347.39008" style="fill: #add8e6; stroke: #add8e6; stroke-linejoin: bevel"/>
     <use xlink:href="#m34b6164575" x="508.577987" y="347.413738" style="fill: #add8e6; stroke: #add8e6; stroke-linejoin: bevel"/>
     <use xlink:href="#m34b6164575" x="520.117319" y="347.431225" style="fill: #add8e6; stroke: #add8e6; stroke-linejoin: bevel"/>
     <use xlink:href="#m34b6164575" x="531.656651" y="347.447684" style="fill: #add8e6; stroke: #add8e6; stroke-linejoin: bevel"/>
     <use xlink:href="#m34b6164575" x="543.195983" y="347.45797" style="fill: #add8e6; stroke: #add8e6; stroke-linejoin: bevel"/>
     <use xlink:href="#m34b6164575" x="554.735315" y="347.469285" style="fill: #add8e6; stroke: #add8e6; stroke-linejoin: bevel"/>
     <use xlink:href="#m34b6164575" x="566.274647" y="347.476486" style="fill: #add8e6; stroke: #add8e6; stroke-linejoin: bevel"/>
     <use xlink:href="#m34b6164575" x="577.81398" y="347.477514" style="fill: #add8e6; stroke: #add8e6; stroke-linejoin: bevel"/>
     <use xlink:href="#m34b6164575" x="589.353312" y="347.483686" style="fill: #add8e6; stroke: #add8e6; stroke-linejoin: bevel"/>
     <use xlink:href="#m34b6164575" x="600.892644" y="347.484715" style="fill: #add8e6; stroke: #add8e6; stroke-linejoin: bevel"/>
     <use xlink:href="#m34b6164575" x="612.431976" y="347.486772" style="fill: #add8e6; stroke: #add8e6; stroke-linejoin: bevel"/>
     <use xlink:href="#m34b6164575" x="623.971308" y="347.489858" style="fill: #add8e6; stroke: #add8e6; stroke-linejoin: bevel"/>
     <use xlink:href="#m34b6164575" x="635.51064" y="347.491915" style="fill: #add8e6; stroke: #add8e6; stroke-linejoin: bevel"/>
     <use xlink:href="#m34b6164575" x="647.049972" y="347.493973" style="fill: #add8e6; stroke: #add8e6; stroke-linejoin: bevel"/>
     <use xlink:href="#m34b6164575" x="658.589304" y="347.493973" style="fill: #add8e6; stroke: #add8e6; stroke-linejoin: bevel"/>
     <use xlink:href="#m34b6164575" x="670.128636" y="347.49603" style="fill: #add8e6; stroke: #add8e6; stroke-linejoin: bevel"/>
    </g>
   </g>
   <g id="patch_3">
    <path d="M 76.43 361.96 
L 76.43 44.16 
" style="fill: none; stroke: #000000; stroke-width: 0.8; stroke-linejoin: miter; stroke-linecap: square"/>
   </g>
   <g id="patch_4">
    <path d="M 698.4 361.96 
L 698.4 44.16 
" style="fill: none; stroke: #000000; stroke-width: 0.8; stroke-linejoin: miter; stroke-linecap: square"/>
   </g>
   <g id="patch_5">
    <path d="M 76.43 361.96 
L 698.4 361.96 
" style="fill: none; stroke: #000000; stroke-width: 0.8; stroke-linejoin: miter; stroke-linecap: square"/>
   </g>
   <g id="patch_6">
    <path d="M 76.43 44.16 
L 698.4 44.16 
" style="fill: none; stroke: #000000; stroke-width: 0.8; stroke-linejoin: miter; stroke-linecap: square"/>
   </g>
   <g id="text_14">
    <text style="font: 24px 'Times New Roman'; text-anchor: middle" x="387.415" y="38.16" transform="rotate(-0 387.415 38.16)">(A)   Co-author Network Analysis</text>
   </g>
   <g id="legend_1">
    <g id="patch_7">
     <path d="M 90.43 145.106875 
L 183.326875 145.106875 
Q 187.326875 145.106875 187.326875 141.106875 
L 187.326875 58.16 
Q 187.326875 54.16 183.326875 54.16 
L 90.43 54.16 
Q 86.43 54.16 86.43 58.16 
L 86.43 141.106875 
Q 86.43 145.106875 90.43 145.106875 
z
" style="fill: #ffffff; opacity: 0.8; stroke: #cccccc; stroke-linejoin: miter"/>
    </g>
    <g id="line2d_15">
     <path d="M 94.43 69.16 
L 114.43 69.16 
L 134.43 69.16 
" style="fill: none; stroke: #008000; stroke-width: 1.5; stroke-linecap: square"/>
     <g>
      <use xlink:href="#mab31ae821d" x="114.43" y="69.16" style="fill: #008000; stroke: #008000; stroke-linejoin: bevel"/>
     </g>
    </g>
    <g id="text_15">
     <text style="font: 20px 'Times New Roman'; text-anchor: start" x="150.43" y="76.16" transform="rotate(-0 150.43 76.16)">R_t</text>
    </g>
    <g id="line2d_16">
     <path d="M 94.43 97.475625 
L 114.43 97.475625 
L 134.43 97.475625 
" style="fill: none; stroke: #ff0000; stroke-width: 1.5; stroke-linecap: square"/>
     <g>
      <use xlink:href="#m84e7484c82" x="114.43" y="97.475625" style="fill: #ff0000; stroke: #ff0000; stroke-linejoin: bevel"/>
     </g>
    </g>
    <g id="text_16">
     <text style="font: 20px 'Times New Roman'; text-anchor: start" x="150.43" y="104.475625" transform="rotate(-0 150.43 104.475625)">I_t</text>
    </g>
    <g id="line2d_17">
     <path d="M 94.43 125.79125 
L 114.43 125.79125 
L 134.43 125.79125 
" style="fill: none; stroke: #add8e6; stroke-width: 1.5; stroke-linecap: square"/>
     <g>
      <use xlink:href="#m34b6164575" x="114.43" y="125.79125" style="fill: #add8e6; stroke: #add8e6; stroke-linejoin: bevel"/>
     </g>
    </g>
    <g id="text_17">
     <text style="font: 20px 'Times New Roman'; text-anchor: start" x="150.43" y="132.79125" transform="rotate(-0 150.43 132.79125)">E_t</text>
    </g>
   </g>
  </g>
 </g>
 <defs>
  <clipPath id="pcc4ca1a11d">
   <rect x="76.43" y="44.16" width="621.97" height="317.8"/>
  </clipPath>
 </defs>
</svg>
