<?xml version="1.0" encoding="utf-8" standalone="no"?>
<!DOCTYPE svg PUBLIC "-//W3C//DTD SVG 1.1//EN"
  "http://www.w3.org/Graphics/SVG/1.1/DTD/svg11.dtd">
<svg xmlns:xlink="http://www.w3.org/1999/xlink" width="720pt" height="432pt" viewBox="0 0 720 432" xmlns="http://www.w3.org/2000/svg" version="1.1">
 <metadata>
  <rdf:RDF xmlns:dc="http://purl.org/dc/elements/1.1/" xmlns:cc="http://creativecommons.org/ns#" xmlns:rdf="http://www.w3.org/1999/02/22-rdf-syntax-ns#">
   <cc:Work>
    <dc:type rdf:resource="http://purl.org/dc/dcmitype/StillImage"/>
    <dc:date>2024-09-08T21:31:24.598909</dc:date>
    <dc:format>image/svg+xml</dc:format>
    <dc:creator>
     <cc:Agent>
      <dc:title>Matplotlib v3.9.2, https://matplotlib.org/</dc:title>
     </cc:Agent>
    </dc:creator>
   </cc:Work>
  </rdf:RDF>
 </metadata>
 <defs>
  <style type="text/css">*{stroke-linejoin: round; stroke-linecap: butt}</style>
 </defs>
 <g id="figure_1">
  <g id="patch_1">
   <path d="M 0 432 
L 720 432 
L 720 0 
L 0 0 
z
" style="fill: #ffffff"/>
  </g>
  <g id="axes_1">
   <g id="patch_2">
    <path d="M 90 384.48 
L 648 384.48 
L 648 51.84 
L 90 51.84 
z
" style="fill: #ffffff"/>
   </g>
   <g id="matplotlib.axis_1">
    <g id="xtick_1">
     <g id="line2d_1">
      <defs>
       <path id="m5369287bac" d="M 0 0 
L 0 3.5 
" style="stroke: #000000; stroke-width: 0.8"/>
      </defs>
      <g>
       <use xlink:href="#m5369287bac" x="115.363636" y="384.48" style="stroke: #000000; stroke-width: 0.8"/>
      </g>
     </g>
     <g id="text_1">
      <text style="font: 20px 'Times New Roman'; text-anchor: middle" x="115.363636" y="405.3675" transform="rotate(-0 115.363636 405.3675)">0</text>
     </g>
    </g>
    <g id="xtick_2">
     <g id="line2d_2">
      <g>
       <use xlink:href="#m5369287bac" x="217.021498" y="384.48" style="stroke: #000000; stroke-width: 0.8"/>
      </g>
     </g>
     <g id="text_2">
      <text style="font: 20px 'Times New Roman'; text-anchor: middle" x="217.021498" y="405.3675" transform="rotate(-0 217.021498 405.3675)">100</text>
     </g>
    </g>
    <g id="xtick_3">
     <g id="line2d_3">
      <g>
       <use xlink:href="#m5369287bac" x="318.679359" y="384.48" style="stroke: #000000; stroke-width: 0.8"/>
      </g>
     </g>
     <g id="text_3">
      <text style="font: 20px 'Times New Roman'; text-anchor: middle" x="318.679359" y="405.3675" transform="rotate(-0 318.679359 405.3675)">200</text>
     </g>
    </g>
    <g id="xtick_4">
     <g id="line2d_4">
      <g>
       <use xlink:href="#m5369287bac" x="420.33722" y="384.48" style="stroke: #000000; stroke-width: 0.8"/>
      </g>
     </g>
     <g id="text_4">
      <text style="font: 20px 'Times New Roman'; text-anchor: middle" x="420.33722" y="405.3675" transform="rotate(-0 420.33722 405.3675)">300</text>
     </g>
    </g>
    <g id="xtick_5">
     <g id="line2d_5">
      <g>
       <use xlink:href="#m5369287bac" x="521.995081" y="384.48" style="stroke: #000000; stroke-width: 0.8"/>
      </g>
     </g>
     <g id="text_5">
      <text style="font: 20px 'Times New Roman'; text-anchor: middle" x="521.995081" y="405.3675" transform="rotate(-0 521.995081 405.3675)">400</text>
     </g>
    </g>
    <g id="xtick_6">
     <g id="line2d_6">
      <g>
       <use xlink:href="#m5369287bac" x="623.652942" y="384.48" style="stroke: #000000; stroke-width: 0.8"/>
      </g>
     </g>
     <g id="text_6">
      <text style="font: 20px 'Times New Roman'; text-anchor: middle" x="623.652942" y="405.3675" transform="rotate(-0 623.652942 405.3675)">500</text>
     </g>
    </g>
    <g id="text_7">
     <text style="font: 20px 'Times New Roman'; text-anchor: middle" x="369" y="427.533125" transform="rotate(-0 369 427.533125)">Time (t)</text>
    </g>
   </g>
   <g id="matplotlib.axis_2">
    <g id="ytick_1">
     <g id="line2d_7">
      <defs>
       <path id="m01d5b1de7c" d="M 0 0 
L -3.5 0 
" style="stroke: #000000; stroke-width: 0.8"/>
      </defs>
      <g>
       <use xlink:href="#m01d5b1de7c" x="90" y="369.490997" style="stroke: #000000; stroke-width: 0.8"/>
      </g>
     </g>
     <g id="text_8">
      <text style="font: 20px 'Times New Roman'; text-anchor: end" x="83" y="376.434747" transform="rotate(-0 83 376.434747)">0.0</text>
     </g>
    </g>
    <g id="ytick_2">
     <g id="line2d_8">
      <g>
       <use xlink:href="#m01d5b1de7c" x="90" y="296.278059" style="stroke: #000000; stroke-width: 0.8"/>
      </g>
     </g>
     <g id="text_9">
      <text style="font: 20px 'Times New Roman'; text-anchor: end" x="83" y="303.221809" transform="rotate(-0 83 303.221809)">0.1</text>
     </g>
    </g>
    <g id="ytick_3">
     <g id="line2d_9">
      <g>
       <use xlink:href="#m01d5b1de7c" x="90" y="223.065121" style="stroke: #000000; stroke-width: 0.8"/>
      </g>
     </g>
     <g id="text_10">
      <text style="font: 20px 'Times New Roman'; text-anchor: end" x="83" y="230.008871" transform="rotate(-0 83 230.008871)">0.2</text>
     </g>
    </g>
    <g id="ytick_4">
     <g id="line2d_10">
      <g>
       <use xlink:href="#m01d5b1de7c" x="90" y="149.852183" style="stroke: #000000; stroke-width: 0.8"/>
      </g>
     </g>
     <g id="text_11">
      <text style="font: 20px 'Times New Roman'; text-anchor: end" x="83" y="156.795933" transform="rotate(-0 83 156.795933)">0.3</text>
     </g>
    </g>
    <g id="ytick_5">
     <g id="line2d_11">
      <g>
       <use xlink:href="#m01d5b1de7c" x="90" y="76.639245" style="stroke: #000000; stroke-width: 0.8"/>
      </g>
     </g>
     <g id="text_12">
      <text style="font: 20px 'Times New Roman'; text-anchor: end" x="83" y="83.582995" transform="rotate(-0 83 83.582995)">0.4</text>
     </g>
    </g>
    <g id="text_13">
     <text style="font: 20px 'Times New Roman'; text-anchor: middle" x="49.684375" y="218.16" transform="rotate(-90 49.684375 218.16)">Density</text>
    </g>
   </g>
   <g id="line2d_12">
    <path d="M 115.363636 365.83035 
L 116.380215 367.322264 
L 118.413372 366.579946 
L 120.446529 365.40097 
L 121.463108 364.760539 
L 122.479687 363.974555 
L 124.512844 361.41283 
L 125.529422 359.72442 
L 126.546001 358.298005 
L 127.56258 356.333046 
L 128.579158 354.091536 
L 131.628894 346.086146 
L 133.662051 338.561078 
L 135.695209 330.206361 
L 139.761523 311.066199 
L 140.778102 305.942749 
L 141.79468 301.576173 
L 142.811259 295.855957 
L 147.894152 271.912561 
L 148.910731 267.938976 
L 151.960466 255.013908 
L 156.026781 241.011752 
L 158.059938 234.374555 
L 159.076517 232.002049 
L 161.109674 226.674825 
L 164.15941 221.01283 
L 165.175988 220.095849 
L 166.192567 218.669434 
L 167.209146 217.02469 
L 169.242303 214.375633 
L 170.258881 213.254879 
L 171.27546 212.643558 
L 173.308617 210.649488 
L 174.325196 209.979946 
L 175.341774 210.038167 
L 176.358353 209.412291 
L 180.424668 208.961078 
L 181.441246 209.07752 
L 182.457825 209.514178 
L 184.490982 209.543288 
L 185.507561 209.776173 
L 186.524139 209.63062 
L 187.540718 209.732507 
L 188.557296 210.067278 
L 190.590454 210.48938 
L 193.640189 211.450027 
L 196.689925 213.604205 
L 197.706504 214.826846 
L 198.723083 215.758383 
L 199.739661 216.064043 
L 201.772818 217.534124 
L 202.789397 218.669434 
L 203.805976 219.368086 
L 204.822554 219.688302 
L 206.855711 220.809057 
L 209.905447 222.992345 
L 212.955183 224.797197 
L 214.98834 226.500162 
L 217.021498 228.028464 
L 218.038076 229.003666 
L 219.054655 230.299084 
L 220.071233 231.332507 
L 221.087812 232.074825 
L 224.137548 234.9131 
L 225.154126 236.397736 
L 227.187284 238.100701 
L 228.203862 238.974016 
L 232.270177 243.835472 
L 233.286755 244.694232 
L 234.303334 245.698544 
L 237.35307 248.041941 
L 241.419384 252.175633 
L 242.435963 253.310943 
L 244.46912 254.810135 
L 247.518856 257.92496 
L 248.535435 258.579946 
L 249.552013 259.715256 
L 251.58517 261.330889 
L 253.618328 263.543288 
L 254.634906 264.081833 
L 255.651485 265.144367 
L 257.684642 266.818221 
L 258.701221 268.026307 
L 259.717799 268.681294 
L 268.867007 276.948679 
L 270.900164 278.156765 
L 273.9499 281.315256 
L 274.966478 282.086685 
L 275.983057 283.105553 
L 276.999636 283.847871 
L 282.082529 288.199892 
L 283.099107 288.898544 
L 284.115686 289.422534 
L 285.132265 290.092075 
L 286.148843 291.125499 
L 293.264893 296.525499 
L 295.298051 297.631698 
L 296.314629 298.650566 
L 300.380944 301.663504 
L 301.397522 302.041941 
L 302.414101 302.653261 
L 303.43068 303.39558 
L 305.463837 304.545445 
L 306.480415 305.273208 
L 309.530151 306.976173 
L 310.54673 307.878598 
L 315.629623 311.459191 
L 316.646201 311.939515 
L 317.66278 312.623612 
L 321.729095 314.865121 
L 327.828566 318.736819 
L 329.861723 319.959461 
L 331.894881 320.76 
L 334.944617 322.768625 
L 339.010931 324.951914 
L 341.044088 325.825229 
L 343.077245 327.033315 
L 345.110403 327.717412 
L 346.126981 328.110404 
L 347.14356 328.372399 
L 348.160138 328.969164 
L 355.276189 331.807439 
L 357.309346 333.044636 
L 358.325925 333.393962 
L 359.342503 333.903396 
L 361.37566 334.674825 
L 362.392239 335.038706 
L 365.441975 336.4069 
L 366.458553 336.727116 
L 367.475132 337.26566 
L 373.574604 339.361617 
L 374.591182 339.652722 
L 375.607761 340.147601 
L 380.690654 341.821456 
L 381.707233 342.112561 
L 383.74039 342.476442 
L 386.790126 343.480755 
L 388.823283 343.975633 
L 391.873019 344.90717 
L 394.922755 345.576712 
L 396.955912 346.275364 
L 397.97249 346.479137 
L 398.989069 346.857574 
L 401.022226 347.279677 
L 403.055383 348.007439 
L 410.171434 350.03062 
L 412.204591 350.409057 
L 414.237748 350.903935 
L 416.270905 351.238706 
L 421.353799 352.155687 
L 423.386956 352.461348 
L 427.45327 353.43655 
L 430.503006 353.829542 
L 433.552742 354.513639 
L 436.602478 355.081294 
L 437.619056 355.343288 
L 439.652214 355.692615 
L 441.685371 356.143827 
L 442.701949 356.158383 
L 443.718528 356.318491 
L 446.768264 357.133585 
L 450.834578 357.905013 
L 451.851157 357.905013 
L 452.867735 358.108787 
L 455.917471 358.429003 
L 461.000364 359.302318 
L 462.016943 359.433315 
L 464.0501 359.826307 
L 471.16615 360.961617 
L 473.199308 361.179946 
L 474.215886 361.398275 
L 484.381672 362.358922 
L 485.398251 362.388032 
L 487.431408 362.664582 
L 493.53088 363.174016 
L 495.564037 363.174016 
L 510.812716 364.192884 
L 512.845874 364.280216 
L 514.879031 364.382102 
L 516.912188 364.5131 
L 528.094553 365.066199 
L 539.276917 365.473747 
L 541.310075 365.619299 
L 543.343232 365.706631 
L 545.376389 365.895849 
L 549.442704 366.055957 
L 564.691383 366.841941 
L 567.741119 366.914717 
L 571.807433 367.234933 
L 574.857169 367.351375 
L 579.940062 367.438706 
L 581.973219 367.511482 
L 585.022955 367.64248 
L 587.056112 367.700701 
L 595.188741 367.802588 
L 600.271634 368.020916 
L 604.337949 368.210135 
L 614.503735 368.588571 
L 618.570049 368.617682 
L 622.636364 368.690458 
L 622.636364 368.690458 
" clip-path="url(#p468e3e6795)" style="fill: none; stroke-dasharray: 5.55,2.4; stroke-dashoffset: 0; stroke: #0000ff; stroke-width: 1.5"/>
   </g>
   <g id="line2d_13">
    <path d="M 115.363636 365.83035 
L 116.380215 367.453261 
L 117.396794 366.914717 
L 119.429951 366.114178 
L 120.446529 365.561078 
L 123.496265 362.766469 
L 124.512844 361.514717 
L 126.546001 358.239784 
L 127.56258 356.274825 
L 128.579158 353.814987 
L 131.628894 344.572399 
L 133.662051 336.552453 
L 134.67863 331.996658 
L 136.711787 321.109326 
L 138.744944 308.82469 
L 140.778102 295.186415 
L 146.877573 248.536819 
L 150.943888 220.692615 
L 153.993624 201.770782 
L 157.043359 184.668356 
L 159.076517 175.629542 
L 160.093095 170.753531 
L 161.109674 166.43062 
L 162.126253 162.733585 
L 167.209146 147.10124 
L 168.225724 144.728733 
L 170.258881 138.979407 
L 171.27546 136.636011 
L 172.292039 134.772938 
L 173.308617 132.633315 
L 174.325196 130.828464 
L 177.374932 127.204205 
L 181.441246 124.08938 
L 182.457825 123.740054 
L 184.490982 123.25973 
L 185.507561 122.793962 
L 186.524139 122.473747 
L 187.540718 122.430081 
L 188.557296 122.764852 
L 189.573875 122.95407 
L 190.590454 123.681833 
L 193.640189 125.355687 
L 195.673347 127.160539 
L 197.706504 128.295849 
L 200.75624 131.061348 
L 201.772818 132.414987 
L 202.789397 133.128194 
L 203.805976 134.045175 
L 204.822554 135.413369 
L 205.839133 137.145445 
L 206.855711 139.12496 
L 207.87229 140.318491 
L 208.888869 142.108787 
L 209.905447 143.360539 
L 211.938604 146.693693 
L 212.955183 147.756226 
L 213.971762 149.051644 
L 214.98834 150.871051 
L 216.004919 152.937898 
L 217.021498 154.276981 
L 220.071233 159.34221 
L 221.087812 160.608518 
L 225.154126 167.726038 
L 228.203862 172.543827 
L 229.220441 174.68345 
L 232.270177 179.967008 
L 238.369648 190.534124 
L 239.386227 192.368086 
L 240.402806 193.590728 
L 242.435963 197.069434 
L 243.452541 198.55407 
L 248.535435 207.345445 
L 249.552013 208.262426 
L 251.58517 211.799353 
L 255.651485 218.276442 
L 257.684642 221.798814 
L 258.701221 223.065121 
L 259.717799 224.768086 
L 260.734378 226.805822 
L 262.767535 229.644097 
L 263.784114 231.463504 
L 264.800692 232.729811 
L 270.900164 242.394501 
L 276.999636 251.229542 
L 278.016214 252.379407 
L 281.06595 256.731429 
L 282.082529 257.895849 
L 283.099107 259.598814 
L 286.148843 263.688841 
L 287.165422 265.231698 
L 288.182 266.134124 
L 290.215158 268.797736 
L 291.231736 269.903935 
L 292.248315 271.490458 
L 294.281472 273.804744 
L 296.314629 275.740593 
L 299.364365 279.55407 
L 302.414101 282.596119 
L 303.43068 284.022534 
L 308.513573 290.135741 
L 309.530151 290.93628 
L 310.54673 292.086146 
L 313.596466 294.706092 
L 314.613044 295.783181 
L 315.629623 296.365391 
L 316.646201 297.398814 
L 317.66278 298.213908 
L 318.679359 299.305553 
L 320.712516 301.081294 
L 321.729095 301.867278 
L 323.762252 303.890458 
L 325.795409 305.869973 
L 327.828566 307.602049 
L 330.878302 310.280216 
L 337.994352 315.607439 
L 339.010931 316.160539 
L 340.02751 316.917412 
L 341.044088 317.470512 
L 342.060667 317.848949 
L 344.093824 319.34814 
L 345.110403 319.755687 
L 346.126981 320.396119 
L 349.176717 322.812291 
L 350.193296 323.423612 
L 351.209874 324.180485 
L 357.309346 327.32442 
L 359.342503 328.70717 
L 361.37566 329.638706 
L 363.408818 330.613908 
L 364.425396 331.327116 
L 373.574604 336.072129 
L 375.607761 336.858113 
L 376.62434 337.454879 
L 379.674075 338.662965 
L 382.723811 340.08938 
L 383.74039 340.409596 
L 388.823283 342.723881 
L 394.922755 345.125499 
L 397.97249 346.057035 
L 398.989069 346.551914 
L 401.022226 347.163235 
L 404.071962 348.138437 
L 405.088541 348.575094 
L 414.237748 351.122264 
L 415.254327 351.267817 
L 420.33722 352.752453 
L 422.370377 353.276442 
L 424.403534 353.7131 
L 438.635635 356.26027 
L 441.685371 356.958922 
L 442.701949 357.046253 
L 446.768264 357.890458 
L 448.801421 358.25434 
L 449.818 358.530889 
L 452.867735 358.894771 
L 462.016943 360.495849 
L 468.116415 361.267278 
L 471.16615 361.616604 
L 480.315358 362.82469 
L 486.41483 363.363235 
L 496.580616 364.614987 
L 497.597194 364.658652 
L 499.630352 364.876981 
L 513.862452 365.823073 
L 515.895609 365.939515 
L 519.961924 366.245175 
L 526.061396 366.681833 
L 530.12771 366.827385 
L 538.260339 367.205822 
L 541.310075 367.336819 
L 543.343232 367.540593 
L 545.376389 367.598814 
L 549.442704 367.700701 
L 555.542175 367.860809 
L 559.60849 367.94814 
L 564.691383 368.093693 
L 567.741119 368.181024 
L 602.304791 369.068895 
L 622.636364 369.330889 
L 622.636364 369.330889 
" clip-path="url(#p468e3e6795)" style="fill: none; stroke: #ff0000; stroke-width: 1.5; stroke-linecap: square"/>
   </g>
   <g id="line2d_14">
    <path d="M 115.363636 365.83035 
L 116.380215 367.700701 
L 118.413372 366.987493 
L 120.446529 365.997736 
L 122.479687 364.26566 
L 125.529422 360.335741 
L 127.56258 356.274825 
L 129.595737 350.350836 
L 130.612316 346.450027 
L 132.645473 337.163774 
L 134.67863 326.087224 
L 136.711787 312.769164 
L 139.761523 288.330889 
L 145.860995 233.399353 
L 146.877573 224.840863 
L 148.910731 206.282911 
L 150.943888 189.078598 
L 151.960466 179.399353 
L 156.026781 148.221995 
L 158.059938 134.30717 
L 161.109674 116.69531 
L 163.142831 106.302857 
L 166.192567 93.174016 
L 167.209146 89.316873 
L 169.242303 83.975094 
L 170.258881 81.326038 
L 171.27546 79.404744 
L 172.292039 76.013369 
L 174.325196 72.738437 
L 175.341774 71.53035 
L 176.358353 70.817143 
L 177.374932 69.565391 
L 178.39151 69.157844 
L 179.408089 67.469434 
L 180.424668 66.96 
L 181.441246 67.396658 
L 182.457825 67.178329 
L 184.490982 67.833315 
L 185.507561 67.644097 
L 186.524139 67.81876 
L 187.540718 68.895849 
L 188.557296 69.50717 
L 190.590454 72.185337 
L 191.607032 72.927655 
L 192.623611 74.062965 
L 193.640189 75.46027 
L 196.689925 81.384259 
L 197.706504 83.523881 
L 198.723083 85.925499 
L 199.739661 88.0069 
L 201.772818 90.583181 
L 202.789397 92.984798 
L 204.822554 95.968625 
L 206.855711 100.160539 
L 207.87229 101.63062 
L 209.905447 105.851644 
L 211.938604 110.320108 
L 213.971762 115.603666 
L 214.98834 117.83062 
L 218.038076 125.734124 
L 219.054655 127.830081 
L 221.087812 133.113639 
L 223.120969 137.334663 
L 225.154126 142.690997 
L 226.170705 144.757844 
L 230.237019 154.320647 
L 231.253598 156.955148 
L 232.270177 159.211213 
L 233.286755 161.758383 
L 235.319913 166.008518 
L 236.336491 168.657574 
L 237.35307 170.957305 
L 238.369648 172.907709 
L 239.386227 175.221995 
L 240.402806 177.143288 
L 242.435963 181.728194 
L 243.452541 184.420916 
L 249.552013 197.345984 
L 250.568592 199.121725 
L 251.58517 201.4069 
L 253.618328 205.657035 
L 255.651485 209.805283 
L 256.668063 212.075903 
L 257.684642 213.749757 
L 260.734378 219.673747 
L 261.750956 221.303935 
L 270.900164 239.061348 
L 271.916743 240.778868 
L 272.933321 242.147062 
L 275.983057 247.43062 
L 284.115686 260.457574 
L 285.132265 261.723881 
L 289.198579 267.807978 
L 290.215158 269.365391 
L 292.248315 271.898005 
L 294.281472 274.765391 
L 295.298051 276.133585 
L 296.314629 277.196119 
L 298.347786 279.743288 
L 301.397522 283.178329 
L 303.43068 285.987493 
L 306.480415 289.407978 
L 307.496994 290.368625 
L 309.530151 292.581024 
L 317.66278 300.717412 
L 318.679359 301.910943 
L 320.712516 303.555687 
L 321.729095 304.618221 
L 323.762252 306.393962 
L 325.795409 308.388032 
L 327.828566 309.974555 
L 332.911459 314.384798 
L 333.928038 315.170782 
L 335.961195 316.990189 
L 343.077245 322.259191 
L 347.14356 324.588032 
L 348.160138 325.344906 
L 355.276189 329.536819 
L 360.359082 332.506092 
L 366.458553 335.781024 
L 369.508289 337.687763 
L 371.541447 338.357305 
L 372.558025 338.721186 
L 375.607761 340.234933 
L 383.74039 343.335202 
L 385.773547 343.873747 
L 392.889597 346.610135 
L 393.906176 346.872129 
L 396.955912 348.167547 
L 397.97249 348.604205 
L 400.005648 349.230081 
L 406.105119 351.267817 
L 407.121698 351.44248 
L 408.138277 351.922803 
L 410.171434 352.534124 
L 413.22117 353.407439 
L 416.270905 354.076981 
L 421.353799 355.212291 
L 425.420113 355.925499 
L 427.45327 356.536819 
L 429.486427 356.988032 
L 432.536163 357.482911 
L 440.668792 359.156765 
L 446.768264 360.306631 
L 448.801421 360.714178 
L 458.967207 361.922264 
L 461.000364 362.257035 
L 468.116415 362.984798 
L 473.199308 363.508787 
L 477.265622 363.96 
L 485.398251 364.571321 
L 488.447987 364.847871 
L 496.580616 365.459191 
L 498.613773 365.604744 
L 504.713245 366.041402 
L 528.094553 367.278598 
L 542.326653 367.802588 
L 549.442704 367.991806 
L 560.625068 368.384798 
L 568.757697 368.588571 
L 572.824012 368.675903 
L 587.056112 368.952453 
L 589.089269 369.010674 
L 598.238477 369.098005 
L 608.404263 369.287224 
L 616.536892 369.301779 
L 622.636364 369.36 
L 622.636364 369.36 
" clip-path="url(#p468e3e6795)" style="fill: none; stroke-dasharray: 1.5,2.475; stroke-dashoffset: 0; stroke: #008000; stroke-width: 1.5"/>
   </g>
   <g id="patch_3">
    <path d="M 90 384.48 
L 90 51.84 
" style="fill: none; stroke: #000000; stroke-width: 0.8; stroke-linejoin: miter; stroke-linecap: square"/>
   </g>
   <g id="patch_4">
    <path d="M 648 384.48 
L 648 51.84 
" style="fill: none; stroke: #000000; stroke-width: 0.8; stroke-linejoin: miter; stroke-linecap: square"/>
   </g>
   <g id="patch_5">
    <path d="M 90 384.48 
L 648 384.48 
" style="fill: none; stroke: #000000; stroke-width: 0.8; stroke-linejoin: miter; stroke-linecap: square"/>
   </g>
   <g id="patch_6">
    <path d="M 90 51.84 
L 648 51.84 
" style="fill: none; stroke: #000000; stroke-width: 0.8; stroke-linejoin: miter; stroke-linecap: square"/>
   </g>
   <g id="text_14">
    <text style="font: 24px 'Times New Roman'; text-anchor: middle" x="369" y="45.84" transform="rotate(-0 369 45.84)">Explore the effect of θ on the I-state</text>
   </g>
   <g id="legend_1">
    <g id="patch_7">
     <path d="M 514.140625 152.674375 
L 634 152.674375 
Q 638 152.674375 638 148.674375 
L 638 65.84 
Q 638 61.84 634 61.84 
L 514.140625 61.84 
Q 510.140625 61.84 510.140625 65.84 
L 510.140625 148.674375 
Q 510.140625 152.674375 514.140625 152.674375 
z
" style="fill: #ffffff; opacity: 0.8; stroke: #cccccc; stroke-linejoin: miter"/>
    </g>
    <g id="line2d_15">
     <path d="M 518.140625 76.84 
L 538.140625 76.84 
L 558.140625 76.84 
" style="fill: none; stroke-dasharray: 5.55,2.4; stroke-dashoffset: 0; stroke: #0000ff; stroke-width: 1.5"/>
    </g>
    <g id="text_15">
     <text style="font: 20px 'Times New Roman'; text-anchor: start" x="574.140625" y="83.84" transform="rotate(-0 574.140625 83.84)">θ=0.01</text>
    </g>
    <g id="line2d_16">
     <path d="M 518.140625 105.118125 
L 538.140625 105.118125 
L 558.140625 105.118125 
" style="fill: none; stroke: #ff0000; stroke-width: 1.5; stroke-linecap: square"/>
    </g>
    <g id="text_16">
     <text style="font: 20px 'Times New Roman'; text-anchor: start" x="574.140625" y="112.118125" transform="rotate(-0 574.140625 112.118125)">θ=0.03</text>
    </g>
    <g id="line2d_17">
     <path d="M 518.140625 133.39625 
L 538.140625 133.39625 
L 558.140625 133.39625 
" style="fill: none; stroke-dasharray: 1.5,2.475; stroke-dashoffset: 0; stroke: #008000; stroke-width: 1.5"/>
    </g>
    <g id="text_17">
     <text style="font: 20px 'Times New Roman'; text-anchor: start" x="574.140625" y="140.39625" transform="rotate(-0 574.140625 140.39625)">θ=0.05</text>
    </g>
   </g>
  </g>
 </g>
 <defs>
  <clipPath id="p468e3e6795">
   <rect x="90" y="51.84" width="558" height="332.64"/>
  </clipPath>
 </defs>
</svg>
