<?xml version="1.0" encoding="utf-8" standalone="no"?>
<!DOCTYPE svg PUBLIC "-//W3C//DTD SVG 1.1//EN"
  "http://www.w3.org/Graphics/SVG/1.1/DTD/svg11.dtd">
<svg xmlns:xlink="http://www.w3.org/1999/xlink" width="720pt" height="432pt" viewBox="0 0 720 432" xmlns="http://www.w3.org/2000/svg" version="1.1">
 <metadata>
  <rdf:RDF xmlns:dc="http://purl.org/dc/elements/1.1/" xmlns:cc="http://creativecommons.org/ns#" xmlns:rdf="http://www.w3.org/1999/02/22-rdf-syntax-ns#">
   <cc:Work>
    <dc:type rdf:resource="http://purl.org/dc/dcmitype/StillImage"/>
    <dc:date>2024-09-08T21:28:38.571343</dc:date>
    <dc:format>image/svg+xml</dc:format>
    <dc:creator>
     <cc:Agent>
      <dc:title>Matplotlib v3.9.2, https://matplotlib.org/</dc:title>
     </cc:Agent>
    </dc:creator>
   </cc:Work>
  </rdf:RDF>
 </metadata>
 <defs>
  <style type="text/css">*{stroke-linejoin: round; stroke-linecap: butt}</style>
 </defs>
 <g id="figure_1">
  <g id="patch_1">
   <path d="M 0 432 
L 720 432 
L 720 0 
L 0 0 
z
" style="fill: #ffffff"/>
  </g>
  <g id="axes_1">
   <g id="patch_2">
    <path d="M 90 384.48 
L 648 384.48 
L 648 51.84 
L 90 51.84 
z
" style="fill: #ffffff"/>
   </g>
   <g id="matplotlib.axis_1">
    <g id="xtick_1">
     <g id="line2d_1">
      <defs>
       <path id="mc4ac60ac20" d="M 0 0 
L 0 3.5 
" style="stroke: #000000; stroke-width: 0.8"/>
      </defs>
      <g>
       <use xlink:href="#mc4ac60ac20" x="115.363636" y="384.48" style="stroke: #000000; stroke-width: 0.8"/>
      </g>
     </g>
     <g id="text_1">
      <text style="font: 20px 'Times New Roman'; text-anchor: middle" x="115.363636" y="405.3675" transform="rotate(-0 115.363636 405.3675)">0</text>
     </g>
    </g>
    <g id="xtick_2">
     <g id="line2d_2">
      <g>
       <use xlink:href="#mc4ac60ac20" x="217.021498" y="384.48" style="stroke: #000000; stroke-width: 0.8"/>
      </g>
     </g>
     <g id="text_2">
      <text style="font: 20px 'Times New Roman'; text-anchor: middle" x="217.021498" y="405.3675" transform="rotate(-0 217.021498 405.3675)">100</text>
     </g>
    </g>
    <g id="xtick_3">
     <g id="line2d_3">
      <g>
       <use xlink:href="#mc4ac60ac20" x="318.679359" y="384.48" style="stroke: #000000; stroke-width: 0.8"/>
      </g>
     </g>
     <g id="text_3">
      <text style="font: 20px 'Times New Roman'; text-anchor: middle" x="318.679359" y="405.3675" transform="rotate(-0 318.679359 405.3675)">200</text>
     </g>
    </g>
    <g id="xtick_4">
     <g id="line2d_4">
      <g>
       <use xlink:href="#mc4ac60ac20" x="420.33722" y="384.48" style="stroke: #000000; stroke-width: 0.8"/>
      </g>
     </g>
     <g id="text_4">
      <text style="font: 20px 'Times New Roman'; text-anchor: middle" x="420.33722" y="405.3675" transform="rotate(-0 420.33722 405.3675)">300</text>
     </g>
    </g>
    <g id="xtick_5">
     <g id="line2d_5">
      <g>
       <use xlink:href="#mc4ac60ac20" x="521.995081" y="384.48" style="stroke: #000000; stroke-width: 0.8"/>
      </g>
     </g>
     <g id="text_5">
      <text style="font: 20px 'Times New Roman'; text-anchor: middle" x="521.995081" y="405.3675" transform="rotate(-0 521.995081 405.3675)">400</text>
     </g>
    </g>
    <g id="xtick_6">
     <g id="line2d_6">
      <g>
       <use xlink:href="#mc4ac60ac20" x="623.652942" y="384.48" style="stroke: #000000; stroke-width: 0.8"/>
      </g>
     </g>
     <g id="text_6">
      <text style="font: 20px 'Times New Roman'; text-anchor: middle" x="623.652942" y="405.3675" transform="rotate(-0 623.652942 405.3675)">500</text>
     </g>
    </g>
    <g id="text_7">
     <text style="font: 20px 'Times New Roman'; text-anchor: middle" x="369" y="427.533125" transform="rotate(-0 369 427.533125)">Time (t)</text>
    </g>
   </g>
   <g id="matplotlib.axis_2">
    <g id="ytick_1">
     <g id="line2d_7">
      <defs>
       <path id="m36c40534da" d="M 0 0 
L -3.5 0 
" style="stroke: #000000; stroke-width: 0.8"/>
      </defs>
      <g>
       <use xlink:href="#m36c40534da" x="90" y="369.277436" style="stroke: #000000; stroke-width: 0.8"/>
      </g>
     </g>
     <g id="text_8">
      <text style="font: 20px 'Times New Roman'; text-anchor: end" x="83" y="376.221186" transform="rotate(-0 83 376.221186)">0.00</text>
     </g>
    </g>
    <g id="ytick_2">
     <g id="line2d_8">
      <g>
       <use xlink:href="#m36c40534da" x="90" y="327.665029" style="stroke: #000000; stroke-width: 0.8"/>
      </g>
     </g>
     <g id="text_9">
      <text style="font: 20px 'Times New Roman'; text-anchor: end" x="83" y="334.608779" transform="rotate(-0 83 334.608779)">0.05</text>
     </g>
    </g>
    <g id="ytick_3">
     <g id="line2d_9">
      <g>
       <use xlink:href="#m36c40534da" x="90" y="286.052623" style="stroke: #000000; stroke-width: 0.8"/>
      </g>
     </g>
     <g id="text_10">
      <text style="font: 20px 'Times New Roman'; text-anchor: end" x="83" y="292.996373" transform="rotate(-0 83 292.996373)">0.10</text>
     </g>
    </g>
    <g id="ytick_4">
     <g id="line2d_10">
      <g>
       <use xlink:href="#m36c40534da" x="90" y="244.440216" style="stroke: #000000; stroke-width: 0.8"/>
      </g>
     </g>
     <g id="text_11">
      <text style="font: 20px 'Times New Roman'; text-anchor: end" x="83" y="251.383966" transform="rotate(-0 83 251.383966)">0.15</text>
     </g>
    </g>
    <g id="ytick_5">
     <g id="line2d_11">
      <g>
       <use xlink:href="#m36c40534da" x="90" y="202.82781" style="stroke: #000000; stroke-width: 0.8"/>
      </g>
     </g>
     <g id="text_12">
      <text style="font: 20px 'Times New Roman'; text-anchor: end" x="83" y="209.77156" transform="rotate(-0 83 209.77156)">0.20</text>
     </g>
    </g>
    <g id="ytick_6">
     <g id="line2d_12">
      <g>
       <use xlink:href="#m36c40534da" x="90" y="161.215403" style="stroke: #000000; stroke-width: 0.8"/>
      </g>
     </g>
     <g id="text_13">
      <text style="font: 20px 'Times New Roman'; text-anchor: end" x="83" y="168.159153" transform="rotate(-0 83 168.159153)">0.25</text>
     </g>
    </g>
    <g id="ytick_7">
     <g id="line2d_13">
      <g>
       <use xlink:href="#m36c40534da" x="90" y="119.602997" style="stroke: #000000; stroke-width: 0.8"/>
      </g>
     </g>
     <g id="text_14">
      <text style="font: 20px 'Times New Roman'; text-anchor: end" x="83" y="126.546747" transform="rotate(-0 83 126.546747)">0.30</text>
     </g>
    </g>
    <g id="ytick_8">
     <g id="line2d_14">
      <g>
       <use xlink:href="#m36c40534da" x="90" y="77.99059" style="stroke: #000000; stroke-width: 0.8"/>
      </g>
     </g>
     <g id="text_15">
      <text style="font: 20px 'Times New Roman'; text-anchor: end" x="83" y="84.93434" transform="rotate(-0 83 84.93434)">0.35</text>
     </g>
    </g>
    <g id="text_16">
     <text style="font: 20px 'Times New Roman'; text-anchor: middle" x="39.684375" y="218.16" transform="rotate(-90 39.684375 218.16)">Density</text>
    </g>
   </g>
   <g id="line2d_15">
    <path d="M 115.363636 365.116195 
L 116.380215 367.520099 
L 120.446529 367.370891 
L 126.546001 366.674588 
L 129.595737 366.110914 
L 132.645473 365.18251 
L 133.662051 365.016723 
L 136.711787 364.088319 
L 137.728366 363.524645 
L 140.778102 362.430454 
L 141.79468 361.933095 
L 143.827837 361.187055 
L 144.844416 360.623381 
L 145.860995 359.794449 
L 149.927309 357.025815 
L 151.960466 355.036377 
L 153.993624 353.328776 
L 156.026781 351.68749 
L 159.076517 348.570704 
L 161.109674 346.531531 
L 162.126253 345.337868 
L 163.142831 344.426042 
L 165.175988 342.171346 
L 166.192567 341.358992 
L 168.225724 339.253504 
L 169.242303 338.159313 
L 171.27546 335.340943 
L 172.292039 333.533871 
L 174.325196 330.698922 
L 176.358353 327.681608 
L 181.441246 319.44202 
L 183.474403 316.457863 
L 184.490982 314.89947 
L 185.507561 313.042662 
L 188.557296 308.500112 
L 189.573875 307.405921 
L 190.590454 305.980158 
L 192.623611 302.465484 
L 197.706504 295.087986 
L 198.723083 293.960638 
L 200.75624 290.74438 
L 201.772818 289.368352 
L 202.789397 288.241004 
L 203.805976 286.268145 
L 204.822554 285.008168 
L 205.839133 283.482932 
L 206.855711 282.388742 
L 208.888869 279.33827 
L 209.905447 278.194344 
L 211.938604 275.674389 
L 213.971762 274.580198 
L 214.98834 273.552322 
L 216.004919 272.10998 
L 220.071233 268.79425 
L 221.087812 267.484537 
L 224.137548 264.881689 
L 225.154126 263.837234 
L 227.187284 262.113055 
L 228.203862 261.085179 
L 229.220441 260.305982 
L 231.253598 258.018129 
L 232.270177 256.957095 
L 233.286755 256.29395 
L 235.319913 254.553192 
L 236.336491 253.972939 
L 237.35307 252.961641 
L 238.369648 252.11613 
L 239.386227 251.104833 
L 242.435963 249.944327 
L 243.452541 248.850137 
L 244.46912 248.269884 
L 245.485699 247.921732 
L 246.502277 247.308322 
L 247.518856 246.927013 
L 248.535435 246.313603 
L 250.568592 246.064924 
L 251.58517 245.468092 
L 252.601749 245.50125 
L 254.634906 244.705475 
L 255.651485 244.174958 
L 257.684642 243.976014 
L 258.701221 243.743913 
L 259.717799 244.125222 
L 260.734378 244.191537 
L 261.750956 244.523109 
L 262.767535 244.324166 
L 263.784114 243.893121 
L 264.800692 243.760492 
L 265.817271 243.743913 
L 268.867007 242.931559 
L 269.883585 242.981295 
L 271.916743 242.616565 
L 272.933321 242.749194 
L 274.966478 242.765773 
L 275.983057 242.964717 
L 276.999636 242.732615 
L 278.016214 242.931559 
L 279.032793 242.997874 
L 280.049371 242.716037 
L 281.06595 242.865245 
L 283.099107 243.893121 
L 284.115686 244.009171 
L 285.132265 243.992593 
L 288.182 244.373902 
L 289.198579 244.191537 
L 290.215158 244.208115 
L 291.231736 244.075486 
L 293.264893 244.407059 
L 294.281472 244.871261 
L 298.347786 245.915716 
L 299.364365 246.330182 
L 300.380944 246.943592 
L 301.397522 247.324901 
L 302.414101 248.021204 
L 303.43068 248.07094 
L 304.447258 248.883294 
L 305.463837 249.281181 
L 308.513573 250.988782 
L 309.530151 251.254041 
L 310.54673 251.933765 
L 311.563308 252.199024 
L 312.579887 252.911905 
L 313.596466 253.326372 
L 314.613044 254.403984 
L 317.66278 256.642101 
L 318.679359 257.437876 
L 321.729095 259.22837 
L 322.745673 259.609679 
L 323.762252 260.239668 
L 325.795409 262.195948 
L 326.811988 262.626993 
L 327.828566 263.339875 
L 328.845145 263.837234 
L 332.911459 266.705341 
L 334.944617 267.865846 
L 335.961195 268.628464 
L 336.977774 269.175559 
L 337.994352 269.573447 
L 340.02751 271.015789 
L 341.044088 271.596042 
L 343.077245 273.104699 
L 346.126981 274.663092 
L 347.14356 275.54176 
L 348.160138 276.072277 
L 349.176717 276.470164 
L 350.193296 277.000681 
L 352.226453 277.895928 
L 355.276189 279.752736 
L 356.292767 280.283253 
L 357.309346 281.261393 
L 359.342503 282.471635 
L 360.359082 282.803208 
L 361.37566 283.283989 
L 362.392239 284.1295 
L 363.408818 284.693174 
L 364.425396 285.621578 
L 365.441975 286.367617 
L 366.458553 286.914712 
L 368.491711 288.572577 
L 375.607761 293.081969 
L 376.62434 293.529593 
L 377.640918 294.109846 
L 378.657497 294.971935 
L 383.74039 298.121878 
L 384.756968 298.950811 
L 385.773547 299.44817 
L 386.790126 300.31026 
L 387.806704 300.658412 
L 391.873019 303.775197 
L 392.889597 304.322293 
L 393.906176 305.118068 
L 394.922755 305.416484 
L 396.955912 306.676461 
L 397.97249 307.157242 
L 398.989069 307.472236 
L 400.005648 308.251432 
L 402.038805 309.345623 
L 403.055383 309.660617 
L 406.105119 311.335061 
L 407.121698 311.683213 
L 410.171434 313.5566 
L 413.22117 315.065257 
L 414.237748 315.695245 
L 416.270905 316.557335 
L 417.287484 317.087852 
L 418.304063 317.833891 
L 419.320641 318.314672 
L 420.33722 318.994396 
L 422.370377 320.005694 
L 423.386956 320.834626 
L 424.403534 321.481194 
L 427.45327 322.890379 
L 428.469849 323.454053 
L 429.486427 323.802204 
L 431.519585 324.995867 
L 432.536163 325.294283 
L 433.552742 325.476648 
L 434.56932 326.123215 
L 436.602478 326.836097 
L 437.619056 327.200827 
L 440.668792 328.709484 
L 441.685371 329.173686 
L 444.735107 330.151826 
L 447.784842 331.345489 
L 448.801421 331.627326 
L 450.834578 332.505994 
L 451.851157 333.069668 
L 452.867735 333.401241 
L 454.900893 334.263331 
L 456.93405 335.00937 
L 457.950629 335.606202 
L 459.983786 336.401977 
L 467.099836 339.435869 
L 469.132993 339.949807 
L 471.16615 340.53006 
L 473.199308 341.5082 
L 474.215886 341.988981 
L 479.298779 343.746318 
L 480.315358 343.862368 
L 483.365094 344.956559 
L 487.431408 346.150222 
L 491.497723 347.045469 
L 493.53088 347.824665 
L 495.564037 348.487811 
L 499.630352 349.399637 
L 500.64693 349.681474 
L 501.663509 349.84726 
L 503.696666 350.427513 
L 505.729823 350.891715 
L 507.762981 351.32276 
L 508.779559 351.720647 
L 513.862452 353.030361 
L 514.879031 353.16299 
L 516.912188 353.560877 
L 519.961924 354.14113 
L 523.01166 354.737961 
L 526.061396 355.102692 
L 527.077974 355.36795 
L 528.094553 355.434265 
L 530.12771 355.881888 
L 532.160867 356.312933 
L 537.24376 357.075551 
L 544.359811 358.335528 
L 549.442704 359.313668 
L 551.475861 359.512612 
L 552.492439 359.595505 
L 553.509018 359.811028 
L 555.542175 359.943657 
L 562.658226 360.88864 
L 580.956641 362.894656 
L 584.006376 363.143336 
L 586.039534 363.45833 
L 590.105848 363.740167 
L 591.122427 363.939111 
L 593.155584 364.104898 
L 597.221898 364.602257 
L 602.304791 365.016723 
L 610.43742 365.447768 
L 612.470578 365.530661 
L 622.636364 366.110914 
L 622.636364 366.110914 
" clip-path="url(#p75baebb667)" style="fill: none; stroke-dasharray: 5.55,2.4; stroke-dashoffset: 0; stroke: #0000ff; stroke-width: 1.5"/>
   </g>
   <g id="line2d_16">
    <path d="M 115.363636 365.116195 
L 116.380215 367.143042 
L 117.396794 366.696308 
L 119.429951 365.53811 
L 121.463108 363.668447 
L 122.479687 362.576432 
L 124.512844 359.316931 
L 125.529422 357.579634 
L 126.546001 355.610697 
L 127.56258 352.897204 
L 129.595737 346.212746 
L 132.645473 333.207835 
L 134.67863 322.436592 
L 136.711787 309.762594 
L 138.744944 294.954203 
L 142.811259 262.888659 
L 144.844416 246.508427 
L 145.860995 237.573756 
L 150.943888 199.402852 
L 153.993624 178.952381 
L 158.059938 156.301334 
L 160.093095 146.787563 
L 161.109674 142.948963 
L 163.142831 133.799197 
L 164.15941 129.927506 
L 167.209146 119.768454 
L 172.292039 108.368474 
L 174.325196 104.678786 
L 176.358353 101.849473 
L 178.39151 100.194904 
L 179.408089 98.904341 
L 180.424668 98.507244 
L 182.457825 98.391424 
L 183.474403 97.514503 
L 184.490982 97.663414 
L 185.507561 97.233226 
L 186.524139 97.762688 
L 187.540718 98.093602 
L 188.557296 99.003615 
L 189.573875 99.218709 
L 190.590454 98.970523 
L 191.607032 99.384165 
L 192.623611 99.384165 
L 195.673347 101.535105 
L 196.689925 102.726395 
L 198.723083 104.579512 
L 199.739661 106.382992 
L 200.75624 106.631177 
L 201.772818 107.855558 
L 202.789397 108.699388 
L 205.839133 112.422168 
L 206.855711 113.944371 
L 207.87229 115.814034 
L 208.888869 116.889504 
L 209.905447 118.742621 
L 210.922026 120.89356 
L 211.938604 122.382672 
L 212.955183 124.169607 
L 216.004919 128.272938 
L 218.038076 131.979172 
L 219.054655 133.302827 
L 226.170705 145.76173 
L 227.187284 148.078127 
L 228.203862 149.269416 
L 229.220441 150.725437 
L 232.270177 156.681885 
L 233.286755 158.187542 
L 234.303334 160.272299 
L 235.319913 162.009596 
L 236.336491 163.085066 
L 239.386227 168.495506 
L 241.419384 172.615383 
L 243.452541 176.139614 
L 245.485699 178.902744 
L 249.552013 186.36485 
L 250.568592 188.118693 
L 251.58517 189.475439 
L 253.618328 193.380222 
L 256.668063 198.327382 
L 257.684642 199.684129 
L 259.717799 203.109086 
L 265.817271 213.400505 
L 267.850428 216.924736 
L 270.900164 223.063187 
L 272.933321 226.190322 
L 273.9499 227.629797 
L 274.966478 229.284366 
L 275.983057 230.657658 
L 280.049371 237.309025 
L 282.082529 240.005972 
L 284.115686 243.149653 
L 285.132265 244.241668 
L 287.165422 247.335712 
L 288.182 249.139192 
L 289.198579 250.214662 
L 292.248315 254.880546 
L 294.281472 257.560947 
L 297.331208 261.217544 
L 300.380944 264.394317 
L 302.414101 267.058172 
L 303.43068 268.166733 
L 310.54673 277.763233 
L 311.563308 278.805611 
L 313.596466 281.18819 
L 314.613044 282.197477 
L 316.646201 284.596602 
L 317.66278 285.390795 
L 321.729095 290.371047 
L 323.762252 292.47235 
L 324.77883 293.580911 
L 325.795409 294.242739 
L 329.861723 298.693529 
L 330.878302 299.520813 
L 332.911459 301.506296 
L 333.928038 302.21776 
L 334.944617 303.475233 
L 335.961195 304.13706 
L 340.02751 307.611655 
L 342.060667 308.968401 
L 350.193296 315.371583 
L 351.209874 315.983773 
L 353.243032 317.539068 
L 354.25961 318.233987 
L 355.276189 319.210182 
L 358.325925 321.245302 
L 362.392239 323.925704 
L 363.408818 324.67026 
L 366.458553 326.374466 
L 368.491711 327.797395 
L 371.541447 329.220324 
L 374.591182 330.974167 
L 375.607761 331.735269 
L 381.707233 334.796221 
L 382.723811 335.342229 
L 389.839862 337.90681 
L 390.85644 338.502455 
L 391.873019 338.816823 
L 395.939333 340.752669 
L 401.022226 342.456875 
L 402.038805 342.688514 
L 403.055383 343.217976 
L 407.121698 344.756725 
L 409.154855 345.69983 
L 412.204591 346.940756 
L 413.22117 347.172396 
L 420.33722 349.488792 
L 423.386956 350.316077 
L 425.420113 350.713173 
L 426.436692 351.077178 
L 428.469849 351.540458 
L 429.486427 351.904463 
L 432.536163 352.549745 
L 435.585899 353.211572 
L 447.784842 356.305616 
L 456.93405 358.191824 
L 458.967207 358.522738 
L 462.016943 359.002563 
L 464.0501 359.28384 
L 473.199308 360.508221 
L 474.215886 360.723315 
L 475.232465 360.822589 
L 477.265622 361.170048 
L 479.298779 361.434779 
L 483.365094 361.947696 
L 485.398251 362.146244 
L 501.663509 363.651902 
L 504.713245 363.900087 
L 508.779559 364.297183 
L 510.812716 364.561914 
L 513.862452 364.727371 
L 519.961924 365.157559 
L 521.995081 365.240288 
L 525.044817 365.554656 
L 533.177446 366.051026 
L 543.343232 366.61358 
L 554.525597 367.076859 
L 561.641647 367.275407 
L 566.72454 367.440864 
L 569.774276 367.473956 
L 572.824012 367.672504 
L 579.940062 367.821415 
L 587.056112 367.920689 
L 591.122427 368.086146 
L 596.20532 368.268149 
L 601.288213 368.367423 
L 617.553471 368.714882 
L 622.636364 368.863793 
L 622.636364 368.863793 
" clip-path="url(#p75baebb667)" style="fill: none; stroke: #ff0000; stroke-width: 1.5; stroke-linecap: square"/>
   </g>
   <g id="line2d_17">
    <path d="M 115.363636 365.116195 
L 116.380215 365.941838 
L 117.396794 364.455681 
L 118.413372 362.325522 
L 119.429951 359.13854 
L 120.446529 354.944273 
L 121.463108 348.91708 
L 122.479687 340.54506 
L 123.496265 330.373138 
L 124.512844 317.427056 
L 125.529422 302.730611 
L 128.579158 251.639823 
L 130.612316 218.184769 
L 132.645473 186.8929 
L 134.67863 162.123611 
L 136.711787 141.366946 
L 137.728366 131.938103 
L 138.744944 123.566083 
L 139.761523 116.531605 
L 140.778102 110.306257 
L 142.811259 99.936181 
L 145.860995 88.922103 
L 147.894152 83.324244 
L 148.910731 81.210598 
L 149.927309 78.386899 
L 151.960466 73.614682 
L 152.977045 72.458782 
L 153.993624 70.708419 
L 155.010202 69.486468 
L 156.026781 69.024107 
L 157.043359 68.825953 
L 158.059938 68.363593 
L 159.076517 67.372821 
L 160.093095 66.96 
L 161.109674 67.141641 
L 162.126253 67.455386 
L 163.142831 67.53795 
L 164.15941 67.438873 
L 165.175988 68.198464 
L 166.192567 68.743389 
L 167.209146 69.139697 
L 168.225724 70.460726 
L 169.242303 70.295598 
L 170.258881 71.699191 
L 171.27546 72.392731 
L 172.292039 73.449554 
L 173.308617 74.836634 
L 174.325196 76.553971 
L 175.341774 77.396127 
L 176.358353 78.948336 
L 177.374932 79.691415 
L 178.39151 81.540855 
L 181.441246 84.925991 
L 182.457825 87.023125 
L 183.474403 88.624872 
L 184.490982 90.540364 
L 185.507561 91.861392 
L 186.524139 94.123654 
L 187.540718 96.022633 
L 188.557296 98.549101 
L 190.590454 102.594751 
L 191.607032 104.26255 
L 194.656768 110.851181 
L 195.673347 112.717134 
L 196.689925 115.17755 
L 198.723083 119.421355 
L 199.739661 121.485463 
L 200.75624 123.912853 
L 201.772818 126.736552 
L 202.789397 128.288761 
L 203.805976 130.848254 
L 207.87229 139.500993 
L 208.888869 141.416484 
L 209.905447 143.711772 
L 210.922026 145.528187 
L 217.021498 160.241145 
L 219.054655 164.418898 
L 220.071233 166.2188 
L 221.087812 168.794806 
L 222.104391 170.61122 
L 224.137548 174.805487 
L 226.170705 180.02355 
L 227.187284 182.170222 
L 228.203862 184.614125 
L 229.220441 186.496591 
L 232.270177 193.217325 
L 234.303334 196.784103 
L 241.419384 210.242084 
L 242.435963 211.579625 
L 243.452541 213.610707 
L 244.46912 215.228967 
L 249.552013 224.591759 
L 251.58517 227.316381 
L 253.618328 230.767568 
L 255.651485 234.400398 
L 256.668063 236.035171 
L 257.684642 237.405738 
L 259.717799 240.526668 
L 261.750956 243.300829 
L 262.767535 244.902576 
L 263.784114 246.801555 
L 264.800692 248.089558 
L 266.83385 251.210489 
L 269.883585 255.289165 
L 270.900164 256.791835 
L 272.933321 259.1862 
L 274.966478 261.745693 
L 275.983057 263.099748 
L 276.999636 264.156571 
L 280.049371 268.350837 
L 286.148843 275.220187 
L 287.165422 276.656806 
L 294.281472 284.64903 
L 295.298051 286.1517 
L 298.347786 289.223092 
L 299.364365 290.180838 
L 300.380944 291.386276 
L 301.397522 292.294484 
L 302.414101 293.36782 
L 303.43068 294.143924 
L 304.447258 295.316337 
L 308.513573 299.114295 
L 309.530151 300.237169 
L 310.54673 301.046299 
L 311.563308 301.706814 
L 314.613044 304.365384 
L 315.629623 305.158001 
L 317.66278 307.106519 
L 319.695937 308.774318 
L 320.712516 309.352268 
L 321.729095 310.310014 
L 329.861723 316.485823 
L 332.911459 318.434341 
L 335.961195 320.894757 
L 336.977774 321.472707 
L 339.010931 323.322147 
L 341.044088 324.213842 
L 345.110403 326.954976 
L 348.160138 328.573236 
L 349.176717 329.415392 
L 352.226453 330.951088 
L 353.243032 331.347397 
L 355.276189 332.602374 
L 357.309346 333.659197 
L 358.325925 334.319712 
L 360.359082 335.260945 
L 363.408818 337.027821 
L 366.458553 338.183721 
L 370.524868 339.934084 
L 371.541447 340.132238 
L 374.591182 341.420241 
L 377.640918 342.559629 
L 378.657497 343.038502 
L 380.690654 343.732042 
L 384.756968 345.168661 
L 388.823283 346.489689 
L 391.873019 347.546512 
L 394.922755 348.438207 
L 396.955912 349.197798 
L 397.97249 349.478517 
L 400.005648 350.205083 
L 406.105119 351.955446 
L 408.138277 352.417806 
L 410.171434 353.061807 
L 415.254327 354.300272 
L 418.304063 354.795658 
L 420.33722 355.291044 
L 427.45327 356.991868 
L 430.503006 357.470741 
L 432.536163 357.900075 
L 441.685371 359.452284 
L 444.735107 359.799054 
L 446.768264 360.228389 
L 452.867735 361.054032 
L 454.900893 361.433827 
L 461.000364 362.309009 
L 462.016943 362.49065 
L 465.066679 362.72183 
L 467.099836 362.969523 
L 484.381672 364.587784 
L 485.398251 364.604296 
L 490.481144 365.248298 
L 492.514301 365.479478 
L 498.613773 365.875787 
L 503.696666 366.288608 
L 521.995081 367.081225 
L 533.177446 367.543585 
L 536.227182 367.675688 
L 547.409546 367.956407 
L 551.475861 368.071997 
L 556.558754 368.253638 
L 564.691383 368.55087 
L 582.989798 368.914153 
L 586.039534 369.01323 
L 594.172163 369.046256 
L 599.255056 369.145333 
L 616.536892 369.326974 
L 622.636364 369.36 
L 622.636364 369.36 
" clip-path="url(#p75baebb667)" style="fill: none; stroke-dasharray: 1.5,2.475; stroke-dashoffset: 0; stroke: #008000; stroke-width: 1.5"/>
   </g>
   <g id="patch_3">
    <path d="M 90 384.48 
L 90 51.84 
" style="fill: none; stroke: #000000; stroke-width: 0.8; stroke-linejoin: miter; stroke-linecap: square"/>
   </g>
   <g id="patch_4">
    <path d="M 648 384.48 
L 648 51.84 
" style="fill: none; stroke: #000000; stroke-width: 0.8; stroke-linejoin: miter; stroke-linecap: square"/>
   </g>
   <g id="patch_5">
    <path d="M 90 384.48 
L 648 384.48 
" style="fill: none; stroke: #000000; stroke-width: 0.8; stroke-linejoin: miter; stroke-linecap: square"/>
   </g>
   <g id="patch_6">
    <path d="M 90 51.84 
L 648 51.84 
" style="fill: none; stroke: #000000; stroke-width: 0.8; stroke-linejoin: miter; stroke-linecap: square"/>
   </g>
   <g id="text_17">
    <text style="font: 24px 'Times New Roman'; text-anchor: middle" x="369" y="45.84" transform="rotate(-0 369 45.84)">Explore the effect of k on the I-state</text>
   </g>
   <g id="legend_1">
    <g id="patch_7">
     <path d="M 481.33125 152.674375 
L 634 152.674375 
Q 638 152.674375 638 148.674375 
L 638 65.84 
Q 638 61.84 634 61.84 
L 481.33125 61.84 
Q 477.33125 61.84 477.33125 65.84 
L 477.33125 148.674375 
Q 477.33125 152.674375 481.33125 152.674375 
z
" style="fill: #ffffff; opacity: 0.8; stroke: #cccccc; stroke-linejoin: miter"/>
    </g>
    <g id="line2d_18">
     <path d="M 485.33125 76.84 
L 505.33125 76.84 
L 525.33125 76.84 
" style="fill: none; stroke-dasharray: 5.55,2.4; stroke-dashoffset: 0; stroke: #0000ff; stroke-width: 1.5"/>
    </g>
    <g id="text_18">
     <text style="font: 20px 'Times New Roman'; text-anchor: start" x="541.33125" y="83.84" transform="rotate(-0 541.33125 83.84)">m=1 m2=3</text>
    </g>
    <g id="line2d_19">
     <path d="M 485.33125 105.118125 
L 505.33125 105.118125 
L 525.33125 105.118125 
" style="fill: none; stroke: #ff0000; stroke-width: 1.5; stroke-linecap: square"/>
    </g>
    <g id="text_19">
     <text style="font: 20px 'Times New Roman'; text-anchor: start" x="541.33125" y="112.118125" transform="rotate(-0 541.33125 112.118125)">m=2 m2=5</text>
    </g>
    <g id="line2d_20">
     <path d="M 485.33125 133.39625 
L 505.33125 133.39625 
L 525.33125 133.39625 
" style="fill: none; stroke-dasharray: 1.5,2.475; stroke-dashoffset: 0; stroke: #008000; stroke-width: 1.5"/>
    </g>
    <g id="text_20">
     <text style="font: 20px 'Times New Roman'; text-anchor: start" x="541.33125" y="140.39625" transform="rotate(-0 541.33125 140.39625)">m=3 m2=7</text>
    </g>
   </g>
  </g>
 </g>
 <defs>
  <clipPath id="p75baebb667">
   <rect x="90" y="51.84" width="558" height="332.64"/>
  </clipPath>
 </defs>
</svg>
