<?xml version="1.0" encoding="utf-8" standalone="no"?>
<!DOCTYPE svg PUBLIC "-//W3C//DTD SVG 1.1//EN"
  "http://www.w3.org/Graphics/SVG/1.1/DTD/svg11.dtd">
<svg xmlns:xlink="http://www.w3.org/1999/xlink" width="720pt" height="432pt" viewBox="0 0 720 432" xmlns="http://www.w3.org/2000/svg" version="1.1">
 <metadata>
  <rdf:RDF xmlns:dc="http://purl.org/dc/elements/1.1/" xmlns:cc="http://creativecommons.org/ns#" xmlns:rdf="http://www.w3.org/1999/02/22-rdf-syntax-ns#">
   <cc:Work>
    <dc:type rdf:resource="http://purl.org/dc/dcmitype/StillImage"/>
    <dc:date>2024-09-08T21:57:10.972934</dc:date>
    <dc:format>image/svg+xml</dc:format>
    <dc:creator>
     <cc:Agent>
      <dc:title>Matplotlib v3.9.2, https://matplotlib.org/</dc:title>
     </cc:Agent>
    </dc:creator>
   </cc:Work>
  </rdf:RDF>
 </metadata>
 <defs>
  <style type="text/css">*{stroke-linejoin: round; stroke-linecap: butt}</style>
 </defs>
 <g id="figure_1">
  <g id="patch_1">
   <path d="M 0 432 
L 720 432 
L 720 0 
L 0 0 
z
" style="fill: #ffffff"/>
  </g>
  <g id="axes_1">
   <g id="patch_2">
    <path d="M 90 384.48 
L 648 384.48 
L 648 51.84 
L 90 51.84 
z
" style="fill: #ffffff"/>
   </g>
   <g id="matplotlib.axis_1">
    <g id="xtick_1">
     <g id="line2d_1">
      <defs>
       <path id="m2629360135" d="M 0 0 
L 0 3.5 
" style="stroke: #000000; stroke-width: 0.8"/>
      </defs>
      <g>
       <use xlink:href="#m2629360135" x="115.363636" y="384.48" style="stroke: #000000; stroke-width: 0.8"/>
      </g>
     </g>
     <g id="text_1">
      <text style="font: 20px 'Times New Roman'; text-anchor: middle" x="115.363636" y="405.3675" transform="rotate(-0 115.363636 405.3675)">0</text>
     </g>
    </g>
    <g id="xtick_2">
     <g id="line2d_2">
      <g>
       <use xlink:href="#m2629360135" x="217.021498" y="384.48" style="stroke: #000000; stroke-width: 0.8"/>
      </g>
     </g>
     <g id="text_2">
      <text style="font: 20px 'Times New Roman'; text-anchor: middle" x="217.021498" y="405.3675" transform="rotate(-0 217.021498 405.3675)">100</text>
     </g>
    </g>
    <g id="xtick_3">
     <g id="line2d_3">
      <g>
       <use xlink:href="#m2629360135" x="318.679359" y="384.48" style="stroke: #000000; stroke-width: 0.8"/>
      </g>
     </g>
     <g id="text_3">
      <text style="font: 20px 'Times New Roman'; text-anchor: middle" x="318.679359" y="405.3675" transform="rotate(-0 318.679359 405.3675)">200</text>
     </g>
    </g>
    <g id="xtick_4">
     <g id="line2d_4">
      <g>
       <use xlink:href="#m2629360135" x="420.33722" y="384.48" style="stroke: #000000; stroke-width: 0.8"/>
      </g>
     </g>
     <g id="text_4">
      <text style="font: 20px 'Times New Roman'; text-anchor: middle" x="420.33722" y="405.3675" transform="rotate(-0 420.33722 405.3675)">300</text>
     </g>
    </g>
    <g id="xtick_5">
     <g id="line2d_5">
      <g>
       <use xlink:href="#m2629360135" x="521.995081" y="384.48" style="stroke: #000000; stroke-width: 0.8"/>
      </g>
     </g>
     <g id="text_5">
      <text style="font: 20px 'Times New Roman'; text-anchor: middle" x="521.995081" y="405.3675" transform="rotate(-0 521.995081 405.3675)">400</text>
     </g>
    </g>
    <g id="xtick_6">
     <g id="line2d_6">
      <g>
       <use xlink:href="#m2629360135" x="623.652942" y="384.48" style="stroke: #000000; stroke-width: 0.8"/>
      </g>
     </g>
     <g id="text_6">
      <text style="font: 20px 'Times New Roman'; text-anchor: middle" x="623.652942" y="405.3675" transform="rotate(-0 623.652942 405.3675)">500</text>
     </g>
    </g>
    <g id="text_7">
     <text style="font: 20px 'Times New Roman'; text-anchor: middle" x="369" y="427.533125" transform="rotate(-0 369 427.533125)">Time (t)</text>
    </g>
   </g>
   <g id="matplotlib.axis_2">
    <g id="ytick_1">
     <g id="line2d_7">
      <defs>
       <path id="m873f2beb0b" d="M 0 0 
L -3.5 0 
" style="stroke: #000000; stroke-width: 0.8"/>
      </defs>
      <g>
       <use xlink:href="#m873f2beb0b" x="90" y="369.36" style="stroke: #000000; stroke-width: 0.8"/>
      </g>
     </g>
     <g id="text_8">
      <text style="font: 20px 'Times New Roman'; text-anchor: end" x="83" y="376.30375" transform="rotate(-0 83 376.30375)">0.0</text>
     </g>
    </g>
    <g id="ytick_2">
     <g id="line2d_8">
      <g>
       <use xlink:href="#m873f2beb0b" x="90" y="308.615526" style="stroke: #000000; stroke-width: 0.8"/>
      </g>
     </g>
     <g id="text_9">
      <text style="font: 20px 'Times New Roman'; text-anchor: end" x="83" y="315.559276" transform="rotate(-0 83 315.559276)">0.2</text>
     </g>
    </g>
    <g id="ytick_3">
     <g id="line2d_9">
      <g>
       <use xlink:href="#m873f2beb0b" x="90" y="247.871052" style="stroke: #000000; stroke-width: 0.8"/>
      </g>
     </g>
     <g id="text_10">
      <text style="font: 20px 'Times New Roman'; text-anchor: end" x="83" y="254.814802" transform="rotate(-0 83 254.814802)">0.4</text>
     </g>
    </g>
    <g id="ytick_4">
     <g id="line2d_10">
      <g>
       <use xlink:href="#m873f2beb0b" x="90" y="187.126578" style="stroke: #000000; stroke-width: 0.8"/>
      </g>
     </g>
     <g id="text_11">
      <text style="font: 20px 'Times New Roman'; text-anchor: end" x="83" y="194.070328" transform="rotate(-0 83 194.070328)">0.6</text>
     </g>
    </g>
    <g id="ytick_5">
     <g id="line2d_11">
      <g>
       <use xlink:href="#m873f2beb0b" x="90" y="126.382104" style="stroke: #000000; stroke-width: 0.8"/>
      </g>
     </g>
     <g id="text_12">
      <text style="font: 20px 'Times New Roman'; text-anchor: end" x="83" y="133.325854" transform="rotate(-0 83 133.325854)">0.8</text>
     </g>
    </g>
    <g id="ytick_6">
     <g id="line2d_12">
      <g>
       <use xlink:href="#m873f2beb0b" x="90" y="65.63763" style="stroke: #000000; stroke-width: 0.8"/>
      </g>
     </g>
     <g id="text_13">
      <text style="font: 20px 'Times New Roman'; text-anchor: end" x="83" y="72.58138" transform="rotate(-0 83 72.58138)">1.0</text>
     </g>
    </g>
    <g id="text_14">
     <text style="font: 20px 'Times New Roman'; text-anchor: middle" x="49.684375" y="218.16" transform="rotate(-90 49.684375 218.16)">Density</text>
    </g>
   </g>
   <g id="line2d_13">
    <path d="M 115.363636 369.36 
L 120.446529 369.245274 
L 122.479687 369.094318 
L 124.512844 368.937325 
L 126.546001 368.665605 
L 130.612316 367.965172 
L 133.662051 366.962827 
L 135.695209 366.069171 
L 136.711787 365.549884 
L 140.778102 362.772304 
L 142.811259 360.912533 
L 145.860995 357.742468 
L 148.910731 353.781397 
L 151.960466 349.319154 
L 155.010202 344.156478 
L 159.076517 336.650973 
L 166.192567 322.159249 
L 169.242303 315.589668 
L 174.325196 304.588035 
L 176.358353 299.835957 
L 181.441246 288.357304 
L 187.540718 274.421097 
L 188.557296 272.27753 
L 190.590454 267.477146 
L 191.607032 265.496611 
L 195.673347 256.34871 
L 197.706504 252.049499 
L 200.75624 245.516147 
L 202.789397 241.198821 
L 205.839133 235.154565 
L 211.938604 223.482689 
L 213.971762 219.962408 
L 216.004919 216.424012 
L 219.054655 210.397871 
L 221.087812 206.696443 
L 224.137548 201.545843 
L 229.220441 192.971573 
L 233.286755 187.005814 
L 235.319913 183.624412 
L 240.402806 176.31213 
L 242.435963 173.293021 
L 243.452541 172.067262 
L 246.502277 167.858624 
L 254.634906 157.865373 
L 256.668063 155.50443 
L 257.684642 154.188098 
L 270.900164 139.974133 
L 286.148843 125.748091 
L 288.182 124.141925 
L 292.248315 121.002052 
L 294.281472 119.293236 
L 295.298051 118.677338 
L 296.314629 117.922561 
L 297.331208 117.028904 
L 300.380944 114.951757 
L 305.463837 111.86019 
L 308.513573 110.115145 
L 310.54673 108.847119 
L 315.629623 105.834048 
L 319.695937 103.521411 
L 324.77883 100.888747 
L 330.878302 97.960212 
L 336.977774 95.285281 
L 337.994352 94.971294 
L 343.077245 92.803573 
L 346.126981 91.728771 
L 348.160138 90.998146 
L 356.292767 88.117916 
L 373.574604 83.383953 
L 379.674075 82.055545 
L 387.806704 80.407112 
L 391.873019 79.591952 
L 398.989069 78.432614 
L 401.022226 78.14278 
L 403.055383 77.76841 
L 417.287484 75.842219 
L 419.320641 75.612767 
L 424.403534 74.882142 
L 428.469849 74.423238 
L 433.552742 73.922065 
L 440.668792 73.173326 
L 455.917471 71.826804 
L 487.431408 69.870421 
L 495.564037 69.544357 
L 521.995081 68.656739 
L 529.111131 68.409172 
L 569.774276 67.545707 
L 605.354527 67.225682 
L 617.553471 67.123032 
L 622.636364 67.086803 
L 622.636364 67.086803 
" clip-path="url(#p95cb80e104)" style="fill: none; stroke-dasharray: 5.55,2.4; stroke-dashoffset: 0; stroke: #0000ff; stroke-width: 1.5"/>
   </g>
   <g id="line2d_14">
    <path d="M 115.363636 369.36 
L 119.429951 369.215083 
L 121.463108 369.094318 
L 127.56258 368.315388 
L 131.628894 367.107745 
L 132.645473 366.721299 
L 135.695209 365.048712 
L 137.728366 363.448584 
L 140.778102 360.604584 
L 143.827837 357.174876 
L 145.860995 354.216149 
L 147.894152 351.082314 
L 153.993624 339.91161 
L 161.109674 324.538307 
L 164.15941 317.950611 
L 166.192567 313.325336 
L 170.258881 303.706455 
L 172.292039 299.08118 
L 178.39151 284.112437 
L 181.441246 277.198677 
L 184.490982 269.596561 
L 189.573875 257.997144 
L 191.607032 253.311487 
L 193.640189 248.680173 
L 208.888869 216.713847 
L 209.905447 214.745388 
L 210.922026 213.030534 
L 213.971762 207.390838 
L 216.004919 203.822251 
L 218.038076 200.181206 
L 230.237019 180.81664 
L 235.319913 173.015262 
L 237.35307 170.406752 
L 238.369648 168.824739 
L 242.435963 163.541298 
L 244.46912 161.126011 
L 246.502277 158.614112 
L 254.634906 149.285065 
L 255.651485 148.282721 
L 257.684642 145.849319 
L 258.701221 144.937548 
L 259.717799 143.729905 
L 260.734378 142.715484 
L 261.750956 141.54407 
L 262.767535 140.632299 
L 264.800692 138.464579 
L 270.900164 132.643736 
L 273.9499 130.005035 
L 275.983057 128.19357 
L 278.016214 126.418333 
L 285.132265 120.893364 
L 288.182 118.689414 
L 293.264893 114.716267 
L 295.298051 113.496547 
L 300.380944 110.211756 
L 305.463837 107.560978 
L 307.496994 106.196341 
L 318.679359 100.188314 
L 324.77883 97.416772 
L 325.795409 97.01825 
L 326.811988 96.462734 
L 328.845145 95.713995 
L 330.878302 94.765994 
L 333.928038 93.654962 
L 340.02751 91.553662 
L 345.110403 89.705968 
L 349.176717 88.456056 
L 357.309346 86.113228 
L 359.342503 85.521482 
L 363.408818 84.440641 
L 366.458553 83.746246 
L 373.574604 82.067622 
L 381.707233 80.328615 
L 384.756968 79.791213 
L 395.939333 77.816716 
L 397.97249 77.490652 
L 403.055383 76.705684 
L 408.138277 76.017327 
L 411.188012 75.636919 
L 418.304063 74.779492 
L 422.370377 74.38097 
L 435.585899 72.907645 
L 443.718528 72.225326 
L 447.784842 71.87511 
L 462.016943 70.927109 
L 469.132993 70.486319 
L 484.381672 69.870421 
L 489.464565 69.695313 
L 499.630352 69.236408 
L 510.812716 68.862039 
L 518.945345 68.614472 
L 530.12771 68.385019 
L 542.326653 68.046879 
L 587.056112 67.358522 
L 619.586628 67.056611 
L 622.636364 67.032459 
L 622.636364 67.032459 
" clip-path="url(#p95cb80e104)" style="fill: none; stroke: #ff0000; stroke-width: 1.5; stroke-linecap: square"/>
   </g>
   <g id="line2d_15">
    <path d="M 115.363636 369.36 
L 122.479687 368.955439 
L 125.529422 368.526726 
L 127.56258 368.049707 
L 128.579158 367.753834 
L 130.612316 366.805834 
L 133.662051 364.505273 
L 134.67863 363.623693 
L 137.728366 360.067182 
L 139.761523 357.22922 
L 141.79468 353.932353 
L 145.860995 346.239663 
L 149.927309 336.977036 
L 151.960466 332.309494 
L 153.993624 327.152856 
L 155.010202 324.18809 
L 158.059938 316.646356 
L 160.093095 311.38103 
L 165.175988 298.290173 
L 166.192567 295.935268 
L 169.242303 288.055393 
L 172.292039 280.241939 
L 175.341774 273.086651 
L 177.374932 267.748866 
L 180.424668 260.092406 
L 184.490982 250.539944 
L 187.540718 243.825446 
L 195.673347 226.199887 
L 197.706504 222.093899 
L 201.772818 214.377056 
L 203.805976 210.120113 
L 211.938604 195.845765 
L 221.087812 180.864946 
L 222.104391 179.337277 
L 224.137548 176.553658 
L 226.170705 173.576817 
L 230.237019 168.063924 
L 234.303334 162.496687 
L 237.35307 158.65638 
L 238.369648 157.557424 
L 241.419384 153.771461 
L 242.435963 152.52155 
L 244.46912 150.323639 
L 247.518856 146.646364 
L 249.552013 144.478644 
L 251.58517 142.178083 
L 258.701221 134.932221 
L 262.767535 131.091914 
L 264.800692 129.183837 
L 268.867007 125.639403 
L 276.999636 119.142281 
L 278.016214 118.369389 
L 280.049371 117.155707 
L 281.06595 116.521694 
L 282.082529 115.730687 
L 283.099107 115.151019 
L 290.215158 110.157412 
L 299.364365 104.84378 
L 304.447258 102.090353 
L 308.513573 100.13397 
L 314.613044 97.332237 
L 316.646201 96.553307 
L 322.745673 93.993102 
L 326.811988 92.501663 
L 333.928038 90.10449 
L 335.961195 89.458401 
L 337.994352 88.703623 
L 342.060667 87.520133 
L 344.093824 87.01896 
L 346.126981 86.318527 
L 350.193296 85.12296 
L 352.226453 84.597635 
L 354.25961 84.253457 
L 356.292767 83.649635 
L 366.458553 81.173965 
L 378.657497 78.873404 
L 397.97249 75.842219 
L 402.038805 75.32897 
L 404.071962 75.081403 
L 412.204591 74.121327 
L 415.254327 73.795263 
L 419.320641 73.445046 
L 426.436692 72.684231 
L 428.469849 72.491008 
L 436.602478 71.83888 
L 440.668792 71.561122 
L 448.801421 70.9573 
L 456.93405 70.51651 
L 466.083257 70.075721 
L 510.812716 68.584281 
L 561.641647 67.479287 
L 587.056112 67.219643 
L 614.503735 67.002268 
L 622.636364 66.96 
L 622.636364 66.96 
" clip-path="url(#p95cb80e104)" style="fill: none; stroke-dasharray: 1.5,2.475; stroke-dashoffset: 0; stroke: #008000; stroke-width: 1.5"/>
   </g>
   <g id="patch_3">
    <path d="M 90 384.48 
L 90 51.84 
" style="fill: none; stroke: #000000; stroke-width: 0.8; stroke-linejoin: miter; stroke-linecap: square"/>
   </g>
   <g id="patch_4">
    <path d="M 648 384.48 
L 648 51.84 
" style="fill: none; stroke: #000000; stroke-width: 0.8; stroke-linejoin: miter; stroke-linecap: square"/>
   </g>
   <g id="patch_5">
    <path d="M 90 384.48 
L 648 384.48 
" style="fill: none; stroke: #000000; stroke-width: 0.8; stroke-linejoin: miter; stroke-linecap: square"/>
   </g>
   <g id="patch_6">
    <path d="M 90 51.84 
L 648 51.84 
" style="fill: none; stroke: #000000; stroke-width: 0.8; stroke-linejoin: miter; stroke-linecap: square"/>
   </g>
   <g id="text_15">
    <text style="font: 24px 'Times New Roman'; text-anchor: middle" x="369" y="45.84" transform="rotate(-0 369 45.84)">Explore the effect of Sa:Si on the R-state</text>
   </g>
   <g id="legend_1">
    <g id="patch_7">
     <path d="M 480.93125 374.48 
L 634 374.48 
Q 638 374.48 638 370.48 
L 638 287.645625 
Q 638 283.645625 634 283.645625 
L 480.93125 283.645625 
Q 476.93125 283.645625 476.93125 287.645625 
L 476.93125 370.48 
Q 476.93125 374.48 480.93125 374.48 
z
" style="fill: #ffffff; opacity: 0.8; stroke: #cccccc; stroke-linejoin: miter"/>
    </g>
    <g id="line2d_16">
     <path d="M 484.93125 298.645625 
L 504.93125 298.645625 
L 524.93125 298.645625 
" style="fill: none; stroke-dasharray: 5.55,2.4; stroke-dashoffset: 0; stroke: #0000ff; stroke-width: 1.5"/>
    </g>
    <g id="text_16">
     <text style="font: 20px 'Times New Roman'; text-anchor: start" x="540.93125" y="305.645625" transform="rotate(-0 540.93125 305.645625)">Sa:Si = 2:8</text>
    </g>
    <g id="line2d_17">
     <path d="M 484.93125 326.92375 
L 504.93125 326.92375 
L 524.93125 326.92375 
" style="fill: none; stroke: #ff0000; stroke-width: 1.5; stroke-linecap: square"/>
    </g>
    <g id="text_17">
     <text style="font: 20px 'Times New Roman'; text-anchor: start" x="540.93125" y="333.92375" transform="rotate(-0 540.93125 333.92375)">Sa:Si = 3:7</text>
    </g>
    <g id="line2d_18">
     <path d="M 484.93125 355.201875 
L 504.93125 355.201875 
L 524.93125 355.201875 
" style="fill: none; stroke-dasharray: 1.5,2.475; stroke-dashoffset: 0; stroke: #008000; stroke-width: 1.5"/>
    </g>
    <g id="text_18">
     <text style="font: 20px 'Times New Roman'; text-anchor: start" x="540.93125" y="362.201875" transform="rotate(-0 540.93125 362.201875)">Sa:Si = 4:6</text>
    </g>
   </g>
  </g>
 </g>
 <defs>
  <clipPath id="p95cb80e104">
   <rect x="90" y="51.84" width="558" height="332.64"/>
  </clipPath>
 </defs>
</svg>
