<?xml version="1.0" encoding="utf-8" standalone="no"?>
<!DOCTYPE svg PUBLIC "-//W3C//DTD SVG 1.1//EN"
  "http://www.w3.org/Graphics/SVG/1.1/DTD/svg11.dtd">
<svg xmlns:xlink="http://www.w3.org/1999/xlink" width="720pt" height="432pt" viewBox="0 0 720 432" xmlns="http://www.w3.org/2000/svg" version="1.1">
 <metadata>
  <rdf:RDF xmlns:dc="http://purl.org/dc/elements/1.1/" xmlns:cc="http://creativecommons.org/ns#" xmlns:rdf="http://www.w3.org/1999/02/22-rdf-syntax-ns#">
   <cc:Work>
    <dc:type rdf:resource="http://purl.org/dc/dcmitype/StillImage"/>
    <dc:date>2024-09-08T21:56:39.702275</dc:date>
    <dc:format>image/svg+xml</dc:format>
    <dc:creator>
     <cc:Agent>
      <dc:title>Matplotlib v3.9.2, https://matplotlib.org/</dc:title>
     </cc:Agent>
    </dc:creator>
   </cc:Work>
  </rdf:RDF>
 </metadata>
 <defs>
  <style type="text/css">*{stroke-linejoin: round; stroke-linecap: butt}</style>
 </defs>
 <g id="figure_1">
  <g id="patch_1">
   <path d="M 0 432 
L 720 432 
L 720 0 
L 0 0 
z
" style="fill: #ffffff"/>
  </g>
  <g id="axes_1">
   <g id="patch_2">
    <path d="M 90 384.48 
L 648 384.48 
L 648 51.84 
L 90 51.84 
z
" style="fill: #ffffff"/>
   </g>
   <g id="matplotlib.axis_1">
    <g id="xtick_1">
     <g id="line2d_1">
      <defs>
       <path id="md67e9d3281" d="M 0 0 
L 0 3.5 
" style="stroke: #000000; stroke-width: 0.8"/>
      </defs>
      <g>
       <use xlink:href="#md67e9d3281" x="115.363636" y="384.48" style="stroke: #000000; stroke-width: 0.8"/>
      </g>
     </g>
     <g id="text_1">
      <text style="font: 20px 'Times New Roman'; text-anchor: middle" x="115.363636" y="405.3675" transform="rotate(-0 115.363636 405.3675)">0</text>
     </g>
    </g>
    <g id="xtick_2">
     <g id="line2d_2">
      <g>
       <use xlink:href="#md67e9d3281" x="217.021498" y="384.48" style="stroke: #000000; stroke-width: 0.8"/>
      </g>
     </g>
     <g id="text_2">
      <text style="font: 20px 'Times New Roman'; text-anchor: middle" x="217.021498" y="405.3675" transform="rotate(-0 217.021498 405.3675)">100</text>
     </g>
    </g>
    <g id="xtick_3">
     <g id="line2d_3">
      <g>
       <use xlink:href="#md67e9d3281" x="318.679359" y="384.48" style="stroke: #000000; stroke-width: 0.8"/>
      </g>
     </g>
     <g id="text_3">
      <text style="font: 20px 'Times New Roman'; text-anchor: middle" x="318.679359" y="405.3675" transform="rotate(-0 318.679359 405.3675)">200</text>
     </g>
    </g>
    <g id="xtick_4">
     <g id="line2d_4">
      <g>
       <use xlink:href="#md67e9d3281" x="420.33722" y="384.48" style="stroke: #000000; stroke-width: 0.8"/>
      </g>
     </g>
     <g id="text_4">
      <text style="font: 20px 'Times New Roman'; text-anchor: middle" x="420.33722" y="405.3675" transform="rotate(-0 420.33722 405.3675)">300</text>
     </g>
    </g>
    <g id="xtick_5">
     <g id="line2d_5">
      <g>
       <use xlink:href="#md67e9d3281" x="521.995081" y="384.48" style="stroke: #000000; stroke-width: 0.8"/>
      </g>
     </g>
     <g id="text_5">
      <text style="font: 20px 'Times New Roman'; text-anchor: middle" x="521.995081" y="405.3675" transform="rotate(-0 521.995081 405.3675)">400</text>
     </g>
    </g>
    <g id="xtick_6">
     <g id="line2d_6">
      <g>
       <use xlink:href="#md67e9d3281" x="623.652942" y="384.48" style="stroke: #000000; stroke-width: 0.8"/>
      </g>
     </g>
     <g id="text_6">
      <text style="font: 20px 'Times New Roman'; text-anchor: middle" x="623.652942" y="405.3675" transform="rotate(-0 623.652942 405.3675)">500</text>
     </g>
    </g>
    <g id="text_7">
     <text style="font: 20px 'Times New Roman'; text-anchor: middle" x="369" y="427.533125" transform="rotate(-0 369 427.533125)">Time (t)</text>
    </g>
   </g>
   <g id="matplotlib.axis_2">
    <g id="ytick_1">
     <g id="line2d_7">
      <defs>
       <path id="mb1728759f0" d="M 0 0 
L -3.5 0 
" style="stroke: #000000; stroke-width: 0.8"/>
      </defs>
      <g>
       <use xlink:href="#mb1728759f0" x="90" y="369.551463" style="stroke: #000000; stroke-width: 0.8"/>
      </g>
     </g>
     <g id="text_8">
      <text style="font: 20px 'Times New Roman'; text-anchor: end" x="83" y="376.495213" transform="rotate(-0 83 376.495213)">0.0</text>
     </g>
    </g>
    <g id="ytick_2">
     <g id="line2d_8">
      <g>
       <use xlink:href="#mb1728759f0" x="90" y="289.296517" style="stroke: #000000; stroke-width: 0.8"/>
      </g>
     </g>
     <g id="text_9">
      <text style="font: 20px 'Times New Roman'; text-anchor: end" x="83" y="296.240267" transform="rotate(-0 83 296.240267)">0.1</text>
     </g>
    </g>
    <g id="ytick_3">
     <g id="line2d_9">
      <g>
       <use xlink:href="#mb1728759f0" x="90" y="209.04157" style="stroke: #000000; stroke-width: 0.8"/>
      </g>
     </g>
     <g id="text_10">
      <text style="font: 20px 'Times New Roman'; text-anchor: end" x="83" y="215.98532" transform="rotate(-0 83 215.98532)">0.2</text>
     </g>
    </g>
    <g id="ytick_4">
     <g id="line2d_10">
      <g>
       <use xlink:href="#mb1728759f0" x="90" y="128.786624" style="stroke: #000000; stroke-width: 0.8"/>
      </g>
     </g>
     <g id="text_11">
      <text style="font: 20px 'Times New Roman'; text-anchor: end" x="83" y="135.730374" transform="rotate(-0 83 135.730374)">0.3</text>
     </g>
    </g>
    <g id="text_12">
     <text style="font: 20px 'Times New Roman'; text-anchor: middle" x="49.684375" y="218.16" transform="rotate(-90 49.684375 218.16)">Density</text>
    </g>
   </g>
   <g id="line2d_11">
    <path d="M 115.363636 365.538716 
L 116.380215 367.573011 
L 118.413372 366.87098 
L 119.429951 366.727382 
L 121.463108 365.897709 
L 123.496265 364.71702 
L 124.512844 364.094765 
L 126.546001 361.972716 
L 127.56258 360.823937 
L 128.579158 359.196501 
L 131.628894 353.293055 
L 133.662051 348.857494 
L 135.695209 343.017869 
L 139.761523 327.652956 
L 141.79468 318.271265 
L 145.860995 297.353922 
L 150.943888 267.661187 
L 155.010202 243.122001 
L 158.059938 226.783817 
L 159.076517 222.348255 
L 160.093095 216.987289 
L 168.225724 181.423019 
L 169.242303 177.625668 
L 171.27546 170.764907 
L 172.292039 166.887779 
L 174.325196 161.303439 
L 175.341774 159.133524 
L 176.358353 156.245622 
L 180.424668 146.736289 
L 181.441246 145.013121 
L 184.490982 139.36496 
L 185.507561 138.264047 
L 188.557296 133.892306 
L 190.590454 132.504199 
L 191.607032 131.036315 
L 192.623611 130.302373 
L 193.640189 129.80776 
L 194.656768 129.999223 
L 196.689925 129.536521 
L 197.706504 129.456745 
L 198.723083 129.80776 
L 199.739661 129.967313 
L 200.75624 129.648208 
L 201.772818 130.38215 
L 202.789397 130.541702 
L 203.805976 131.148002 
L 204.822554 131.403286 
L 205.839133 131.514973 
L 207.87229 132.328691 
L 208.888869 133.20623 
L 209.905447 133.908261 
L 210.922026 134.929398 
L 211.938604 135.759071 
L 216.004919 138.567197 
L 219.054655 142.715564 
L 223.120969 147.518096 
L 225.154126 150.804879 
L 228.203862 154.87347 
L 229.220441 156.644504 
L 231.253598 159.2133 
L 232.270177 159.979153 
L 233.286755 161.36726 
L 235.319913 164.957193 
L 238.369648 168.674768 
L 239.386227 170.62131 
L 240.402806 172.280656 
L 242.435963 175.982276 
L 243.452541 177.402294 
L 246.502277 182.284603 
L 248.535435 185.060818 
L 250.568592 188.188048 
L 252.601749 190.932353 
L 253.618328 192.846984 
L 254.634906 194.410599 
L 255.651485 195.702975 
L 256.668063 197.394232 
L 257.684642 199.340773 
L 263.784114 208.754376 
L 264.800692 210.174393 
L 266.83385 214.131297 
L 267.850428 215.902331 
L 269.883585 218.726412 
L 270.900164 220.465535 
L 271.916743 221.837687 
L 272.933321 223.433213 
L 275.983057 227.693267 
L 276.999636 229.480255 
L 278.016214 230.6769 
L 279.032793 232.55962 
L 281.06595 235.367745 
L 282.082529 237.027092 
L 283.099107 238.399244 
L 284.115686 240.393652 
L 287.165422 245.307871 
L 290.215158 248.913759 
L 291.231736 250.557151 
L 292.248315 251.849527 
L 294.281472 255.056534 
L 295.298051 256.173402 
L 296.314629 257.657241 
L 297.331208 259.444229 
L 301.397522 264.45418 
L 302.414101 265.507227 
L 303.43068 266.863424 
L 304.447258 267.85265 
L 308.513573 272.543496 
L 309.530151 274.01138 
L 312.579887 277.649178 
L 313.596466 278.558628 
L 314.613044 280.090333 
L 315.629623 281.239111 
L 316.646201 282.595308 
L 318.679359 284.940731 
L 320.712516 287.493573 
L 322.745673 289.503935 
L 324.77883 291.833403 
L 325.795409 292.742852 
L 326.811988 293.875676 
L 327.828566 294.753215 
L 328.845145 295.933904 
L 336.977774 303.656249 
L 337.994352 304.246593 
L 341.044088 307.022808 
L 344.093824 309.575649 
L 351.209874 315.303587 
L 352.226453 316.356634 
L 354.25961 317.728786 
L 356.292767 319.260491 
L 357.309346 319.83488 
L 358.325925 320.600732 
L 360.359082 321.813332 
L 363.408818 323.791784 
L 365.441975 324.988428 
L 369.508289 327.429583 
L 373.574604 329.583542 
L 376.62434 331.210979 
L 380.690654 333.093699 
L 381.707233 333.46067 
L 383.74039 334.609449 
L 390.85644 337.832411 
L 392.889597 338.74186 
L 395.939333 339.938505 
L 401.022226 341.693583 
L 403.055383 342.539212 
L 405.088541 343.257198 
L 407.121698 344.166648 
L 408.138277 344.421932 
L 409.154855 344.804858 
L 412.204591 345.634532 
L 413.22117 346.081279 
L 414.237748 346.336563 
L 416.270905 347.022639 
L 418.304063 347.405565 
L 424.403534 349.623346 
L 427.45327 350.532796 
L 430.503006 351.107185 
L 431.519585 351.458201 
L 432.536163 351.585843 
L 434.56932 352.208098 
L 435.585899 352.415516 
L 436.602478 352.766532 
L 437.619056 352.957995 
L 438.635635 353.2771 
L 443.718528 354.298237 
L 446.768264 355.016223 
L 448.801421 355.542747 
L 450.834578 356.06927 
L 461.000364 357.872214 
L 462.016943 357.983901 
L 467.099836 359.068859 
L 469.132993 359.340098 
L 470.149572 359.563472 
L 473.199308 359.930443 
L 485.398251 361.781253 
L 487.431408 362.004626 
L 491.497723 362.515194 
L 498.613773 363.137449 
L 501.663509 363.424644 
L 503.696666 363.552286 
L 514.879031 364.509602 
L 516.912188 364.621288 
L 530.12771 365.770067 
L 539.276917 366.408277 
L 541.310075 366.56783 
L 545.376389 366.695472 
L 549.442704 366.982667 
L 554.525597 367.237951 
L 574.857169 368.11549 
L 586.039534 368.370774 
L 588.072691 368.466506 
L 616.536892 369.008984 
L 622.636364 369.136626 
L 622.636364 369.136626 
" clip-path="url(#p8e5a8a275f)" style="fill: none; stroke-dasharray: 5.55,2.4; stroke-dashoffset: 0; stroke: #0000ff; stroke-width: 1.5"/>
   </g>
   <g id="line2d_12">
    <path d="M 115.363636 365.538716 
L 116.380215 367.541101 
L 117.396794 367.046488 
L 118.413372 366.727382 
L 120.446529 365.35523 
L 121.463108 364.493646 
L 123.496265 362.116313 
L 125.529422 359.292232 
L 127.56258 355.159821 
L 128.579158 352.622935 
L 129.595737 349.750988 
L 130.612316 346.496116 
L 132.645473 338.055784 
L 134.67863 329.12084 
L 137.728366 310.88398 
L 139.761523 296.237054 
L 145.860995 251.705929 
L 149.927309 221.869597 
L 155.010202 187.805122 
L 156.026781 182.045274 
L 162.126253 152.192987 
L 163.142831 148.124396 
L 165.175988 138.982033 
L 172.292039 117.203107 
L 174.325196 113.022829 
L 175.341774 111.315617 
L 176.358353 109.321209 
L 177.374932 107.613997 
L 178.39151 106.848144 
L 179.408089 105.140932 
L 180.424668 104.10384 
L 181.441246 102.715733 
L 182.457825 101.902014 
L 183.474403 101.838193 
L 185.507561 101.535044 
L 186.524139 100.992565 
L 187.540718 101.00852 
L 189.573875 101.327625 
L 190.590454 102.412583 
L 191.607032 102.604046 
L 192.623611 103.80069 
L 193.640189 104.024064 
L 194.656768 104.550587 
L 195.673347 105.444082 
L 196.689925 106.848144 
L 198.723083 108.156475 
L 200.75624 110.59763 
L 203.805976 114.969371 
L 204.822554 116.277702 
L 205.839133 118.144467 
L 206.855711 119.660216 
L 207.87229 121.511026 
L 209.905447 124.494659 
L 210.922026 125.515796 
L 211.938604 127.414472 
L 212.955183 128.754713 
L 214.98834 131.818123 
L 216.004919 132.791393 
L 218.038076 135.934579 
L 219.054655 137.258866 
L 221.087812 140.960485 
L 222.104391 142.49219 
L 223.120969 144.438732 
L 224.137548 145.794929 
L 227.187284 151.841971 
L 229.220441 154.985157 
L 230.237019 156.628549 
L 235.319913 167.462169 
L 236.336491 169.089605 
L 237.35307 170.940415 
L 238.369648 173.285838 
L 239.386227 174.897319 
L 240.402806 176.764084 
L 241.419384 178.39152 
L 242.435963 180.290196 
L 243.452541 181.805945 
L 244.46912 183.529113 
L 245.485699 184.933176 
L 249.552013 192.065176 
L 250.568592 194.027673 
L 252.601749 197.250635 
L 253.618328 199.165266 
L 255.651485 202.148899 
L 257.684642 206.265355 
L 258.701221 207.828971 
L 259.717799 209.759557 
L 260.734378 211.371038 
L 261.750956 213.445221 
L 262.767535 215.040747 
L 263.784114 217.003244 
L 266.83385 222.204658 
L 268.867007 226.017964 
L 269.883585 227.91664 
L 271.916743 231.267244 
L 272.933321 233.038278 
L 274.966478 235.559209 
L 280.049371 243.808077 
L 285.132265 250.844345 
L 286.148843 251.993124 
L 288.182 255.120355 
L 290.215158 258.407138 
L 292.248315 261.342905 
L 293.264893 263.034162 
L 294.281472 264.055299 
L 296.314629 266.703872 
L 297.331208 268.235576 
L 298.347786 269.448176 
L 299.364365 270.94797 
L 300.380944 272.144615 
L 304.447258 276.133429 
L 305.463837 277.314118 
L 307.496994 280.265841 
L 310.54673 283.696221 
L 312.579887 285.914002 
L 318.679359 292.519479 
L 322.745673 296.524248 
L 324.77883 298.279327 
L 325.795409 299.061134 
L 326.811988 300.305644 
L 327.828566 300.991721 
L 328.845145 301.949036 
L 330.878302 304.134906 
L 331.894881 304.99649 
L 332.911459 305.618745 
L 339.010931 310.405323 
L 343.077245 313.452777 
L 347.14356 316.548097 
L 348.160138 317.154397 
L 349.176717 317.904294 
L 351.209874 319.084983 
L 352.226453 319.994433 
L 353.243032 320.536911 
L 360.359082 325.323489 
L 361.37566 325.802146 
L 362.392239 326.552043 
L 364.425396 327.541269 
L 365.441975 327.924196 
L 367.475132 329.088929 
L 372.558025 331.897055 
L 373.574604 332.264026 
L 375.607761 333.412804 
L 377.640918 334.593493 
L 379.674075 335.423167 
L 386.790126 338.598263 
L 387.806704 339.188608 
L 389.839862 339.98637 
L 390.85644 340.496939 
L 391.873019 340.704357 
L 393.906176 341.422344 
L 395.939333 342.363704 
L 396.955912 342.650899 
L 398.989069 343.528438 
L 406.105119 345.921726 
L 407.121698 346.113189 
L 409.154855 346.879042 
L 410.171434 347.070505 
L 412.204591 347.772536 
L 414.237748 348.394791 
L 418.304063 349.591436 
L 419.320641 349.766943 
L 421.353799 350.341333 
L 424.403534 351.09123 
L 434.56932 354.122729 
L 436.602478 354.409923 
L 438.635635 354.920492 
L 440.668792 355.271507 
L 442.701949 355.76612 
L 451.851157 357.553109 
L 453.884314 357.824349 
L 456.93405 358.366827 
L 458.967207 358.669977 
L 459.983786 358.973127 
L 475.232465 361.047311 
L 479.298779 361.366416 
L 484.381672 361.876984 
L 486.41483 361.988671 
L 497.597194 363.297002 
L 498.613773 363.344868 
L 500.64693 363.568241 
L 501.663509 363.616107 
L 503.696666 363.839481 
L 508.779559 364.286228 
L 515.895609 364.796796 
L 517.928767 364.972304 
L 530.12771 365.610514 
L 537.24376 366.200859 
L 540.293496 366.376367 
L 548.426125 366.934801 
L 562.658226 367.445369 
L 565.707961 367.620877 
L 571.807433 367.796385 
L 574.857169 367.939982 
L 582.989798 368.131445 
L 586.039534 368.275042 
L 591.122427 368.434595 
L 594.172163 368.498416 
L 604.337949 368.72179 
L 607.387684 368.833476 
L 614.503735 368.929208 
L 622.636364 369.136626 
L 622.636364 369.136626 
" clip-path="url(#p8e5a8a275f)" style="fill: none; stroke: #ff0000; stroke-width: 1.5; stroke-linecap: square"/>
   </g>
   <g id="line2d_13">
    <path d="M 115.363636 365.538716 
L 116.380215 367.110309 
L 118.413372 365.690291 
L 120.446529 363.648018 
L 121.463108 362.084402 
L 122.479687 360.07404 
L 123.496265 357.521199 
L 124.512844 354.425879 
L 125.529422 350.867856 
L 126.546001 346.512071 
L 127.56258 341.214925 
L 128.579158 335.279569 
L 130.612316 321.589958 
L 131.628894 313.787837 
L 132.645473 304.773117 
L 135.695209 273.484856 
L 137.728366 250.317822 
L 142.811259 193.915986 
L 143.827837 183.146187 
L 144.844416 173.71663 
L 145.860995 163.24998 
L 147.894152 145.603465 
L 148.910731 137.418418 
L 150.943888 123.361836 
L 152.977045 111.092243 
L 153.993624 105.842963 
L 158.059938 89.313316 
L 159.076517 86.632833 
L 160.093095 83.250318 
L 161.109674 80.426238 
L 163.142831 76.405513 
L 164.15941 74.6983 
L 166.192567 70.948814 
L 167.209146 69.512841 
L 168.225724 68.81081 
L 169.242303 68.587436 
L 170.258881 67.454613 
L 171.27546 67.007866 
L 172.292039 67.055732 
L 173.308617 66.96 
L 174.325196 67.151463 
L 175.341774 66.975955 
L 176.358353 67.709897 
L 177.374932 69.098005 
L 178.39151 69.815991 
L 179.408089 70.884993 
L 180.424668 72.496474 
L 185.507561 78.144636 
L 186.524139 79.995446 
L 187.540718 80.745343 
L 188.557296 82.069629 
L 190.590454 85.723383 
L 192.623611 88.643195 
L 194.656768 92.536278 
L 197.706504 97.657916 
L 198.723083 99.173665 
L 199.739661 101.407401 
L 201.772818 105.188798 
L 202.789397 107.422534 
L 203.805976 110.501898 
L 204.822554 112.272932 
L 205.839133 114.538579 
L 207.87229 118.144467 
L 208.888869 120.21865 
L 209.905447 122.580028 
L 213.971762 130.796986 
L 217.021498 137.897076 
L 219.054655 142.045443 
L 220.071233 144.630195 
L 224.137548 152.240853 
L 226.170705 156.468996 
L 228.203862 160.218482 
L 229.220441 162.659636 
L 230.237019 164.558312 
L 236.336491 177.769265 
L 239.386227 183.33765 
L 242.435963 190.006948 
L 243.452541 191.793937 
L 247.518856 200.138536 
L 249.552013 203.712514 
L 251.58517 207.79706 
L 253.618328 211.690143 
L 255.651485 215.647047 
L 263.784114 230.40566 
L 268.867007 239.069365 
L 269.883585 240.553204 
L 270.900164 242.260417 
L 273.9499 246.695978 
L 275.983057 249.918941 
L 276.999636 251.019853 
L 278.016214 252.487737 
L 280.049371 254.849115 
L 286.148843 263.369223 
L 287.165422 265.108346 
L 290.215158 269.256713 
L 293.264893 273.117885 
L 294.281472 274.729366 
L 297.331208 278.175702 
L 298.347786 279.675496 
L 299.364365 280.696633 
L 300.380944 281.909232 
L 301.397522 283.345206 
L 304.447258 286.552212 
L 312.579887 295.024454 
L 317.66278 299.444061 
L 318.679359 300.576884 
L 319.695937 301.502289 
L 320.712516 302.220275 
L 322.745673 304.230638 
L 323.762252 304.916714 
L 326.811988 307.645063 
L 329.861723 309.926665 
L 330.878302 310.88398 
L 333.928038 313.069851 
L 334.944617 313.692106 
L 336.977774 315.415274 
L 337.994352 316.292813 
L 340.02751 317.633054 
L 341.044088 318.175533 
L 342.060667 318.973296 
L 344.093824 320.153985 
L 345.110403 321.111301 
L 347.14356 322.579184 
L 348.160138 323.057842 
L 350.193296 324.701234 
L 352.226453 325.929788 
L 354.25961 326.695641 
L 355.276189 327.509359 
L 361.37566 331.210979 
L 363.408818 332.567176 
L 367.475132 334.593493 
L 368.491711 335.247659 
L 377.640918 339.475802 
L 381.707233 340.86391 
L 387.806704 343.001914 
L 389.839862 343.847543 
L 395.939333 346.304653 
L 396.955912 346.767355 
L 400.005648 347.597028 
L 402.038805 348.29906 
L 403.055383 348.697941 
L 406.105119 349.463794 
L 407.121698 349.894586 
L 409.154855 350.405154 
L 411.188012 350.931677 
L 414.237748 351.809216 
L 422.370377 353.58025 
L 423.386956 353.979132 
L 425.420113 354.4897 
L 427.45327 355.111955 
L 429.486427 355.478926 
L 438.635635 357.249959 
L 442.701949 358.015812 
L 445.751685 358.654022 
L 449.818 359.244367 
L 453.884314 359.946398 
L 465.066679 361.270684 
L 468.116415 361.637655 
L 471.16615 361.908895 
L 483.365094 362.961942 
L 485.398251 363.137449 
L 487.431408 363.344868 
L 489.464565 363.392734 
L 491.497723 363.616107 
L 493.53088 363.80757 
L 498.613773 364.270273 
L 518.945345 365.786022 
L 523.01166 365.977485 
L 528.094553 366.408277 
L 530.12771 366.504009 
L 532.160867 366.663561 
L 538.260339 366.934801 
L 542.326653 367.094353 
L 544.359811 367.20604 
L 545.376389 367.349638 
L 548.426125 367.461324 
L 554.525597 367.748519 
L 561.641647 368.003803 
L 564.691383 368.099535 
L 566.72454 368.195266 
L 568.757697 368.259087 
L 573.84059 368.402685 
L 585.022955 368.657969 
L 592.139005 368.865387 
L 597.221898 369.008984 
L 606.371106 369.200447 
L 617.553471 369.296179 
L 622.636364 369.36 
L 622.636364 369.36 
" clip-path="url(#p8e5a8a275f)" style="fill: none; stroke-dasharray: 1.5,2.475; stroke-dashoffset: 0; stroke: #008000; stroke-width: 1.5"/>
   </g>
   <g id="patch_3">
    <path d="M 90 384.48 
L 90 51.84 
" style="fill: none; stroke: #000000; stroke-width: 0.8; stroke-linejoin: miter; stroke-linecap: square"/>
   </g>
   <g id="patch_4">
    <path d="M 648 384.48 
L 648 51.84 
" style="fill: none; stroke: #000000; stroke-width: 0.8; stroke-linejoin: miter; stroke-linecap: square"/>
   </g>
   <g id="patch_5">
    <path d="M 90 384.48 
L 648 384.48 
" style="fill: none; stroke: #000000; stroke-width: 0.8; stroke-linejoin: miter; stroke-linecap: square"/>
   </g>
   <g id="patch_6">
    <path d="M 90 51.84 
L 648 51.84 
" style="fill: none; stroke: #000000; stroke-width: 0.8; stroke-linejoin: miter; stroke-linecap: square"/>
   </g>
   <g id="text_13">
    <text style="font: 24px 'Times New Roman'; text-anchor: middle" x="369" y="45.84" transform="rotate(-0 369 45.84)">Explore the effect of Sa:Si on the I-state</text>
   </g>
   <g id="legend_1">
    <g id="patch_7">
     <path d="M 480.93125 152.674375 
L 634 152.674375 
Q 638 152.674375 638 148.674375 
L 638 65.84 
Q 638 61.84 634 61.84 
L 480.93125 61.84 
Q 476.93125 61.84 476.93125 65.84 
L 476.93125 148.674375 
Q 476.93125 152.674375 480.93125 152.674375 
z
" style="fill: #ffffff; opacity: 0.8; stroke: #cccccc; stroke-linejoin: miter"/>
    </g>
    <g id="line2d_14">
     <path d="M 484.93125 76.84 
L 504.93125 76.84 
L 524.93125 76.84 
" style="fill: none; stroke-dasharray: 5.55,2.4; stroke-dashoffset: 0; stroke: #0000ff; stroke-width: 1.5"/>
    </g>
    <g id="text_14">
     <text style="font: 20px 'Times New Roman'; text-anchor: start" x="540.93125" y="83.84" transform="rotate(-0 540.93125 83.84)">Sa:Si = 2:8</text>
    </g>
    <g id="line2d_15">
     <path d="M 484.93125 105.118125 
L 504.93125 105.118125 
L 524.93125 105.118125 
" style="fill: none; stroke: #ff0000; stroke-width: 1.5; stroke-linecap: square"/>
    </g>
    <g id="text_15">
     <text style="font: 20px 'Times New Roman'; text-anchor: start" x="540.93125" y="112.118125" transform="rotate(-0 540.93125 112.118125)">Sa:Si = 3:7</text>
    </g>
    <g id="line2d_16">
     <path d="M 484.93125 133.39625 
L 504.93125 133.39625 
L 524.93125 133.39625 
" style="fill: none; stroke-dasharray: 1.5,2.475; stroke-dashoffset: 0; stroke: #008000; stroke-width: 1.5"/>
    </g>
    <g id="text_16">
     <text style="font: 20px 'Times New Roman'; text-anchor: start" x="540.93125" y="140.39625" transform="rotate(-0 540.93125 140.39625)">Sa:Si = 4:6</text>
    </g>
   </g>
  </g>
 </g>
 <defs>
  <clipPath id="p8e5a8a275f">
   <rect x="90" y="51.84" width="558" height="332.64"/>
  </clipPath>
 </defs>
</svg>
