<?xml version="1.0" encoding="utf-8" standalone="no"?>
<!DOCTYPE svg PUBLIC "-//W3C//DTD SVG 1.1//EN"
  "http://www.w3.org/Graphics/SVG/1.1/DTD/svg11.dtd">
<svg xmlns:xlink="http://www.w3.org/1999/xlink" width="720pt" height="432pt" viewBox="0 0 720 432" xmlns="http://www.w3.org/2000/svg" version="1.1">
 <metadata>
  <rdf:RDF xmlns:dc="http://purl.org/dc/elements/1.1/" xmlns:cc="http://creativecommons.org/ns#" xmlns:rdf="http://www.w3.org/1999/02/22-rdf-syntax-ns#">
   <cc:Work>
    <dc:type rdf:resource="http://purl.org/dc/dcmitype/StillImage"/>
    <dc:date>2024-09-08T21:30:56.675458</dc:date>
    <dc:format>image/svg+xml</dc:format>
    <dc:creator>
     <cc:Agent>
      <dc:title>Matplotlib v3.9.2, https://matplotlib.org/</dc:title>
     </cc:Agent>
    </dc:creator>
   </cc:Work>
  </rdf:RDF>
 </metadata>
 <defs>
  <style type="text/css">*{stroke-linejoin: round; stroke-linecap: butt}</style>
 </defs>
 <g id="figure_1">
  <g id="patch_1">
   <path d="M 0 432 
L 720 432 
L 720 0 
L 0 0 
z
" style="fill: #ffffff"/>
  </g>
  <g id="axes_1">
   <g id="patch_2">
    <path d="M 90 384.48 
L 648 384.48 
L 648 51.84 
L 90 51.84 
z
" style="fill: #ffffff"/>
   </g>
   <g id="matplotlib.axis_1">
    <g id="xtick_1">
     <g id="line2d_1">
      <defs>
       <path id="mc952c1372d" d="M 0 0 
L 0 3.5 
" style="stroke: #000000; stroke-width: 0.8"/>
      </defs>
      <g>
       <use xlink:href="#mc952c1372d" x="115.363636" y="384.48" style="stroke: #000000; stroke-width: 0.8"/>
      </g>
     </g>
     <g id="text_1">
      <text style="font: 20px 'Times New Roman'; text-anchor: middle" x="115.363636" y="405.3675" transform="rotate(-0 115.363636 405.3675)">0</text>
     </g>
    </g>
    <g id="xtick_2">
     <g id="line2d_2">
      <g>
       <use xlink:href="#mc952c1372d" x="217.021498" y="384.48" style="stroke: #000000; stroke-width: 0.8"/>
      </g>
     </g>
     <g id="text_2">
      <text style="font: 20px 'Times New Roman'; text-anchor: middle" x="217.021498" y="405.3675" transform="rotate(-0 217.021498 405.3675)">100</text>
     </g>
    </g>
    <g id="xtick_3">
     <g id="line2d_3">
      <g>
       <use xlink:href="#mc952c1372d" x="318.679359" y="384.48" style="stroke: #000000; stroke-width: 0.8"/>
      </g>
     </g>
     <g id="text_3">
      <text style="font: 20px 'Times New Roman'; text-anchor: middle" x="318.679359" y="405.3675" transform="rotate(-0 318.679359 405.3675)">200</text>
     </g>
    </g>
    <g id="xtick_4">
     <g id="line2d_4">
      <g>
       <use xlink:href="#mc952c1372d" x="420.33722" y="384.48" style="stroke: #000000; stroke-width: 0.8"/>
      </g>
     </g>
     <g id="text_4">
      <text style="font: 20px 'Times New Roman'; text-anchor: middle" x="420.33722" y="405.3675" transform="rotate(-0 420.33722 405.3675)">300</text>
     </g>
    </g>
    <g id="xtick_5">
     <g id="line2d_5">
      <g>
       <use xlink:href="#mc952c1372d" x="521.995081" y="384.48" style="stroke: #000000; stroke-width: 0.8"/>
      </g>
     </g>
     <g id="text_5">
      <text style="font: 20px 'Times New Roman'; text-anchor: middle" x="521.995081" y="405.3675" transform="rotate(-0 521.995081 405.3675)">400</text>
     </g>
    </g>
    <g id="xtick_6">
     <g id="line2d_6">
      <g>
       <use xlink:href="#mc952c1372d" x="623.652942" y="384.48" style="stroke: #000000; stroke-width: 0.8"/>
      </g>
     </g>
     <g id="text_6">
      <text style="font: 20px 'Times New Roman'; text-anchor: middle" x="623.652942" y="405.3675" transform="rotate(-0 623.652942 405.3675)">500</text>
     </g>
    </g>
    <g id="text_7">
     <text style="font: 20px 'Times New Roman'; text-anchor: middle" x="369" y="427.533125" transform="rotate(-0 369 427.533125)">Time (t)</text>
    </g>
   </g>
   <g id="matplotlib.axis_2">
    <g id="ytick_1">
     <g id="line2d_7">
      <defs>
       <path id="m913ebef636" d="M 0 0 
L -3.5 0 
" style="stroke: #000000; stroke-width: 0.8"/>
      </defs>
      <g>
       <use xlink:href="#m913ebef636" x="90" y="369.36" style="stroke: #000000; stroke-width: 0.8"/>
      </g>
     </g>
     <g id="text_8">
      <text style="font: 20px 'Times New Roman'; text-anchor: end" x="83" y="376.30375" transform="rotate(-0 83 376.30375)">0.0</text>
     </g>
    </g>
    <g id="ytick_2">
     <g id="line2d_8">
      <g>
       <use xlink:href="#m913ebef636" x="90" y="296.644062" style="stroke: #000000; stroke-width: 0.8"/>
      </g>
     </g>
     <g id="text_9">
      <text style="font: 20px 'Times New Roman'; text-anchor: end" x="83" y="303.587812" transform="rotate(-0 83 303.587812)">0.1</text>
     </g>
    </g>
    <g id="ytick_3">
     <g id="line2d_9">
      <g>
       <use xlink:href="#m913ebef636" x="90" y="223.928123" style="stroke: #000000; stroke-width: 0.8"/>
      </g>
     </g>
     <g id="text_10">
      <text style="font: 20px 'Times New Roman'; text-anchor: end" x="83" y="230.871873" transform="rotate(-0 83 230.871873)">0.2</text>
     </g>
    </g>
    <g id="ytick_4">
     <g id="line2d_10">
      <g>
       <use xlink:href="#m913ebef636" x="90" y="151.212185" style="stroke: #000000; stroke-width: 0.8"/>
      </g>
     </g>
     <g id="text_11">
      <text style="font: 20px 'Times New Roman'; text-anchor: end" x="83" y="158.155935" transform="rotate(-0 83 158.155935)">0.3</text>
     </g>
    </g>
    <g id="ytick_5">
     <g id="line2d_11">
      <g>
       <use xlink:href="#m913ebef636" x="90" y="78.496246" style="stroke: #000000; stroke-width: 0.8"/>
      </g>
     </g>
     <g id="text_12">
      <text style="font: 20px 'Times New Roman'; text-anchor: end" x="83" y="85.439996" transform="rotate(-0 83 85.439996)">0.4</text>
     </g>
    </g>
    <g id="text_13">
     <text style="font: 20px 'Times New Roman'; text-anchor: middle" x="49.684375" y="218.16" transform="rotate(-90 49.684375 218.16)">Density</text>
    </g>
   </g>
   <g id="line2d_12">
    <path d="M 115.363636 369.36 
L 116.380215 367.061425 
L 117.396794 365.442302 
L 119.429951 361.929385 
L 121.463108 357.202126 
L 122.479687 354.657791 
L 123.496265 351.376177 
L 125.529422 343.179371 
L 128.579158 326.756845 
L 130.612316 311.302901 
L 133.662051 284.341623 
L 136.711787 251.38092 
L 141.79468 192.543172 
L 144.844416 159.972793 
L 147.894152 132.476627 
L 149.927309 117.022683 
L 150.943888 111.109995 
L 151.960466 104.387746 
L 152.977045 98.503972 
L 155.010202 89.092823 
L 157.043359 81.676665 
L 158.059938 78.03364 
L 159.076517 75.055611 
L 160.093095 72.74258 
L 161.109674 70.863241 
L 163.142831 68.969446 
L 164.15941 68.232168 
L 165.175988 67.350324 
L 166.192567 66.96 
L 167.209146 67.928582 
L 168.225724 68.073147 
L 169.242303 69.186293 
L 170.258881 70.111506 
L 171.27546 71.325848 
L 172.292039 72.005301 
L 174.325196 76.082019 
L 177.374932 81.416449 
L 178.39151 83.888502 
L 180.424668 87.647179 
L 181.441246 89.786733 
L 182.457825 92.663566 
L 186.524139 102.436126 
L 189.573875 110.76304 
L 191.607032 116.502251 
L 193.640189 122.111353 
L 197.706504 132.794669 
L 198.723083 134.934223 
L 200.75624 139.979524 
L 204.822554 151.096533 
L 206.855711 156.879113 
L 207.87229 159.640294 
L 208.888869 161.909957 
L 210.922026 167.287756 
L 211.938604 169.889917 
L 212.955183 172.867945 
L 213.971762 175.238803 
L 214.98834 178.187919 
L 220.071233 190.331336 
L 228.203862 208.344071 
L 235.319913 223.552255 
L 237.35307 227.412127 
L 243.452541 239.266416 
L 245.485699 243.111831 
L 246.502277 244.658671 
L 248.535435 248.099306 
L 253.618328 256.137092 
L 254.634906 258.01643 
L 255.651485 259.230772 
L 259.717799 265.663891 
L 260.734378 266.950515 
L 262.767535 270.044195 
L 265.817271 274.251022 
L 266.83385 275.72558 
L 268.867007 278.428936 
L 269.883585 279.990232 
L 270.900164 280.872076 
L 274.966478 286.047484 
L 275.983057 287.175087 
L 278.016214 289.921813 
L 282.082529 294.128639 
L 283.099107 294.894831 
L 286.148843 298.133076 
L 287.165422 298.97155 
L 292.248315 303.81446 
L 293.264893 305.101084 
L 297.331208 308.556176 
L 298.347786 309.539214 
L 314.613044 321.509154 
L 317.66278 323.547513 
L 319.695937 325.022071 
L 320.712516 325.528047 
L 321.729095 326.265326 
L 327.828566 329.720417 
L 329.861723 331.281713 
L 331.894881 332.206926 
L 335.961195 333.869418 
L 336.977774 334.38985 
L 337.994352 335.054847 
L 340.02751 336.124624 
L 342.060667 337.093206 
L 345.110403 338.37983 
L 346.126981 338.929175 
L 347.14356 339.68091 
L 349.176717 340.476015 
L 352.226453 341.791552 
L 353.243032 342.051768 
L 362.392239 345.492403 
L 364.425396 346.31642 
L 367.475132 347.285002 
L 370.524868 348.268041 
L 374.591182 349.641404 
L 382.723811 351.679763 
L 384.756968 352.214651 
L 386.790126 352.619432 
L 387.806704 353.053126 
L 406.105119 356.884085 
L 411.188012 357.83821 
L 413.22117 358.170708 
L 422.370377 359.63081 
L 424.403534 359.891026 
L 426.436692 360.050047 
L 438.635635 361.510148 
L 441.685371 361.900472 
L 443.718528 362.160688 
L 455.917471 363.288291 
L 474.215886 364.430351 
L 487.431408 365.471215 
L 501.663509 366.165125 
L 503.696666 366.280776 
L 505.729823 366.353059 
L 514.879031 366.801209 
L 519.961924 366.960229 
L 523.01166 367.11925 
L 527.077974 367.278271 
L 549.442704 367.81316 
L 555.542175 367.957724 
L 558.591911 368.087832 
L 577.906905 368.535982 
L 603.32137 368.796198 
L 622.636364 368.882937 
L 622.636364 368.882937 
" clip-path="url(#p08640c1b81)" style="fill: none; stroke-dasharray: 5.55,2.4; stroke-dashoffset: 0; stroke: #0000ff; stroke-width: 1.5"/>
   </g>
   <g id="line2d_13">
    <path d="M 115.363636 369.36 
L 116.380215 367.191533 
L 117.396794 365.962734 
L 119.429951 362.204058 
L 120.446529 359.934395 
L 122.479687 354.845725 
L 123.496265 351.665306 
L 124.512844 348.051194 
L 125.529422 343.772085 
L 127.56258 333.24779 
L 128.579158 327.30619 
L 129.595737 320.482746 
L 131.628894 304.26261 
L 135.695209 266.19878 
L 137.728366 244.196065 
L 139.761523 220.950095 
L 140.778102 209.009068 
L 142.811259 188.437541 
L 144.844416 166.911888 
L 145.860995 158.512691 
L 146.877573 148.826871 
L 148.910731 133.011515 
L 150.943888 122.183635 
L 152.977045 113.914546 
L 153.993624 110.777497 
L 155.010202 108.131967 
L 157.043359 104.084161 
L 158.059938 102.62406 
L 159.076517 102.002432 
L 161.109674 102.696342 
L 164.15941 105.645458 
L 165.175988 107.22121 
L 167.209146 111.326842 
L 168.225724 113.538679 
L 169.242303 116.328773 
L 173.308617 129.802184 
L 178.39151 148.653393 
L 179.408089 152.267505 
L 182.457825 164.801247 
L 184.490982 172.130666 
L 186.524139 180.631058 
L 198.723083 222.337914 
L 199.739661 225.200291 
L 200.75624 228.612013 
L 201.772818 231.040696 
L 205.839133 242.663681 
L 208.888869 250.296686 
L 212.955183 261.341413 
L 217.021498 271.056147 
L 221.087812 279.614365 
L 223.120969 283.980212 
L 226.170705 289.545945 
L 228.203862 293.535925 
L 229.220441 295.053852 
L 231.253598 298.32101 
L 237.35307 308.064656 
L 239.386227 310.637904 
L 240.402806 312.314852 
L 242.435963 314.815818 
L 244.46912 317.258958 
L 245.485699 318.646777 
L 246.502277 319.731011 
L 249.552013 323.908924 
L 252.601749 326.800214 
L 253.618328 328.014556 
L 255.651485 330.024002 
L 256.668063 330.862476 
L 258.701221 332.770728 
L 260.734378 334.476589 
L 262.767535 336.38484 
L 263.784114 337.136575 
L 264.800692 338.191896 
L 266.83385 339.623084 
L 271.916743 342.976981 
L 274.966478 344.76958 
L 275.983057 345.449033 
L 276.999636 345.969466 
L 279.032793 347.169351 
L 285.132265 350.364226 
L 290.215158 352.402585 
L 291.231736 352.966387 
L 292.248315 353.255516 
L 296.314629 354.889095 
L 297.331208 355.062572 
L 301.397522 356.262457 
L 303.43068 356.970823 
L 306.480415 357.63582 
L 312.579887 359.269399 
L 314.613044 359.992221 
L 323.762252 361.842647 
L 332.911459 362.955793 
L 343.077245 364.459264 
L 350.193296 365.182086 
L 353.243032 365.442302 
L 354.25961 365.601323 
L 358.325925 365.803714 
L 364.425396 366.309689 
L 371.541447 366.71447 
L 374.591182 366.887947 
L 412.204591 368.391418 
L 421.353799 368.564895 
L 427.45327 368.651634 
L 434.56932 368.752829 
L 444.735107 368.854024 
L 468.116415 369.085327 
L 508.779559 369.172066 
L 513.862452 369.215436 
L 524.028238 369.258805 
L 622.636364 369.36 
L 622.636364 369.36 
" clip-path="url(#p08640c1b81)" style="fill: none; stroke: #ff0000; stroke-width: 1.5; stroke-linecap: square"/>
   </g>
   <g id="line2d_14">
    <path d="M 115.363636 369.36 
L 116.380215 367.495118 
L 117.396794 366.743383 
L 118.413372 365.760344 
L 119.429951 364.386982 
L 120.446529 362.348622 
L 121.463108 360.700587 
L 122.479687 358.373099 
L 123.496265 355.366157 
L 124.512844 351.752045 
L 126.546001 343.02035 
L 127.56258 338.119614 
L 128.579158 331.990079 
L 130.612316 316.984285 
L 131.628894 308.585088 
L 134.67863 278.732521 
L 136.711787 255.732311 
L 140.778102 209.384935 
L 142.811259 189.333841 
L 143.827837 179.619107 
L 146.877573 155.072057 
L 148.910731 145.12602 
L 150.943888 136.394325 
L 151.960466 132.939233 
L 152.977045 130.322616 
L 153.993624 128.2698 
L 156.026781 126.462744 
L 157.043359 126.621765 
L 158.059938 127.3735 
L 159.076517 128.689037 
L 160.093095 130.308159 
L 161.109674 133.054885 
L 162.126253 135.39683 
L 163.142831 138.302576 
L 164.15941 142.278099 
L 165.175988 145.501887 
L 169.242303 161.837675 
L 171.27546 171.451213 
L 172.292039 176.901295 
L 175.341774 190.822855 
L 178.39151 203.775833 
L 180.424668 212.738832 
L 181.441246 216.772181 
L 182.457825 221.354875 
L 184.490982 229.320379 
L 185.507561 233.556118 
L 186.524139 236.96784 
L 190.590454 252.190481 
L 194.656768 264.941069 
L 202.789397 287.984649 
L 204.822554 293.666033 
L 207.87229 300.330456 
L 208.888869 302.788052 
L 212.955183 311.259532 
L 213.971762 313.13887 
L 214.98834 314.729079 
L 217.021498 318.126345 
L 219.054655 321.480241 
L 220.071233 322.752408 
L 223.120969 327.465211 
L 226.170705 331.267257 
L 227.187284 332.59725 
L 228.203862 333.536919 
L 230.237019 335.748756 
L 232.270177 338.17744 
L 233.286755 339.015914 
L 237.35307 343.193827 
L 241.419384 346.750114 
L 243.452541 348.022281 
L 244.46912 348.75956 
L 245.485699 349.222167 
L 246.502277 350.046184 
L 249.552013 351.737589 
L 250.568592 352.50378 
L 253.618328 354.238554 
L 256.668063 355.39507 
L 257.684642 356.04561 
L 260.734378 357.375604 
L 261.750956 357.968318 
L 274.966478 362.218514 
L 275.983057 362.348622 
L 278.016214 362.796772 
L 283.099107 363.62079 
L 285.132265 364.011114 
L 293.264893 365.413389 
L 299.364365 366.309689 
L 303.43068 366.700013 
L 308.513573 367.191533 
L 314.613044 367.466205 
L 317.66278 367.596313 
L 320.712516 367.726421 
L 336.977774 368.333592 
L 344.093824 368.535982 
L 359.342503 368.868481 
L 370.524868 368.969676 
L 389.839862 369.143153 
L 413.22117 369.244348 
L 417.287484 369.273261 
L 622.636364 369.36 
L 622.636364 369.36 
" clip-path="url(#p08640c1b81)" style="fill: none; stroke-dasharray: 1.5,2.475; stroke-dashoffset: 0; stroke: #008000; stroke-width: 1.5"/>
   </g>
   <g id="patch_3">
    <path d="M 90 384.48 
L 90 51.84 
" style="fill: none; stroke: #000000; stroke-width: 0.8; stroke-linejoin: miter; stroke-linecap: square"/>
   </g>
   <g id="patch_4">
    <path d="M 648 384.48 
L 648 51.84 
" style="fill: none; stroke: #000000; stroke-width: 0.8; stroke-linejoin: miter; stroke-linecap: square"/>
   </g>
   <g id="patch_5">
    <path d="M 90 384.48 
L 648 384.48 
" style="fill: none; stroke: #000000; stroke-width: 0.8; stroke-linejoin: miter; stroke-linecap: square"/>
   </g>
   <g id="patch_6">
    <path d="M 90 51.84 
L 648 51.84 
" style="fill: none; stroke: #000000; stroke-width: 0.8; stroke-linejoin: miter; stroke-linecap: square"/>
   </g>
   <g id="text_14">
    <text style="font: 24px 'Times New Roman'; text-anchor: middle" x="369" y="45.84" transform="rotate(-0 369 45.84)">Explore the effect of θ on the E-state</text>
   </g>
   <g id="legend_1">
    <g id="patch_7">
     <path d="M 514.140625 152.674375 
L 634 152.674375 
Q 638 152.674375 638 148.674375 
L 638 65.84 
Q 638 61.84 634 61.84 
L 514.140625 61.84 
Q 510.140625 61.84 510.140625 65.84 
L 510.140625 148.674375 
Q 510.140625 152.674375 514.140625 152.674375 
z
" style="fill: #ffffff; opacity: 0.8; stroke: #cccccc; stroke-linejoin: miter"/>
    </g>
    <g id="line2d_15">
     <path d="M 518.140625 76.84 
L 538.140625 76.84 
L 558.140625 76.84 
" style="fill: none; stroke-dasharray: 5.55,2.4; stroke-dashoffset: 0; stroke: #0000ff; stroke-width: 1.5"/>
    </g>
    <g id="text_15">
     <text style="font: 20px 'Times New Roman'; text-anchor: start" x="574.140625" y="83.84" transform="rotate(-0 574.140625 83.84)">θ=0.01</text>
    </g>
    <g id="line2d_16">
     <path d="M 518.140625 105.118125 
L 538.140625 105.118125 
L 558.140625 105.118125 
" style="fill: none; stroke: #ff0000; stroke-width: 1.5; stroke-linecap: square"/>
    </g>
    <g id="text_16">
     <text style="font: 20px 'Times New Roman'; text-anchor: start" x="574.140625" y="112.118125" transform="rotate(-0 574.140625 112.118125)">θ=0.03</text>
    </g>
    <g id="line2d_17">
     <path d="M 518.140625 133.39625 
L 538.140625 133.39625 
L 558.140625 133.39625 
" style="fill: none; stroke-dasharray: 1.5,2.475; stroke-dashoffset: 0; stroke: #008000; stroke-width: 1.5"/>
    </g>
    <g id="text_17">
     <text style="font: 20px 'Times New Roman'; text-anchor: start" x="574.140625" y="140.39625" transform="rotate(-0 574.140625 140.39625)">θ=0.05</text>
    </g>
   </g>
  </g>
 </g>
 <defs>
  <clipPath id="p08640c1b81">
   <rect x="90" y="51.84" width="558" height="332.64"/>
  </clipPath>
 </defs>
</svg>
