<?xml version="1.0" encoding="utf-8" standalone="no"?>
<!DOCTYPE svg PUBLIC "-//W3C//DTD SVG 1.1//EN"
  "http://www.w3.org/Graphics/SVG/1.1/DTD/svg11.dtd">
<svg xmlns:xlink="http://www.w3.org/1999/xlink" width="720pt" height="432pt" viewBox="0 0 720 432" xmlns="http://www.w3.org/2000/svg" version="1.1">
 <metadata>
  <rdf:RDF xmlns:dc="http://purl.org/dc/elements/1.1/" xmlns:cc="http://creativecommons.org/ns#" xmlns:rdf="http://www.w3.org/1999/02/22-rdf-syntax-ns#">
   <cc:Work>
    <dc:type rdf:resource="http://purl.org/dc/dcmitype/StillImage"/>
    <dc:date>2024-09-08T21:30:17.958433</dc:date>
    <dc:format>image/svg+xml</dc:format>
    <dc:creator>
     <cc:Agent>
      <dc:title>Matplotlib v3.9.2, https://matplotlib.org/</dc:title>
     </cc:Agent>
    </dc:creator>
   </cc:Work>
  </rdf:RDF>
 </metadata>
 <defs>
  <style type="text/css">*{stroke-linejoin: round; stroke-linecap: butt}</style>
 </defs>
 <g id="figure_1">
  <g id="patch_1">
   <path d="M 0 432 
L 720 432 
L 720 0 
L 0 0 
z
" style="fill: #ffffff"/>
  </g>
  <g id="axes_1">
   <g id="patch_2">
    <path d="M 90 384.48 
L 648 384.48 
L 648 51.84 
L 90 51.84 
z
" style="fill: #ffffff"/>
   </g>
   <g id="matplotlib.axis_1">
    <g id="xtick_1">
     <g id="line2d_1">
      <defs>
       <path id="m13c242e32a" d="M 0 0 
L 0 3.5 
" style="stroke: #000000; stroke-width: 0.8"/>
      </defs>
      <g>
       <use xlink:href="#m13c242e32a" x="115.363636" y="384.48" style="stroke: #000000; stroke-width: 0.8"/>
      </g>
     </g>
     <g id="text_1">
      <text style="font: 20px 'Times New Roman'; text-anchor: middle" x="115.363636" y="405.3675" transform="rotate(-0 115.363636 405.3675)">0</text>
     </g>
    </g>
    <g id="xtick_2">
     <g id="line2d_2">
      <g>
       <use xlink:href="#m13c242e32a" x="217.021498" y="384.48" style="stroke: #000000; stroke-width: 0.8"/>
      </g>
     </g>
     <g id="text_2">
      <text style="font: 20px 'Times New Roman'; text-anchor: middle" x="217.021498" y="405.3675" transform="rotate(-0 217.021498 405.3675)">100</text>
     </g>
    </g>
    <g id="xtick_3">
     <g id="line2d_3">
      <g>
       <use xlink:href="#m13c242e32a" x="318.679359" y="384.48" style="stroke: #000000; stroke-width: 0.8"/>
      </g>
     </g>
     <g id="text_3">
      <text style="font: 20px 'Times New Roman'; text-anchor: middle" x="318.679359" y="405.3675" transform="rotate(-0 318.679359 405.3675)">200</text>
     </g>
    </g>
    <g id="xtick_4">
     <g id="line2d_4">
      <g>
       <use xlink:href="#m13c242e32a" x="420.33722" y="384.48" style="stroke: #000000; stroke-width: 0.8"/>
      </g>
     </g>
     <g id="text_4">
      <text style="font: 20px 'Times New Roman'; text-anchor: middle" x="420.33722" y="405.3675" transform="rotate(-0 420.33722 405.3675)">300</text>
     </g>
    </g>
    <g id="xtick_5">
     <g id="line2d_5">
      <g>
       <use xlink:href="#m13c242e32a" x="521.995081" y="384.48" style="stroke: #000000; stroke-width: 0.8"/>
      </g>
     </g>
     <g id="text_5">
      <text style="font: 20px 'Times New Roman'; text-anchor: middle" x="521.995081" y="405.3675" transform="rotate(-0 521.995081 405.3675)">400</text>
     </g>
    </g>
    <g id="xtick_6">
     <g id="line2d_6">
      <g>
       <use xlink:href="#m13c242e32a" x="623.652942" y="384.48" style="stroke: #000000; stroke-width: 0.8"/>
      </g>
     </g>
     <g id="text_6">
      <text style="font: 20px 'Times New Roman'; text-anchor: middle" x="623.652942" y="405.3675" transform="rotate(-0 623.652942 405.3675)">500</text>
     </g>
    </g>
    <g id="text_7">
     <text style="font: 20px 'Times New Roman'; text-anchor: middle" x="369" y="427.533125" transform="rotate(-0 369 427.533125)">Time (t)</text>
    </g>
   </g>
   <g id="matplotlib.axis_2">
    <g id="ytick_1">
     <g id="line2d_7">
      <defs>
       <path id="m3587bf9498" d="M 0 0 
L -3.5 0 
" style="stroke: #000000; stroke-width: 0.8"/>
      </defs>
      <g>
       <use xlink:href="#m3587bf9498" x="90" y="368.672449" style="stroke: #000000; stroke-width: 0.8"/>
      </g>
     </g>
     <g id="text_8">
      <text style="font: 20px 'Times New Roman'; text-anchor: end" x="83" y="375.616199" transform="rotate(-0 83 375.616199)">0.0</text>
     </g>
    </g>
    <g id="ytick_2">
     <g id="line2d_8">
      <g>
       <use xlink:href="#m3587bf9498" x="90" y="291.81958" style="stroke: #000000; stroke-width: 0.8"/>
      </g>
     </g>
     <g id="text_9">
      <text style="font: 20px 'Times New Roman'; text-anchor: end" x="83" y="298.76333" transform="rotate(-0 83 298.76333)">0.1</text>
     </g>
    </g>
    <g id="ytick_3">
     <g id="line2d_9">
      <g>
       <use xlink:href="#m3587bf9498" x="90" y="214.96671" style="stroke: #000000; stroke-width: 0.8"/>
      </g>
     </g>
     <g id="text_10">
      <text style="font: 20px 'Times New Roman'; text-anchor: end" x="83" y="221.91046" transform="rotate(-0 83 221.91046)">0.2</text>
     </g>
    </g>
    <g id="ytick_4">
     <g id="line2d_10">
      <g>
       <use xlink:href="#m3587bf9498" x="90" y="138.11384" style="stroke: #000000; stroke-width: 0.8"/>
      </g>
     </g>
     <g id="text_11">
      <text style="font: 20px 'Times New Roman'; text-anchor: end" x="83" y="145.05759" transform="rotate(-0 83 145.05759)">0.3</text>
     </g>
    </g>
    <g id="ytick_5">
     <g id="line2d_11">
      <g>
       <use xlink:href="#m3587bf9498" x="90" y="61.26097" style="stroke: #000000; stroke-width: 0.8"/>
      </g>
     </g>
     <g id="text_12">
      <text style="font: 20px 'Times New Roman'; text-anchor: end" x="83" y="68.20472" transform="rotate(-0 83 68.20472)">0.4</text>
     </g>
    </g>
    <g id="text_13">
     <text style="font: 20px 'Times New Roman'; text-anchor: middle" x="49.684375" y="218.16" transform="rotate(-90 49.684375 218.16)">Density</text>
    </g>
   </g>
   <g id="line2d_12">
    <path d="M 115.363636 364.829806 
L 116.380215 366.57924 
L 118.413372 365.723622 
L 120.446529 364.317963 
L 121.463108 363.340113 
L 124.512844 359.795408 
L 125.529422 358.038335 
L 126.546001 355.822894 
L 127.56258 353.271318 
L 129.595737 346.808343 
L 131.628894 339.275845 
L 132.645473 334.860243 
L 134.67863 324.302522 
L 135.695209 318.542377 
L 137.728366 304.608019 
L 139.761523 288.870752 
L 142.811259 264.180049 
L 144.844416 247.587162 
L 147.894152 223.186758 
L 151.960466 192.460889 
L 152.977045 185.08118 
L 153.993624 178.816831 
L 156.026781 165.264446 
L 158.059938 152.476006 
L 160.093095 141.734939 
L 162.126253 132.353694 
L 163.142831 127.69363 
L 164.15941 122.315457 
L 168.225724 106.776815 
L 169.242303 103.675198 
L 170.258881 100.054099 
L 172.292039 93.545287 
L 174.325196 88.656039 
L 175.341774 85.737769 
L 176.358353 83.415376 
L 177.374932 81.41384 
L 178.39151 79.809555 
L 179.408089 77.960808 
L 180.424668 76.509313 
L 181.441246 75.271722 
L 182.457825 73.606322 
L 184.490982 71.513112 
L 185.507561 70.244964 
L 186.524139 69.358787 
L 187.540718 68.090639 
L 189.573875 67.494762 
L 190.590454 67.387809 
L 191.607032 66.96 
L 192.623611 67.066952 
L 193.640189 67.357251 
L 194.656768 67.051673 
L 195.673347 67.311415 
L 196.689925 68.014244 
L 198.723083 68.930978 
L 199.739661 69.205998 
L 200.75624 69.862991 
L 201.772818 70.000501 
L 202.789397 71.008909 
L 203.805976 71.528391 
L 205.839133 72.032595 
L 206.855711 72.827098 
L 207.87229 73.850784 
L 208.888869 74.354988 
L 210.922026 76.325966 
L 211.938604 76.952401 
L 212.955183 77.792741 
L 213.971762 79.015053 
L 216.004919 81.047146 
L 217.021498 82.437526 
L 218.038076 84.041811 
L 219.054655 85.034939 
L 220.071233 86.348925 
L 221.087812 87.403169 
L 224.137548 91.497914 
L 225.154126 92.827179 
L 226.170705 93.942538 
L 228.203862 96.799693 
L 230.237019 100.130493 
L 231.253598 101.597268 
L 233.286755 105.187809 
L 234.303334 106.83793 
L 235.319913 108.258868 
L 236.336491 110.0465 
L 238.369648 112.613355 
L 239.386227 113.835667 
L 240.402806 115.669135 
L 244.46912 122.254341 
L 245.485699 123.950299 
L 247.518856 127.051916 
L 249.552013 130.33688 
L 250.568592 132.063395 
L 251.58517 133.453775 
L 256.668063 141.750218 
L 257.684642 143.446176 
L 258.701221 144.775441 
L 259.717799 146.501956 
L 260.734378 148.793791 
L 261.750956 150.443913 
L 262.767535 151.681504 
L 265.817271 156.616589 
L 266.83385 157.900016 
L 267.850428 159.825158 
L 272.933321 167.678513 
L 273.9499 169.741164 
L 275.983057 173.240032 
L 278.016214 176.708343 
L 279.032793 177.900097 
L 283.099107 184.454745 
L 288.182 192.613678 
L 289.198579 193.759596 
L 291.231736 196.448682 
L 292.248315 198.266871 
L 294.281472 201.292094 
L 296.314629 203.904786 
L 297.331208 205.310445 
L 298.347786 207.082797 
L 302.414101 212.919337 
L 304.447258 216.127906 
L 305.463837 217.258545 
L 307.496994 220.054584 
L 309.530151 223.186758 
L 314.613044 230.291447 
L 315.629623 231.49848 
L 316.646201 233.072207 
L 318.679359 235.623783 
L 319.695937 236.586354 
L 321.729095 239.00042 
L 323.762252 241.50616 
L 325.795409 243.981342 
L 327.828566 246.166225 
L 328.845145 247.510768 
L 329.861723 248.656686 
L 330.878302 249.420631 
L 332.911459 251.51384 
L 333.928038 252.812546 
L 336.977774 255.929442 
L 337.994352 256.815618 
L 340.02751 258.786597 
L 341.044088 259.749167 
L 342.060667 260.54367 
L 346.126981 264.745368 
L 348.160138 266.456605 
L 350.193296 268.366467 
L 351.209874 269.222086 
L 352.226453 269.833242 
L 354.25961 272.048682 
L 356.292767 274.218286 
L 357.309346 275.440598 
L 359.342503 276.999046 
L 361.37566 278.526936 
L 365.441975 281.750784 
L 366.458553 282.423056 
L 368.491711 284.103735 
L 376.62434 290.230574 
L 380.690654 292.980776 
L 381.707233 293.928068 
L 383.74039 295.104543 
L 385.773547 296.556039 
L 388.823283 298.328391 
L 389.839862 298.832595 
L 400.005648 305.555311 
L 403.055383 306.991528 
L 405.088541 308.412466 
L 407.121698 309.711172 
L 408.138277 310.108424 
L 410.171434 311.254341 
L 411.188012 311.804382 
L 412.204591 312.201633 
L 418.304063 315.654665 
L 420.33722 317.029766 
L 422.370377 318.129846 
L 423.386956 318.664608 
L 425.420113 319.520226 
L 426.436692 319.932757 
L 429.486427 321.521762 
L 433.552742 323.401067 
L 437.619056 325.142862 
L 441.685371 326.609636 
L 446.768264 329.023703 
L 449.818 330.123783 
L 450.834578 330.337688 
L 452.867735 331.330816 
L 454.900893 332.033646 
L 459.983786 333.92823 
L 462.016943 334.569943 
L 464.0501 335.150542 
L 467.099836 336.28118 
L 468.116415 336.770105 
L 474.215886 338.328553 
L 476.249044 338.878593 
L 481.331937 340.45232 
L 482.348515 340.849572 
L 485.398251 341.598238 
L 489.464565 342.835829 
L 499.630352 345.570752 
L 500.64693 345.708262 
L 502.680087 346.319418 
L 510.812716 348.183444 
L 517.928767 349.665497 
L 519.961924 350.169701 
L 521.995081 350.444721 
L 523.01166 350.719741 
L 529.111131 351.682312 
L 532.160867 352.415699 
L 545.376389 354.508909 
L 547.409546 354.707534 
L 550.459282 355.104786 
L 552.492439 355.303411 
L 554.525597 355.654826 
L 556.558754 355.899289 
L 559.60849 356.097914 
L 563.674804 356.617397 
L 566.72454 357.228553 
L 569.774276 357.579968 
L 573.84059 358.175845 
L 576.890326 358.435586 
L 579.940062 358.741164 
L 580.956641 358.771722 
L 584.006376 359.21481 
L 592.139005 359.963476 
L 600.271634 360.681584 
L 601.288213 360.895489 
L 604.337949 361.124673 
L 607.387684 361.384414 
L 612.470578 361.705271 
L 622.636364 362.423379 
L 622.636364 362.423379 
" clip-path="url(#p05a05f86d3)" style="fill: none; stroke-dasharray: 5.55,2.4; stroke-dashoffset: 0; stroke: #0000ff; stroke-width: 1.5"/>
   </g>
   <g id="line2d_13">
    <path d="M 115.363636 364.829806 
L 116.380215 366.487567 
L 117.396794 366.151431 
L 119.429951 365.05135 
L 120.446529 364.195732 
L 122.479687 362.087243 
L 124.512844 359.306483 
L 125.529422 357.503573 
L 127.56258 352.96574 
L 128.579158 350.139143 
L 129.595737 346.609717 
L 130.612316 342.621924 
L 134.67863 324.791447 
L 135.695209 319.321601 
L 139.761523 294.325319 
L 140.778102 287.984576 
L 141.79468 280.497914 
L 142.811259 274.355796 
L 145.860995 252.522247 
L 148.910731 232.017963 
L 153.993624 199.901714 
L 156.026781 188.992579 
L 157.043359 183.079644 
L 159.076517 173.759515 
L 161.109674 165.21861 
L 162.126253 160.512708 
L 164.15941 153.285788 
L 165.175988 150.107777 
L 166.192567 146.379725 
L 168.225724 139.687567 
L 170.258881 135.042781 
L 171.27546 131.681423 
L 174.325196 124.821196 
L 175.341774 123.782231 
L 177.374932 120.313921 
L 179.408089 118.037365 
L 181.441246 116.096944 
L 182.457825 114.813517 
L 183.474403 114.232918 
L 184.490982 113.51481 
L 185.507561 113.316184 
L 186.524139 113.805109 
L 187.540718 113.300905 
L 189.573875 113.117559 
L 190.590454 113.667599 
L 191.607032 113.896783 
L 192.623611 114.35515 
L 193.640189 115.531625 
L 194.656768 115.806645 
L 195.673347 116.84561 
L 196.689925 117.380372 
L 198.723083 119.62637 
L 201.772818 123.583605 
L 203.805976 125.096217 
L 204.822554 126.57827 
L 205.839133 127.83114 
L 207.87229 129.572935 
L 208.888869 130.642458 
L 209.905447 132.537041 
L 210.922026 133.484333 
L 211.938604 134.844155 
L 212.955183 136.463719 
L 213.971762 138.618044 
L 214.98834 140.329281 
L 216.004919 141.796055 
L 217.021498 143.644802 
L 219.054655 146.578351 
L 221.087812 149.084091 
L 222.104391 151.1773 
L 223.120969 152.873258 
L 224.137548 154.340032 
L 225.154126 156.524915 
L 226.170705 158.281989 
L 228.203862 161.337769 
L 229.220441 162.98789 
L 230.237019 164.92831 
L 231.253598 166.486758 
L 236.336491 176.46388 
L 238.369648 180.008585 
L 239.386227 182.0254 
L 240.402806 183.247712 
L 242.435963 186.349329 
L 243.452541 187.495247 
L 245.485699 191.208019 
L 246.502277 193.178998 
L 247.518856 194.569378 
L 248.535435 196.20422 
L 251.58517 201.994923 
L 252.601749 203.43114 
L 255.651485 208.641245 
L 258.701221 214.233323 
L 260.734378 217.778027 
L 262.767535 220.726855 
L 265.817271 225.753614 
L 266.83385 227.816265 
L 267.850428 229.191366 
L 269.883585 233.224996 
L 271.916743 236.311334 
L 273.9499 239.810202 
L 276.999636 244.103573 
L 279.032793 247.220469 
L 281.06595 249.787324 
L 282.082529 251.330493 
L 283.099107 252.476411 
L 284.115686 253.943185 
L 286.148843 256.448925 
L 289.198579 260.54367 
L 292.248315 264.668973 
L 296.314629 269.145691 
L 297.331208 270.627745 
L 298.347786 271.788941 
L 299.364365 273.240437 
L 300.380944 274.141892 
L 301.397522 275.532272 
L 305.463837 280.345125 
L 307.496994 282.316103 
L 312.579887 287.64844 
L 313.596466 288.442943 
L 315.629623 290.688941 
L 319.695937 294.753129 
L 320.712516 295.440679 
L 322.745673 297.197753 
L 323.762252 298.267276 
L 325.795409 299.993791 
L 330.878302 304.669135 
L 331.894881 305.448359 
L 332.911459 306.380372 
L 336.977774 309.313921 
L 339.010931 311.162668 
L 340.02751 311.81966 
L 343.077245 314.203169 
L 344.093824 314.73793 
L 345.110403 315.486597 
L 346.126981 316.067195 
L 350.193296 319.061859 
L 352.226453 320.513355 
L 354.25961 321.735667 
L 357.309346 323.828876 
L 358.325925 324.562264 
L 367.475132 329.604301 
L 370.524868 331.14747 
L 372.558025 332.232272 
L 373.574604 332.81287 
L 374.591182 333.240679 
L 378.657497 335.364446 
L 380.690654 336.051997 
L 382.723811 337.060404 
L 390.85644 340.345368 
L 392.889597 341.216265 
L 393.906176 341.70519 
L 395.939333 342.408019 
L 400.005648 343.981746 
L 407.121698 346.258302 
L 410.171434 346.99169 
L 411.188012 347.40422 
L 412.204591 347.618124 
L 416.270905 348.916831 
L 418.304063 349.512708 
L 419.320641 349.986354 
L 420.33722 350.18498 
L 423.386956 351.30034 
L 425.420113 351.773985 
L 427.45327 352.430978 
L 429.486427 353.164365 
L 435.585899 354.249167 
L 440.668792 355.379806 
L 446.768264 356.372935 
L 447.784842 356.495166 
L 454.900893 358.359192 
L 457.950629 358.832838 
L 459.983786 359.062021 
L 461.000364 359.382878 
L 463.033522 359.642619 
L 475.232465 361.185788 
L 504.713245 363.767922 
L 508.779559 364.058222 
L 513.862452 364.440194 
L 519.961924 364.730493 
L 540.293496 365.998642 
L 542.326653 366.227825 
L 545.376389 366.411172 
L 557.575332 367.068165 
L 564.691383 367.28207 
L 594.172163 368.076572 
L 606.371106 368.183525 
L 622.636364 368.397429 
L 622.636364 368.397429 
" clip-path="url(#p05a05f86d3)" style="fill: none; stroke: #ff0000; stroke-width: 1.5; stroke-linecap: square"/>
   </g>
   <g id="line2d_14">
    <path d="M 115.363636 364.829806 
L 116.380215 366.701471 
L 118.413372 366.044479 
L 119.429951 365.586112 
L 121.463108 364.317963 
L 124.512844 361.689992 
L 126.546001 358.787001 
L 127.56258 357.289669 
L 128.579158 355.18118 
L 129.595737 352.797672 
L 131.628894 346.900016 
L 133.662051 340.116184 
L 135.695209 332.094762 
L 137.728366 322.132918 
L 139.761523 310.414002 
L 142.811259 291.284818 
L 148.910731 252.522247 
L 152.977045 229.130251 
L 155.010202 218.755877 
L 156.026781 213.820792 
L 158.059938 205.356281 
L 160.093095 197.762668 
L 161.109674 194.294357 
L 162.126253 191.299693 
L 163.142831 188.83979 
L 164.15941 185.340922 
L 165.175988 183.568569 
L 166.192567 181.33785 
L 167.209146 179.932191 
L 168.225724 177.85426 
L 169.242303 176.036071 
L 170.258881 175.379078 
L 171.27546 174.340113 
L 172.292039 173.499774 
L 173.308617 173.071964 
L 175.341774 171.971884 
L 176.358353 171.498238 
L 177.374932 171.284333 
L 178.39151 171.33017 
L 179.408089 171.834373 
L 180.424668 172.124673 
L 181.441246 173.117801 
L 182.457825 173.759515 
L 183.474403 175.088779 
L 184.490982 175.791609 
L 186.524139 176.89169 
L 188.557296 178.511253 
L 189.573875 179.51966 
L 190.590454 181.001714 
L 191.607032 181.857332 
L 192.623611 182.86574 
L 193.640189 184.454745 
L 195.673347 186.884091 
L 199.739661 192.598399 
L 200.75624 194.584656 
L 203.805976 199.382231 
L 204.822554 201.582393 
L 205.839133 203.370024 
L 206.855711 205.463234 
L 208.888869 208.442619 
L 209.905447 210.291366 
L 210.922026 211.834535 
L 211.938604 213.591609 
L 214.98834 219.626774 
L 216.004919 221.429685 
L 217.021498 222.774228 
L 219.054655 226.792579 
L 220.071233 228.595489 
L 222.104391 232.88886 
L 223.120969 234.401471 
L 224.137548 236.158545 
L 227.187284 240.299127 
L 229.220441 243.645206 
L 233.286755 250.092902 
L 235.319913 253.31675 
L 237.35307 256.983686 
L 238.369648 258.160162 
L 239.386227 259.917235 
L 241.419384 263.064689 
L 243.452541 266.532999 
L 244.46912 267.785869 
L 245.485699 269.252643 
L 248.535435 274.44747 
L 249.552013 275.623945 
L 251.58517 278.389426 
L 252.601749 280.054826 
L 254.634906 282.743913 
L 256.668063 285.173258 
L 262.767535 293.698884 
L 265.817271 296.922732 
L 267.850428 299.795166 
L 268.867007 300.727179 
L 270.900164 302.942619 
L 271.916743 303.844074 
L 272.933321 304.989992 
L 273.9499 306.456766 
L 275.983057 308.733323 
L 279.032793 311.758545 
L 280.049371 312.476653 
L 281.06595 313.378108 
L 282.082529 314.554584 
L 284.115686 316.235263 
L 288.182 320.02443 
L 289.198579 320.605028 
L 291.231736 322.39266 
L 293.264893 324.287243 
L 296.314629 327.083282 
L 297.331208 327.602765 
L 298.347786 328.305594 
L 299.364365 329.268165 
L 305.463837 333.989345 
L 306.480415 334.417154 
L 308.513573 335.715861 
L 309.530151 336.220065 
L 310.54673 336.968731 
L 311.563308 337.549329 
L 313.596466 338.466063 
L 314.613044 339.184171 
L 315.629623 339.749491 
L 316.646201 340.498157 
L 319.695937 342.132999 
L 321.729095 343.324753 
L 323.762252 344.165093 
L 324.77883 344.531787 
L 325.795409 345.051269 
L 326.811988 345.723541 
L 328.845145 346.441649 
L 335.961195 349.650218 
L 336.977774 350.062749 
L 337.994352 350.353048 
L 342.060667 351.942053 
L 345.110403 352.736556 
L 347.14356 353.439386 
L 349.176717 354.096378 
L 352.226453 355.074228 
L 357.309346 356.250703 
L 361.37566 357.228553 
L 362.392239 357.54941 
L 384.756968 361.613597 
L 385.773547 361.888618 
L 396.955912 363.38595 
L 397.97249 363.355392 
L 403.055383 363.874875 
L 405.088541 364.012385 
L 408.138277 364.379078 
L 410.171434 364.50131 
L 411.188012 364.715214 
L 417.287484 365.18886 
L 425.420113 365.906968 
L 426.436692 365.89169 
L 429.486427 366.151431 
L 436.602478 366.563961 
L 439.652214 366.884818 
L 443.718528 367.037607 
L 447.784842 367.266791 
L 461.000364 367.755715 
L 467.099836 367.954341 
L 476.249044 368.275198 
L 510.812716 368.886354 
L 516.912188 369.069701 
L 541.310075 369.176653 
L 543.343232 369.237769 
L 614.503735 369.344721 
L 622.636364 369.36 
L 622.636364 369.36 
" clip-path="url(#p05a05f86d3)" style="fill: none; stroke-dasharray: 1.5,2.475; stroke-dashoffset: 0; stroke: #008000; stroke-width: 1.5"/>
   </g>
   <g id="patch_3">
    <path d="M 90 384.48 
L 90 51.84 
" style="fill: none; stroke: #000000; stroke-width: 0.8; stroke-linejoin: miter; stroke-linecap: square"/>
   </g>
   <g id="patch_4">
    <path d="M 648 384.48 
L 648 51.84 
" style="fill: none; stroke: #000000; stroke-width: 0.8; stroke-linejoin: miter; stroke-linecap: square"/>
   </g>
   <g id="patch_5">
    <path d="M 90 384.48 
L 648 384.48 
" style="fill: none; stroke: #000000; stroke-width: 0.8; stroke-linejoin: miter; stroke-linecap: square"/>
   </g>
   <g id="patch_6">
    <path d="M 90 51.84 
L 648 51.84 
" style="fill: none; stroke: #000000; stroke-width: 0.8; stroke-linejoin: miter; stroke-linecap: square"/>
   </g>
   <g id="text_14">
    <text style="font: 24px 'Times New Roman'; text-anchor: middle" x="369" y="45.84" transform="rotate(-0 369 45.84)">Explore the effect of ε on the I-state</text>
   </g>
   <g id="legend_1">
    <g id="patch_7">
     <path d="M 515.321875 152.674375 
L 634 152.674375 
Q 638 152.674375 638 148.674375 
L 638 65.84 
Q 638 61.84 634 61.84 
L 515.321875 61.84 
Q 511.321875 61.84 511.321875 65.84 
L 511.321875 148.674375 
Q 511.321875 152.674375 515.321875 152.674375 
z
" style="fill: #ffffff; opacity: 0.8; stroke: #cccccc; stroke-linejoin: miter"/>
    </g>
    <g id="line2d_15">
     <path d="M 519.321875 76.84 
L 539.321875 76.84 
L 559.321875 76.84 
" style="fill: none; stroke-dasharray: 5.55,2.4; stroke-dashoffset: 0; stroke: #0000ff; stroke-width: 1.5"/>
    </g>
    <g id="text_15">
     <text style="font: 20px 'Times New Roman'; text-anchor: start" x="575.321875" y="83.84" transform="rotate(-0 575.321875 83.84)">ε=0.01</text>
    </g>
    <g id="line2d_16">
     <path d="M 519.321875 105.118125 
L 539.321875 105.118125 
L 559.321875 105.118125 
" style="fill: none; stroke: #ff0000; stroke-width: 1.5; stroke-linecap: square"/>
    </g>
    <g id="text_16">
     <text style="font: 20px 'Times New Roman'; text-anchor: start" x="575.321875" y="112.118125" transform="rotate(-0 575.321875 112.118125)">ε=0.02</text>
    </g>
    <g id="line2d_17">
     <path d="M 519.321875 133.39625 
L 539.321875 133.39625 
L 559.321875 133.39625 
" style="fill: none; stroke-dasharray: 1.5,2.475; stroke-dashoffset: 0; stroke: #008000; stroke-width: 1.5"/>
    </g>
    <g id="text_17">
     <text style="font: 20px 'Times New Roman'; text-anchor: start" x="575.321875" y="140.39625" transform="rotate(-0 575.321875 140.39625)">ε=0.04</text>
    </g>
   </g>
  </g>
 </g>
 <defs>
  <clipPath id="p05a05f86d3">
   <rect x="90" y="51.84" width="558" height="332.64"/>
  </clipPath>
 </defs>
</svg>
