<?xml version="1.0" encoding="utf-8" standalone="no"?>
<!DOCTYPE svg PUBLIC "-//W3C//DTD SVG 1.1//EN"
  "http://www.w3.org/Graphics/SVG/1.1/DTD/svg11.dtd">
<svg xmlns:xlink="http://www.w3.org/1999/xlink" width="720pt" height="432pt" viewBox="0 0 720 432" xmlns="http://www.w3.org/2000/svg" version="1.1">
 <metadata>
  <rdf:RDF xmlns:dc="http://purl.org/dc/elements/1.1/" xmlns:cc="http://creativecommons.org/ns#" xmlns:rdf="http://www.w3.org/1999/02/22-rdf-syntax-ns#">
   <cc:Work>
    <dc:type rdf:resource="http://purl.org/dc/dcmitype/StillImage"/>
    <dc:date>2024-09-08T21:29:52.851597</dc:date>
    <dc:format>image/svg+xml</dc:format>
    <dc:creator>
     <cc:Agent>
      <dc:title>Matplotlib v3.9.2, https://matplotlib.org/</dc:title>
     </cc:Agent>
    </dc:creator>
   </cc:Work>
  </rdf:RDF>
 </metadata>
 <defs>
  <style type="text/css">*{stroke-linejoin: round; stroke-linecap: butt}</style>
 </defs>
 <g id="figure_1">
  <g id="patch_1">
   <path d="M 0 432 
L 720 432 
L 720 0 
L 0 0 
z
" style="fill: #ffffff"/>
  </g>
  <g id="axes_1">
   <g id="patch_2">
    <path d="M 90 384.48 
L 648 384.48 
L 648 51.84 
L 90 51.84 
z
" style="fill: #ffffff"/>
   </g>
   <g id="matplotlib.axis_1">
    <g id="xtick_1">
     <g id="line2d_1">
      <defs>
       <path id="m5674f2e328" d="M 0 0 
L 0 3.5 
" style="stroke: #000000; stroke-width: 0.8"/>
      </defs>
      <g>
       <use xlink:href="#m5674f2e328" x="115.363636" y="384.48" style="stroke: #000000; stroke-width: 0.8"/>
      </g>
     </g>
     <g id="text_1">
      <text style="font: 20px 'Times New Roman'; text-anchor: middle" x="115.363636" y="405.3675" transform="rotate(-0 115.363636 405.3675)">0</text>
     </g>
    </g>
    <g id="xtick_2">
     <g id="line2d_2">
      <g>
       <use xlink:href="#m5674f2e328" x="217.021498" y="384.48" style="stroke: #000000; stroke-width: 0.8"/>
      </g>
     </g>
     <g id="text_2">
      <text style="font: 20px 'Times New Roman'; text-anchor: middle" x="217.021498" y="405.3675" transform="rotate(-0 217.021498 405.3675)">100</text>
     </g>
    </g>
    <g id="xtick_3">
     <g id="line2d_3">
      <g>
       <use xlink:href="#m5674f2e328" x="318.679359" y="384.48" style="stroke: #000000; stroke-width: 0.8"/>
      </g>
     </g>
     <g id="text_3">
      <text style="font: 20px 'Times New Roman'; text-anchor: middle" x="318.679359" y="405.3675" transform="rotate(-0 318.679359 405.3675)">200</text>
     </g>
    </g>
    <g id="xtick_4">
     <g id="line2d_4">
      <g>
       <use xlink:href="#m5674f2e328" x="420.33722" y="384.48" style="stroke: #000000; stroke-width: 0.8"/>
      </g>
     </g>
     <g id="text_4">
      <text style="font: 20px 'Times New Roman'; text-anchor: middle" x="420.33722" y="405.3675" transform="rotate(-0 420.33722 405.3675)">300</text>
     </g>
    </g>
    <g id="xtick_5">
     <g id="line2d_5">
      <g>
       <use xlink:href="#m5674f2e328" x="521.995081" y="384.48" style="stroke: #000000; stroke-width: 0.8"/>
      </g>
     </g>
     <g id="text_5">
      <text style="font: 20px 'Times New Roman'; text-anchor: middle" x="521.995081" y="405.3675" transform="rotate(-0 521.995081 405.3675)">400</text>
     </g>
    </g>
    <g id="xtick_6">
     <g id="line2d_6">
      <g>
       <use xlink:href="#m5674f2e328" x="623.652942" y="384.48" style="stroke: #000000; stroke-width: 0.8"/>
      </g>
     </g>
     <g id="text_6">
      <text style="font: 20px 'Times New Roman'; text-anchor: middle" x="623.652942" y="405.3675" transform="rotate(-0 623.652942 405.3675)">500</text>
     </g>
    </g>
    <g id="text_7">
     <text style="font: 20px 'Times New Roman'; text-anchor: middle" x="369" y="427.533125" transform="rotate(-0 369 427.533125)">Time (t)</text>
    </g>
   </g>
   <g id="matplotlib.axis_2">
    <g id="ytick_1">
     <g id="line2d_7">
      <defs>
       <path id="mdc1d86510e" d="M 0 0 
L -3.5 0 
" style="stroke: #000000; stroke-width: 0.8"/>
      </defs>
      <g>
       <use xlink:href="#mdc1d86510e" x="90" y="369.36" style="stroke: #000000; stroke-width: 0.8"/>
      </g>
     </g>
     <g id="text_8">
      <text style="font: 20px 'Times New Roman'; text-anchor: end" x="83" y="376.30375" transform="rotate(-0 83 376.30375)">0.0</text>
     </g>
    </g>
    <g id="ytick_2">
     <g id="line2d_8">
      <g>
       <use xlink:href="#mdc1d86510e" x="90" y="308.603394" style="stroke: #000000; stroke-width: 0.8"/>
      </g>
     </g>
     <g id="text_9">
      <text style="font: 20px 'Times New Roman'; text-anchor: end" x="83" y="315.547144" transform="rotate(-0 83 315.547144)">0.2</text>
     </g>
    </g>
    <g id="ytick_3">
     <g id="line2d_9">
      <g>
       <use xlink:href="#mdc1d86510e" x="90" y="247.846789" style="stroke: #000000; stroke-width: 0.8"/>
      </g>
     </g>
     <g id="text_10">
      <text style="font: 20px 'Times New Roman'; text-anchor: end" x="83" y="254.790539" transform="rotate(-0 83 254.790539)">0.4</text>
     </g>
    </g>
    <g id="ytick_4">
     <g id="line2d_10">
      <g>
       <use xlink:href="#mdc1d86510e" x="90" y="187.090183" style="stroke: #000000; stroke-width: 0.8"/>
      </g>
     </g>
     <g id="text_11">
      <text style="font: 20px 'Times New Roman'; text-anchor: end" x="83" y="194.033933" transform="rotate(-0 83 194.033933)">0.6</text>
     </g>
    </g>
    <g id="ytick_5">
     <g id="line2d_11">
      <g>
       <use xlink:href="#mdc1d86510e" x="90" y="126.333578" style="stroke: #000000; stroke-width: 0.8"/>
      </g>
     </g>
     <g id="text_12">
      <text style="font: 20px 'Times New Roman'; text-anchor: end" x="83" y="133.277328" transform="rotate(-0 83 133.277328)">0.8</text>
     </g>
    </g>
    <g id="ytick_6">
     <g id="line2d_12">
      <g>
       <use xlink:href="#mdc1d86510e" x="90" y="65.576972" style="stroke: #000000; stroke-width: 0.8"/>
      </g>
     </g>
     <g id="text_13">
      <text style="font: 20px 'Times New Roman'; text-anchor: end" x="83" y="72.520722" transform="rotate(-0 83 72.520722)">1.0</text>
     </g>
    </g>
    <g id="text_14">
     <text style="font: 20px 'Times New Roman'; text-anchor: middle" x="49.684375" y="218.16" transform="rotate(-90 49.684375 218.16)">Density</text>
    </g>
   </g>
   <g id="line2d_13">
    <path d="M 115.363636 369.36 
L 123.496265 369.070108 
L 127.56258 368.399732 
L 130.612316 367.602528 
L 133.662051 366.291973 
L 134.67863 365.736346 
L 136.711787 364.268766 
L 139.761523 361.840917 
L 141.79468 359.787513 
L 143.827837 357.432138 
L 146.877573 353.434039 
L 150.943888 347.171156 
L 153.993624 341.584689 
L 158.059938 333.673043 
L 161.109674 327.198781 
L 166.192567 316.883445 
L 169.242303 310.258197 
L 170.258881 308.379936 
L 172.292039 303.904722 
L 175.341774 297.780747 
L 177.374932 293.311573 
L 182.457825 283.026434 
L 193.640189 261.453611 
L 200.75624 248.450731 
L 204.822554 241.523512 
L 205.839133 240.055932 
L 209.905447 233.291777 
L 212.955183 228.64142 
L 216.004919 223.93067 
L 219.054655 219.262195 
L 223.120969 213.506624 
L 226.170705 209.279027 
L 230.237019 203.662363 
L 233.286755 199.428726 
L 237.35307 194.162349 
L 240.402806 190.599088 
L 242.435963 188.135003 
L 247.518856 182.312999 
L 249.552013 180.132767 
L 251.58517 177.874022 
L 257.684642 171.18838 
L 259.717799 169.243685 
L 260.734378 168.011643 
L 269.883585 159.496055 
L 272.933321 156.687723 
L 274.966478 154.62224 
L 278.016214 151.825986 
L 280.049371 150.261775 
L 284.115686 146.740791 
L 288.182 143.461384 
L 291.231736 141.365704 
L 293.264893 139.741099 
L 295.298051 138.285598 
L 297.331208 136.884451 
L 299.364365 135.338359 
L 304.447258 131.678468 
L 305.463837 131.116801 
L 312.579887 126.212789 
L 317.66278 122.981697 
L 329.861723 116.428922 
L 331.894881 115.553206 
L 336.977774 113.040805 
L 342.060667 110.975322 
L 346.126981 109.133298 
L 349.176717 107.96165 
L 351.209874 107.170485 
L 352.226453 106.862474 
L 357.309346 104.513139 
L 361.37566 103.13011 
L 369.508289 100.358015 
L 371.541447 99.66952 
L 374.591182 98.715291 
L 376.62434 98.038876 
L 380.690654 96.830991 
L 381.707233 96.438429 
L 384.756968 95.623106 
L 387.806704 94.825902 
L 391.873019 93.877713 
L 396.955912 92.392015 
L 402.038805 91.159972 
L 404.071962 90.670779 
L 407.121698 89.837338 
L 409.154855 89.468933 
L 411.188012 88.985779 
L 413.22117 88.587177 
L 424.403534 86.002304 
L 436.602478 83.701283 
L 455.917471 80.584941 
L 459.983786 79.980998 
L 470.149572 78.622128 
L 493.53088 75.952702 
L 507.762981 74.521359 
L 517.928767 73.693958 
L 520.978502 73.440302 
L 527.077974 73.017542 
L 539.276917 72.111629 
L 546.392968 71.743224 
L 571.807433 70.426629 
L 574.857169 70.293762 
L 581.973219 70.015949 
L 590.105848 69.677741 
L 602.304791 69.224784 
L 606.371106 69.067759 
L 618.570049 68.759748 
L 621.619785 68.657078 
L 622.636364 68.63896 
L 622.636364 68.63896 
" clip-path="url(#p7f63460106)" style="fill: none; stroke-dasharray: 5.55,2.4; stroke-dashoffset: 0; stroke: #0000ff; stroke-width: 1.5"/>
   </g>
   <g id="line2d_14">
    <path d="M 115.363636 369.36 
L 122.479687 368.991595 
L 126.546001 368.429929 
L 128.579158 367.970932 
L 131.628894 366.84156 
L 134.67863 365.235073 
L 135.695209 364.552618 
L 138.744944 361.961706 
L 141.79468 358.55547 
L 142.811259 357.335507 
L 144.844416 354.545293 
L 146.877573 351.410832 
L 149.927309 346.174651 
L 153.993624 338.728041 
L 158.059938 330.152059 
L 161.109674 323.12217 
L 163.142831 318.314788 
L 169.242303 303.626909 
L 172.292039 296.995621 
L 176.358353 287.417095 
L 178.39151 282.700305 
L 184.490982 268.761314 
L 187.540718 261.894489 
L 191.607032 252.835353 
L 192.623611 250.6672 
L 193.640189 248.166878 
L 197.706504 239.518423 
L 199.739661 235.121722 
L 201.772818 230.912244 
L 217.021498 202.478636 
L 221.087812 196.058728 
L 222.104391 194.186506 
L 228.203862 184.438876 
L 231.253598 179.957623 
L 237.35307 171.091749 
L 239.386227 168.223023 
L 241.419384 165.686464 
L 244.46912 161.603814 
L 246.502277 159.006861 
L 247.518856 157.986199 
L 250.568592 154.036415 
L 254.634906 149.549123 
L 260.734378 142.609825 
L 264.800692 138.654003 
L 273.9499 129.588827 
L 275.983057 127.934025 
L 281.06595 123.797019 
L 284.115686 121.538275 
L 293.264893 114.9855 
L 296.314629 113.113278 
L 297.331208 112.394587 
L 298.347786 111.820842 
L 299.364365 111.10819 
L 300.380944 110.58276 
L 302.414101 109.308441 
L 304.447258 108.173029 
L 305.463837 107.490575 
L 308.513573 105.902206 
L 310.54673 104.71244 
L 313.596466 103.208623 
L 315.629623 102.061132 
L 319.695937 100.080201 
L 322.745673 98.854198 
L 324.77883 97.918088 
L 333.928038 94.058896 
L 336.977774 92.935563 
L 341.044088 91.353234 
L 343.077245 90.640582 
L 346.126981 89.782983 
L 352.226453 87.741658 
L 366.458553 83.84019 
L 373.574604 82.215585 
L 379.674075 80.838596 
L 381.707233 80.48831 
L 386.790126 79.570317 
L 398.989069 77.396125 
L 433.552742 72.987345 
L 449.818 71.706987 
L 451.851157 71.429174 
L 458.967207 70.861468 
L 461.000364 70.692364 
L 467.099836 70.348117 
L 471.16615 70.148816 
L 481.331937 69.641504 
L 516.912188 68.469856 
L 525.044817 68.282634 
L 532.160867 68.125609 
L 541.310075 67.859874 
L 555.542175 67.527706 
L 575.873747 67.304247 
L 582.989798 67.189498 
L 601.288213 67.074749 
L 619.586628 66.966039 
L 622.636364 66.96 
L 622.636364 66.96 
" clip-path="url(#p7f63460106)" style="fill: none; stroke: #ff0000; stroke-width: 1.5; stroke-linecap: square"/>
   </g>
   <g id="line2d_15">
    <path d="M 115.363636 369.36 
L 118.413372 369.233172 
L 122.479687 368.94328 
L 125.529422 368.568835 
L 130.612316 367.300556 
L 131.628894 366.974428 
L 132.645473 366.509392 
L 135.695209 364.606973 
L 138.744944 361.949627 
L 141.79468 358.706456 
L 144.844416 354.062139 
L 147.894152 348.819919 
L 149.927309 344.755387 
L 152.977045 337.979153 
L 157.043359 327.820842 
L 164.15941 307.926979 
L 166.192567 301.790924 
L 170.258881 290.122757 
L 172.292039 284.566487 
L 176.358353 272.523875 
L 178.39151 266.750186 
L 181.441246 258.156086 
L 194.656768 223.815921 
L 196.689925 218.960224 
L 199.739661 211.561929 
L 201.772818 206.73039 
L 204.822554 199.857526 
L 207.87229 193.238317 
L 216.004919 177.203646 
L 217.021498 175.415977 
L 219.054655 171.50243 
L 222.104391 166.103185 
L 226.170705 159.429621 
L 229.220441 154.628279 
L 231.253598 151.729356 
L 239.386227 140.659091 
L 243.452541 135.453108 
L 246.502277 131.877769 
L 248.535435 129.35329 
L 250.568592 127.330082 
L 251.58517 126.315459 
L 252.601749 125.065298 
L 255.651485 122.069744 
L 261.750956 116.253779 
L 267.850428 111.023638 
L 269.883585 109.568136 
L 279.032793 102.942888 
L 288.182 97.483249 
L 289.198579 97.024253 
L 294.281472 94.131369 
L 297.331208 92.627552 
L 305.463837 88.97974 
L 307.496994 88.218773 
L 312.579887 86.298236 
L 315.629623 85.247376 
L 316.646201 84.842735 
L 319.695937 83.979097 
L 322.745673 83.012789 
L 325.795409 82.191427 
L 327.828566 81.672037 
L 336.977774 79.371016 
L 350.193296 76.882774 
L 357.309346 75.795677 
L 370.524868 74.146915 
L 384.756968 72.794084 
L 387.806704 72.52231 
L 390.85644 72.292811 
L 396.955912 71.900249 
L 401.022226 71.658672 
L 408.138277 71.284228 
L 414.237748 70.970178 
L 419.320641 70.716522 
L 427.45327 70.42059 
L 440.668792 69.973673 
L 449.818 69.707938 
L 456.93405 69.562992 
L 483.365094 69.194587 
L 517.928767 68.886576 
L 526.061396 68.85034 
L 622.636364 68.74163 
L 622.636364 68.74163 
" clip-path="url(#p7f63460106)" style="fill: none; stroke-dasharray: 1.5,2.475; stroke-dashoffset: 0; stroke: #008000; stroke-width: 1.5"/>
   </g>
   <g id="patch_3">
    <path d="M 90 384.48 
L 90 51.84 
" style="fill: none; stroke: #000000; stroke-width: 0.8; stroke-linejoin: miter; stroke-linecap: square"/>
   </g>
   <g id="patch_4">
    <path d="M 648 384.48 
L 648 51.84 
" style="fill: none; stroke: #000000; stroke-width: 0.8; stroke-linejoin: miter; stroke-linecap: square"/>
   </g>
   <g id="patch_5">
    <path d="M 90 384.48 
L 648 384.48 
" style="fill: none; stroke: #000000; stroke-width: 0.8; stroke-linejoin: miter; stroke-linecap: square"/>
   </g>
   <g id="patch_6">
    <path d="M 90 51.84 
L 648 51.84 
" style="fill: none; stroke: #000000; stroke-width: 0.8; stroke-linejoin: miter; stroke-linecap: square"/>
   </g>
   <g id="text_15">
    <text style="font: 24px 'Times New Roman'; text-anchor: middle" x="369" y="45.84" transform="rotate(-0 369 45.84)">Explore the effect of ε on the R-state</text>
   </g>
   <g id="legend_1">
    <g id="patch_7">
     <path d="M 104 152.674375 
L 222.678125 152.674375 
Q 226.678125 152.674375 226.678125 148.674375 
L 226.678125 65.84 
Q 226.678125 61.84 222.678125 61.84 
L 104 61.84 
Q 100 61.84 100 65.84 
L 100 148.674375 
Q 100 152.674375 104 152.674375 
z
" style="fill: #ffffff; opacity: 0.8; stroke: #cccccc; stroke-linejoin: miter"/>
    </g>
    <g id="line2d_16">
     <path d="M 108 76.84 
L 128 76.84 
L 148 76.84 
" style="fill: none; stroke-dasharray: 5.55,2.4; stroke-dashoffset: 0; stroke: #0000ff; stroke-width: 1.5"/>
    </g>
    <g id="text_16">
     <text style="font: 20px 'Times New Roman'; text-anchor: start" x="164" y="83.84" transform="rotate(-0 164 83.84)">ε=0.01</text>
    </g>
    <g id="line2d_17">
     <path d="M 108 105.118125 
L 128 105.118125 
L 148 105.118125 
" style="fill: none; stroke: #ff0000; stroke-width: 1.5; stroke-linecap: square"/>
    </g>
    <g id="text_17">
     <text style="font: 20px 'Times New Roman'; text-anchor: start" x="164" y="112.118125" transform="rotate(-0 164 112.118125)">ε=0.02</text>
    </g>
    <g id="line2d_18">
     <path d="M 108 133.39625 
L 128 133.39625 
L 148 133.39625 
" style="fill: none; stroke-dasharray: 1.5,2.475; stroke-dashoffset: 0; stroke: #008000; stroke-width: 1.5"/>
    </g>
    <g id="text_18">
     <text style="font: 20px 'Times New Roman'; text-anchor: start" x="164" y="140.39625" transform="rotate(-0 164 140.39625)">ε=0.04</text>
    </g>
   </g>
  </g>
 </g>
 <defs>
  <clipPath id="p7f63460106">
   <rect x="90" y="51.84" width="558" height="332.64"/>
  </clipPath>
 </defs>
</svg>
