<?xml version="1.0" encoding="utf-8" standalone="no"?>
<!DOCTYPE svg PUBLIC "-//W3C//DTD SVG 1.1//EN"
  "http://www.w3.org/Graphics/SVG/1.1/DTD/svg11.dtd">
<svg xmlns:xlink="http://www.w3.org/1999/xlink" width="720pt" height="432pt" viewBox="0 0 720 432" xmlns="http://www.w3.org/2000/svg" version="1.1">
 <metadata>
  <rdf:RDF xmlns:dc="http://purl.org/dc/elements/1.1/" xmlns:cc="http://creativecommons.org/ns#" xmlns:rdf="http://www.w3.org/1999/02/22-rdf-syntax-ns#">
   <cc:Work>
    <dc:type rdf:resource="http://purl.org/dc/dcmitype/StillImage"/>
    <dc:date>2024-09-08T21:15:08.856363</dc:date>
    <dc:format>image/svg+xml</dc:format>
    <dc:creator>
     <cc:Agent>
      <dc:title>Matplotlib v3.9.2, https://matplotlib.org/</dc:title>
     </cc:Agent>
    </dc:creator>
   </cc:Work>
  </rdf:RDF>
 </metadata>
 <defs>
  <style type="text/css">*{stroke-linejoin: round; stroke-linecap: butt}</style>
 </defs>
 <g id="figure_1">
  <g id="patch_1">
   <path d="M 0 432 
L 720 432 
L 720 0 
L 0 0 
z
" style="fill: #ffffff"/>
  </g>
  <g id="axes_1">
   <g id="patch_2">
    <path d="M 76.43 361.92625 
L 698.4 361.92625 
L 698.4 44.16 
L 76.43 44.16 
z
" style="fill: #ffffff"/>
   </g>
   <g id="matplotlib.axis_1">
    <g id="xtick_1">
     <g id="line2d_1">
      <defs>
       <path id="m933dc96402" d="M 0 0 
L 0 3.5 
" style="stroke: #000000; stroke-width: 0.8"/>
      </defs>
      <g>
       <use xlink:href="#m933dc96402" x="104.701364" y="361.92625" style="stroke: #000000; stroke-width: 0.8"/>
      </g>
     </g>
     <g id="text_1">
      <text style="font: 20px 'Times New Roman'; text-anchor: middle" x="104.701364" y="382.81375" transform="rotate(-0 104.701364 382.81375)">0</text>
     </g>
    </g>
    <g id="xtick_2">
     <g id="line2d_2">
      <g>
       <use xlink:href="#m933dc96402" x="218.013442" y="361.92625" style="stroke: #000000; stroke-width: 0.8"/>
      </g>
     </g>
     <g id="text_2">
      <text style="font: 20px 'Times New Roman'; text-anchor: middle" x="218.013442" y="382.81375" transform="rotate(-0 218.013442 382.81375)">100</text>
     </g>
    </g>
    <g id="xtick_3">
     <g id="line2d_3">
      <g>
       <use xlink:href="#m933dc96402" x="331.325521" y="361.92625" style="stroke: #000000; stroke-width: 0.8"/>
      </g>
     </g>
     <g id="text_3">
      <text style="font: 20px 'Times New Roman'; text-anchor: middle" x="331.325521" y="382.81375" transform="rotate(-0 331.325521 382.81375)">200</text>
     </g>
    </g>
    <g id="xtick_4">
     <g id="line2d_4">
      <g>
       <use xlink:href="#m933dc96402" x="444.6376" y="361.92625" style="stroke: #000000; stroke-width: 0.8"/>
      </g>
     </g>
     <g id="text_4">
      <text style="font: 20px 'Times New Roman'; text-anchor: middle" x="444.6376" y="382.81375" transform="rotate(-0 444.6376 382.81375)">300</text>
     </g>
    </g>
    <g id="xtick_5">
     <g id="line2d_5">
      <g>
       <use xlink:href="#m933dc96402" x="557.949678" y="361.92625" style="stroke: #000000; stroke-width: 0.8"/>
      </g>
     </g>
     <g id="text_5">
      <text style="font: 20px 'Times New Roman'; text-anchor: middle" x="557.949678" y="382.81375" transform="rotate(-0 557.949678 382.81375)">400</text>
     </g>
    </g>
    <g id="xtick_6">
     <g id="line2d_6">
      <g>
       <use xlink:href="#m933dc96402" x="671.261757" y="361.92625" style="stroke: #000000; stroke-width: 0.8"/>
      </g>
     </g>
     <g id="text_6">
      <text style="font: 20px 'Times New Roman'; text-anchor: middle" x="671.261757" y="382.81375" transform="rotate(-0 671.261757 382.81375)">500</text>
     </g>
    </g>
    <g id="text_7">
     <text style="font: 20px 'Times New Roman'; text-anchor: middle" x="387.415" y="404.979375" transform="rotate(-0 387.415 404.979375)">(B)   Time (t)</text>
    </g>
   </g>
   <g id="matplotlib.axis_2">
    <g id="ytick_1">
     <g id="line2d_7">
      <defs>
       <path id="mc96df69a9d" d="M 0 0 
L -3.5 0 
" style="stroke: #000000; stroke-width: 0.8"/>
      </defs>
      <g>
       <use xlink:href="#mc96df69a9d" x="76.43" y="346.671083" style="stroke: #000000; stroke-width: 0.8"/>
      </g>
     </g>
     <g id="text_8">
      <text style="font: 20px 'Times New Roman'; text-anchor: end" x="69.43" y="353.614833" transform="rotate(-0 69.43 353.614833)">0.0</text>
     </g>
    </g>
    <g id="ytick_2">
     <g id="line2d_8">
      <g>
       <use xlink:href="#mc96df69a9d" x="76.43" y="288.790688" style="stroke: #000000; stroke-width: 0.8"/>
      </g>
     </g>
     <g id="text_9">
      <text style="font: 20px 'Times New Roman'; text-anchor: end" x="69.43" y="295.734438" transform="rotate(-0 69.43 295.734438)">0.2</text>
     </g>
    </g>
    <g id="ytick_3">
     <g id="line2d_9">
      <g>
       <use xlink:href="#mc96df69a9d" x="76.43" y="230.910292" style="stroke: #000000; stroke-width: 0.8"/>
      </g>
     </g>
     <g id="text_10">
      <text style="font: 20px 'Times New Roman'; text-anchor: end" x="69.43" y="237.854042" transform="rotate(-0 69.43 237.854042)">0.4</text>
     </g>
    </g>
    <g id="ytick_4">
     <g id="line2d_10">
      <g>
       <use xlink:href="#mc96df69a9d" x="76.43" y="173.029896" style="stroke: #000000; stroke-width: 0.8"/>
      </g>
     </g>
     <g id="text_11">
      <text style="font: 20px 'Times New Roman'; text-anchor: end" x="69.43" y="179.973646" transform="rotate(-0 69.43 179.973646)">0.6</text>
     </g>
    </g>
    <g id="ytick_5">
     <g id="line2d_11">
      <g>
       <use xlink:href="#mc96df69a9d" x="76.43" y="115.1495" style="stroke: #000000; stroke-width: 0.8"/>
      </g>
     </g>
     <g id="text_12">
      <text style="font: 20px 'Times New Roman'; text-anchor: end" x="69.43" y="122.09325" transform="rotate(-0 69.43 122.09325)">0.8</text>
     </g>
    </g>
    <g id="ytick_6">
     <g id="line2d_12">
      <g>
       <use xlink:href="#mc96df69a9d" x="76.43" y="57.269104" style="stroke: #000000; stroke-width: 0.8"/>
      </g>
     </g>
     <g id="text_13">
      <text style="font: 20px 'Times New Roman'; text-anchor: end" x="69.43" y="64.212854" transform="rotate(-0 69.43 64.212854)">1.0</text>
     </g>
    </g>
    <g id="text_14">
     <text style="font: 20px 'Times New Roman'; text-anchor: middle" x="36.114375" y="203.043125" transform="rotate(-90 36.114375 203.043125)">Density</text>
    </g>
   </g>
   <g id="line2d_13">
    <path d="M 104.701364 145.536708 
L 105.834484 147.259887 
L 106.967605 148.422097 
L 108.100726 149.837463 
L 109.233847 151.448448 
L 111.500088 155.475911 
L 112.633209 157.955677 
L 113.76633 160.936 
L 116.032572 168.242969 
L 117.165692 172.5466 
L 118.298813 177.494626 
L 120.565055 188.875086 
L 122.831296 201.567348 
L 125.097538 214.501257 
L 127.363779 227.941476 
L 129.630021 240.892646 
L 130.763142 247.601249 
L 134.162504 264.74098 
L 136.428746 274.855666 
L 139.828108 288.301639 
L 142.09435 296.132177 
L 144.360591 302.610639 
L 145.493712 305.401095 
L 150.026195 315.199337 
L 151.159316 317.351153 
L 153.425557 320.843539 
L 154.558678 322.586855 
L 157.958041 327.18967 
L 160.224282 329.485324 
L 163.623645 332.385097 
L 167.023007 334.836096 
L 169.289248 336.124884 
L 176.087973 339.145481 
L 179.487336 340.181115 
L 182.886698 341.164966 
L 185.15294 341.648262 
L 191.951664 342.781705 
L 205.549114 344.208578 
L 214.61408 344.933521 
L 223.679046 345.382295 
L 247.474583 346.015182 
L 266.737636 346.222309 
L 282.601327 346.274091 
L 348.322333 346.498478 
L 670.128636 346.532999 
L 670.128636 346.532999 
" clip-path="url(#pb4ce1bc1dc)" style="fill: none; stroke-dasharray: 5.55,2.4; stroke-dashoffset: 0; stroke: #0000ff; stroke-width: 1.5"/>
   </g>
   <g id="line2d_14">
    <path d="M 104.701364 259.85049 
L 105.834484 261.133524 
L 108.100726 261.881482 
L 110.366968 262.95739 
L 112.633209 264.338234 
L 114.899451 266.346212 
L 117.165692 268.774197 
L 120.565055 273.774004 
L 123.964417 280.37329 
L 126.230659 284.878295 
L 128.4969 289.653715 
L 133.029383 299.595795 
L 135.295625 304.267652 
L 138.694987 310.429671 
L 142.09435 315.912774 
L 145.493712 320.504081 
L 146.626833 321.884926 
L 152.292437 327.770775 
L 153.425557 328.835176 
L 156.82492 331.32645 
L 162.490524 334.64623 
L 165.889886 336.153652 
L 169.289248 337.569017 
L 173.821732 339.007397 
L 182.886698 341.182227 
L 186.28606 341.774839 
L 191.951664 342.614853 
L 194.217906 342.983078 
L 206.682234 344.070493 
L 212.347838 344.37543 
L 225.945288 345.031331 
L 256.539549 345.549147 
L 272.40324 345.739013 
L 298.465018 345.894358 
L 346.056091 346.026689 
L 670.128636 346.101485 
L 670.128636 346.101485 
" clip-path="url(#pb4ce1bc1dc)" style="fill: none; stroke-dasharray: 5.55,2.4; stroke-dashoffset: 0; stroke: #000000; stroke-width: 1.5"/>
   </g>
   <g id="line2d_15">
    <path d="M 104.701364 346.671083 
L 105.834484 344.749408 
L 106.967605 343.650486 
L 109.233847 340.779481 
L 111.500088 337.091475 
L 112.633209 334.864864 
L 113.76633 332.16071 
L 114.899451 329.111345 
L 116.032572 325.728276 
L 117.165692 321.919447 
L 119.431934 312.880669 
L 121.698175 302.74297 
L 123.964417 292.0817 
L 126.230659 281.173029 
L 130.763142 262.324503 
L 134.162504 251.611451 
L 135.295625 248.688664 
L 137.561866 244.21818 
L 138.694987 242.164174 
L 140.961229 239.011246 
L 142.09435 238.182739 
L 144.360591 236.905458 
L 145.493712 236.991761 
L 146.626833 237.406014 
L 147.759954 237.521084 
L 151.159316 238.970971 
L 153.425557 240.829358 
L 154.558678 241.813209 
L 155.691799 242.981173 
L 156.82492 243.80968 
L 157.958041 244.868328 
L 160.224282 247.699059 
L 162.490524 250.679381 
L 163.623645 252.462972 
L 167.023007 256.824139 
L 170.422369 261.726137 
L 171.55549 263.032185 
L 172.688611 264.758241 
L 174.954852 267.807606 
L 177.221094 270.931766 
L 178.354215 272.675082 
L 190.818543 288.157801 
L 197.617268 295.700663 
L 199.88351 297.996317 
L 205.549114 303.283801 
L 206.682234 304.365462 
L 207.815355 305.251504 
L 208.948476 305.930419 
L 211.214718 307.840587 
L 212.347838 308.554024 
L 214.61408 310.326107 
L 215.747201 311.430783 
L 225.945288 318.030068 
L 228.211529 319.353378 
L 233.877133 322.310686 
L 240.675858 325.53841 
L 246.341462 328.127493 
L 249.740824 329.347239 
L 252.007066 330.210267 
L 253.140187 330.532464 
L 255.406428 331.360971 
L 257.67267 332.051393 
L 261.072032 333.121547 
L 269.003878 335.445969 
L 287.13381 339.133974 
L 301.864381 341.118938 
L 305.263743 341.418121 
L 312.062468 342.10279 
L 329.059279 343.495141 
L 333.591763 343.86912 
L 339.257367 344.162549 
L 350.588574 344.743655 
L 361.919782 345.157908 
L 383.449077 345.698739 
L 392.514044 345.911619 
L 462.767532 346.515738 
L 505.826122 346.625055 
L 531.8879 346.648069 
L 670.128636 346.671083 
L 670.128636 346.671083 
" clip-path="url(#pb4ce1bc1dc)" style="fill: none; stroke: #add8e6; stroke-width: 1.5; stroke-linecap: square"/>
   </g>
   <g id="line2d_16">
    <path d="M 104.701364 345.224074 
L 105.834484 345.623943 
L 108.100726 344.899 
L 110.366968 343.782817 
L 112.633209 342.252381 
L 113.76633 341.222501 
L 116.032572 338.708214 
L 117.165692 337.304355 
L 118.298813 335.486244 
L 120.565055 331.383985 
L 125.097538 320.901074 
L 127.363779 315.262626 
L 129.630021 308.939509 
L 133.029383 299.555521 
L 136.428746 290.925243 
L 138.694987 285.632006 
L 139.828108 283.163747 
L 140.961229 281.017684 
L 142.09435 278.486136 
L 146.626833 270.028464 
L 148.893074 266.754712 
L 150.026195 264.913586 
L 152.292437 261.835454 
L 153.425557 260.47187 
L 154.558678 259.482264 
L 155.691799 258.274026 
L 157.958041 256.54797 
L 159.091161 255.460555 
L 160.224282 254.655062 
L 161.357403 254.171767 
L 163.623645 252.509 
L 164.756765 252.014197 
L 165.889886 251.375557 
L 167.023007 251.076374 
L 169.289248 250.173072 
L 172.688611 250.115536 
L 177.221094 249.862382 
L 179.487336 250.127043 
L 182.886698 250.593078 
L 184.019819 250.93829 
L 185.15294 251.139663 
L 188.552302 252.094747 
L 189.685423 252.347902 
L 198.750389 255.961111 
L 199.88351 256.570984 
L 201.016631 257.330449 
L 202.149751 257.951829 
L 204.415993 258.987462 
L 205.549114 259.580074 
L 208.948476 261.697369 
L 210.081597 262.151897 
L 213.480959 264.292206 
L 214.61408 264.976875 
L 216.880322 266.08155 
L 219.146563 267.295543 
L 221.412805 268.923788 
L 223.679046 270.057231 
L 225.945288 271.553146 
L 235.010254 277.634615 
L 236.143375 278.244488 
L 238.409617 279.75191 
L 240.675858 281.069466 
L 242.9421 282.266198 
L 246.341462 284.090063 
L 248.607704 285.511182 
L 249.740824 285.994478 
L 256.539549 289.820567 
L 258.805791 290.769898 
L 262.205153 292.616777 
L 264.471395 293.836523 
L 265.604515 294.23927 
L 269.003878 296.132177 
L 271.270119 297.202332 
L 274.669482 299.089486 
L 278.068844 301.114724 
L 279.201965 301.678569 
L 281.468206 302.576118 
L 288.266931 305.832609 
L 295.065656 308.893481 
L 298.465018 310.268572 
L 306.396864 313.668901 
L 313.195588 316.211957 
L 316.594951 317.414442 
L 322.260555 319.100223 
L 324.526796 319.664068 
L 325.659917 320.112842 
L 329.059279 321.131215 
L 331.325521 321.90794 
L 343.78985 325.532657 
L 346.056091 326.04472 
L 351.721695 327.534881 
L 353.987937 328.12174 
L 357.387299 328.984768 
L 360.786662 329.519845 
L 364.186024 330.526711 
L 366.452265 330.940964 
L 368.718507 331.447274 
L 377.783473 333.167576 
L 380.049715 333.702653 
L 407.244614 337.776144 
L 433.306392 340.393995 
L 438.971996 340.900304 
L 449.170083 341.757579 
L 451.436324 341.935938 
L 462.767532 342.614853 
L 471.832499 343.236233 
L 484.296827 343.759803 
L 486.563069 343.915148 
L 494.494914 344.289127 
L 505.826122 344.812697 
L 552.284075 346.118746 
L 574.94649 346.481217 
L 582.878336 346.590534 
L 612.339476 347.079583 
L 622.537563 347.183147 
L 638.401254 347.321231 
L 670.128636 347.48233 
L 670.128636 347.48233 
" clip-path="url(#pb4ce1bc1dc)" style="fill: none; stroke-dasharray: 9.6,2.4,1.5,2.4; stroke-dashoffset: 0; stroke: #ff0000; stroke-width: 1.5"/>
   </g>
   <g id="line2d_17">
    <path d="M 104.701364 346.671083 
L 109.233847 346.400668 
L 112.633209 345.980661 
L 113.76633 345.802302 
L 118.298813 344.432965 
L 120.565055 343.523909 
L 121.698175 342.960064 
L 125.097538 340.618382 
L 127.363779 338.58739 
L 129.630021 336.291736 
L 130.763142 335.031716 
L 134.162504 330.423147 
L 136.428746 326.930762 
L 138.694987 323.070151 
L 140.961229 318.962138 
L 143.22747 314.526176 
L 145.493712 310.458438 
L 150.026195 301.310344 
L 153.425557 294.411875 
L 155.691799 289.417821 
L 161.357403 277.651876 
L 164.756765 270.563541 
L 168.156128 263.665072 
L 176.087973 247.445904 
L 177.221094 245.236553 
L 179.487336 240.4899 
L 184.019819 231.945925 
L 191.951664 217.395277 
L 197.617268 207.34388 
L 199.88351 203.581079 
L 202.149751 199.754989 
L 208.948476 189.047691 
L 210.081597 187.488488 
L 211.214718 185.607087 
L 213.480959 182.367856 
L 216.880322 177.373802 
L 220.279684 172.868797 
L 222.545925 169.675595 
L 224.812167 166.879385 
L 228.211529 162.27657 
L 230.477771 159.422825 
L 231.610892 157.875128 
L 239.542737 148.681006 
L 247.474583 140.72389 
L 248.607704 139.509897 
L 249.740824 138.589334 
L 252.007066 136.345462 
L 254.273308 134.187893 
L 255.406428 133.111985 
L 259.938911 129.429733 
L 267.870757 122.72113 
L 270.136999 121.098638 
L 271.270119 120.327667 
L 273.536361 118.457773 
L 274.669482 117.658034 
L 278.068844 114.965387 
L 279.201965 114.10236 
L 281.468206 112.66398 
L 291.666293 105.892089 
L 293.932535 104.603301 
L 305.263743 98.429775 
L 308.663105 96.709473 
L 312.062468 95.213559 
L 314.328709 94.085869 
L 318.861192 92.221729 
L 327.926159 88.798385 
L 333.591763 86.479717 
L 343.78985 82.941304 
L 346.056091 82.308417 
L 350.588574 80.795241 
L 352.854816 80.225643 
L 356.254178 79.201517 
L 358.52042 78.689453 
L 361.919782 77.814919 
L 365.319145 76.888602 
L 373.25099 75.058983 
L 378.916594 73.781702 
L 382.315956 73.079773 
L 384.582198 72.619491 
L 387.98156 72.009619 
L 390.247802 71.560844 
L 398.179647 70.341098 
L 400.445889 69.967119 
L 403.845251 69.426289 
L 407.244614 68.919979 
L 428.773909 66.509255 
L 443.504479 65.01334 
L 450.303204 64.478263 
L 452.569445 64.27689 
L 475.231861 62.873031 
L 489.962431 62.090553 
L 495.628035 61.820137 
L 512.624847 61.141222 
L 517.15733 60.945602 
L 552.284075 59.979011 
L 580.612094 59.495716 
L 587.410819 59.397906 
L 599.875148 59.185026 
L 631.60253 58.811047 
L 659.930549 58.632688 
L 670.128636 58.60392 
L 670.128636 58.60392 
" clip-path="url(#pb4ce1bc1dc)" style="fill: none; stroke-dasharray: 1.5,2.475; stroke-dashoffset: 0; stroke: #008000; stroke-width: 1.5"/>
   </g>
   <g id="patch_3">
    <path d="M 76.43 361.92625 
L 76.43 44.16 
" style="fill: none; stroke: #000000; stroke-width: 0.8; stroke-linejoin: miter; stroke-linecap: square"/>
   </g>
   <g id="patch_4">
    <path d="M 698.4 361.92625 
L 698.4 44.16 
" style="fill: none; stroke: #000000; stroke-width: 0.8; stroke-linejoin: miter; stroke-linecap: square"/>
   </g>
   <g id="patch_5">
    <path d="M 76.43 361.92625 
L 698.4 361.92625 
" style="fill: none; stroke: #000000; stroke-width: 0.8; stroke-linejoin: miter; stroke-linecap: square"/>
   </g>
   <g id="patch_6">
    <path d="M 76.43 44.16 
L 698.4 44.16 
" style="fill: none; stroke: #000000; stroke-width: 0.8; stroke-linejoin: miter; stroke-linecap: square"/>
   </g>
   <g id="text_15">
    <text style="font: 24px 'Times New Roman'; text-anchor: middle" x="387.415" y="38.16" transform="rotate(-0 387.415 38.16)">SSEIR on Hyper_Network</text>
   </g>
   <g id="legend_1">
    <g id="patch_7">
     <path d="M 590.4 276.832187 
L 684.4 276.832187 
Q 688.4 276.832187 688.4 272.832187 
L 688.4 133.254062 
Q 688.4 129.254062 684.4 129.254062 
L 590.4 129.254062 
Q 586.4 129.254062 586.4 133.254062 
L 586.4 272.832187 
Q 586.4 276.832187 590.4 276.832187 
z
" style="fill: #ffffff; opacity: 0.8; stroke: #cccccc; stroke-linejoin: miter"/>
    </g>
    <g id="line2d_18">
     <path d="M 594.4 144.254062 
L 614.4 144.254062 
L 634.4 144.254062 
" style="fill: none; stroke-dasharray: 5.55,2.4; stroke-dashoffset: 0; stroke: #0000ff; stroke-width: 1.5"/>
    </g>
    <g id="text_16">
     <text style="font: 20px 'Times New Roman'; text-anchor: start" x="650.4" y="151.254062" transform="rotate(-0 650.4 151.254062)">S_i</text>
    </g>
    <g id="line2d_19">
     <path d="M 594.4 172.569687 
L 614.4 172.569687 
L 634.4 172.569687 
" style="fill: none; stroke-dasharray: 5.55,2.4; stroke-dashoffset: 0; stroke: #000000; stroke-width: 1.5"/>
    </g>
    <g id="text_17">
     <text style="font: 20px 'Times New Roman'; text-anchor: start" x="650.4" y="179.569687" transform="rotate(-0 650.4 179.569687)">S_a</text>
    </g>
    <g id="line2d_20">
     <path d="M 594.4 200.885312 
L 614.4 200.885312 
L 634.4 200.885312 
" style="fill: none; stroke: #add8e6; stroke-width: 1.5; stroke-linecap: square"/>
    </g>
    <g id="text_18">
     <text style="font: 20px 'Times New Roman'; text-anchor: start" x="650.4" y="207.885312" transform="rotate(-0 650.4 207.885312)">E_t</text>
    </g>
    <g id="line2d_21">
     <path d="M 594.4 229.200937 
L 614.4 229.200937 
L 634.4 229.200937 
" style="fill: none; stroke-dasharray: 9.6,2.4,1.5,2.4; stroke-dashoffset: 0; stroke: #ff0000; stroke-width: 1.5"/>
    </g>
    <g id="text_19">
     <text style="font: 20px 'Times New Roman'; text-anchor: start" x="650.4" y="236.200937" transform="rotate(-0 650.4 236.200937)">I_t</text>
    </g>
    <g id="line2d_22">
     <path d="M 594.4 257.516562 
L 614.4 257.516562 
L 634.4 257.516562 
" style="fill: none; stroke-dasharray: 1.5,2.475; stroke-dashoffset: 0; stroke: #008000; stroke-width: 1.5"/>
    </g>
    <g id="text_20">
     <text style="font: 20px 'Times New Roman'; text-anchor: start" x="650.4" y="264.516562" transform="rotate(-0 650.4 264.516562)">R_t</text>
    </g>
   </g>
  </g>
 </g>
 <defs>
  <clipPath id="pb4ce1bc1dc">
   <rect x="76.43" y="44.16" width="621.97" height="317.76625"/>
  </clipPath>
 </defs>
</svg>
