<?xml version="1.0" encoding="utf-8" standalone="no"?>
<!DOCTYPE svg PUBLIC "-//W3C//DTD SVG 1.1//EN"
  "http://www.w3.org/Graphics/SVG/1.1/DTD/svg11.dtd">
<svg xmlns:xlink="http://www.w3.org/1999/xlink" width="720pt" height="432pt" viewBox="0 0 720 432" xmlns="http://www.w3.org/2000/svg" version="1.1">
 <metadata>
  <rdf:RDF xmlns:dc="http://purl.org/dc/elements/1.1/" xmlns:cc="http://creativecommons.org/ns#" xmlns:rdf="http://www.w3.org/1999/02/22-rdf-syntax-ns#">
   <cc:Work>
    <dc:type rdf:resource="http://purl.org/dc/dcmitype/StillImage"/>
    <dc:date>2024-09-08T21:15:08.751816</dc:date>
    <dc:format>image/svg+xml</dc:format>
    <dc:creator>
     <cc:Agent>
      <dc:title>Matplotlib v3.9.2, https://matplotlib.org/</dc:title>
     </cc:Agent>
    </dc:creator>
   </cc:Work>
  </rdf:RDF>
 </metadata>
 <defs>
  <style type="text/css">*{stroke-linejoin: round; stroke-linecap: butt}</style>
 </defs>
 <g id="figure_1">
  <g id="patch_1">
   <path d="M 0 432 
L 720 432 
L 720 0 
L 0 0 
z
" style="fill: #ffffff"/>
  </g>
  <g id="axes_1">
   <g id="patch_2">
    <path d="M 76.43 361.92625 
L 698.4 361.92625 
L 698.4 44.16 
L 76.43 44.16 
z
" style="fill: #ffffff"/>
   </g>
   <g id="matplotlib.axis_1">
    <g id="xtick_1">
     <g id="line2d_1">
      <defs>
       <path id="mde993a6060" d="M 0 0 
L 0 3.5 
" style="stroke: #000000; stroke-width: 0.8"/>
      </defs>
      <g>
       <use xlink:href="#mde993a6060" x="103.568243" y="361.92625" style="stroke: #000000; stroke-width: 0.8"/>
      </g>
     </g>
     <g id="text_1">
      <text style="font: 20px 'Times New Roman'; text-anchor: middle" x="103.568243" y="382.81375" transform="rotate(-0 103.568243 382.81375)">0</text>
     </g>
    </g>
    <g id="xtick_2">
     <g id="line2d_2">
      <g>
       <use xlink:href="#mde993a6060" x="216.880322" y="361.92625" style="stroke: #000000; stroke-width: 0.8"/>
      </g>
     </g>
     <g id="text_2">
      <text style="font: 20px 'Times New Roman'; text-anchor: middle" x="216.880322" y="382.81375" transform="rotate(-0 216.880322 382.81375)">100</text>
     </g>
    </g>
    <g id="xtick_3">
     <g id="line2d_3">
      <g>
       <use xlink:href="#mde993a6060" x="330.1924" y="361.92625" style="stroke: #000000; stroke-width: 0.8"/>
      </g>
     </g>
     <g id="text_3">
      <text style="font: 20px 'Times New Roman'; text-anchor: middle" x="330.1924" y="382.81375" transform="rotate(-0 330.1924 382.81375)">200</text>
     </g>
    </g>
    <g id="xtick_4">
     <g id="line2d_4">
      <g>
       <use xlink:href="#mde993a6060" x="443.504479" y="361.92625" style="stroke: #000000; stroke-width: 0.8"/>
      </g>
     </g>
     <g id="text_4">
      <text style="font: 20px 'Times New Roman'; text-anchor: middle" x="443.504479" y="382.81375" transform="rotate(-0 443.504479 382.81375)">300</text>
     </g>
    </g>
    <g id="xtick_5">
     <g id="line2d_5">
      <g>
       <use xlink:href="#mde993a6060" x="556.816558" y="361.92625" style="stroke: #000000; stroke-width: 0.8"/>
      </g>
     </g>
     <g id="text_5">
      <text style="font: 20px 'Times New Roman'; text-anchor: middle" x="556.816558" y="382.81375" transform="rotate(-0 556.816558 382.81375)">400</text>
     </g>
    </g>
    <g id="xtick_6">
     <g id="line2d_6">
      <g>
       <use xlink:href="#mde993a6060" x="670.128636" y="361.92625" style="stroke: #000000; stroke-width: 0.8"/>
      </g>
     </g>
     <g id="text_6">
      <text style="font: 20px 'Times New Roman'; text-anchor: middle" x="670.128636" y="382.81375" transform="rotate(-0 670.128636 382.81375)">500</text>
     </g>
    </g>
    <g id="text_7">
     <text style="font: 20px 'Times New Roman'; text-anchor: middle" x="387.415" y="404.979375" transform="rotate(-0 387.415 404.979375)">(C)   Time (t)</text>
    </g>
   </g>
   <g id="matplotlib.axis_2">
    <g id="ytick_1">
     <g id="line2d_7">
      <defs>
       <path id="ma07cf409a7" d="M 0 0 
L -3.5 0 
" style="stroke: #000000; stroke-width: 0.8"/>
      </defs>
      <g>
       <use xlink:href="#ma07cf409a7" x="76.43" y="347.48233" style="stroke: #000000; stroke-width: 0.8"/>
      </g>
     </g>
     <g id="text_8">
      <text style="font: 20px 'Times New Roman'; text-anchor: end" x="69.43" y="354.42608" transform="rotate(-0 69.43 354.42608)">0.0</text>
     </g>
    </g>
    <g id="ytick_2">
     <g id="line2d_8">
      <g>
       <use xlink:href="#ma07cf409a7" x="76.43" y="286.627388" style="stroke: #000000; stroke-width: 0.8"/>
      </g>
     </g>
     <g id="text_9">
      <text style="font: 20px 'Times New Roman'; text-anchor: end" x="69.43" y="293.571138" transform="rotate(-0 69.43 293.571138)">0.2</text>
     </g>
    </g>
    <g id="ytick_3">
     <g id="line2d_9">
      <g>
       <use xlink:href="#ma07cf409a7" x="76.43" y="225.772446" style="stroke: #000000; stroke-width: 0.8"/>
      </g>
     </g>
     <g id="text_10">
      <text style="font: 20px 'Times New Roman'; text-anchor: end" x="69.43" y="232.716196" transform="rotate(-0 69.43 232.716196)">0.4</text>
     </g>
    </g>
    <g id="ytick_4">
     <g id="line2d_10">
      <g>
       <use xlink:href="#ma07cf409a7" x="76.43" y="164.917504" style="stroke: #000000; stroke-width: 0.8"/>
      </g>
     </g>
     <g id="text_11">
      <text style="font: 20px 'Times New Roman'; text-anchor: end" x="69.43" y="171.861254" transform="rotate(-0 69.43 171.861254)">0.6</text>
     </g>
    </g>
    <g id="ytick_5">
     <g id="line2d_11">
      <g>
       <use xlink:href="#ma07cf409a7" x="76.43" y="104.062562" style="stroke: #000000; stroke-width: 0.8"/>
      </g>
     </g>
     <g id="text_12">
      <text style="font: 20px 'Times New Roman'; text-anchor: end" x="69.43" y="111.006312" transform="rotate(-0 69.43 111.006312)">0.8</text>
     </g>
    </g>
    <g id="text_13">
     <text style="font: 20px 'Times New Roman'; text-anchor: middle" x="36.114375" y="203.043125" transform="rotate(-90 36.114375 203.043125)">Density</text>
    </g>
   </g>
   <g id="line2d_12">
    <path d="M 104.701364 136.42522 
L 105.834484 137.557122 
L 106.967605 139.31583 
L 108.100726 141.591805 
L 109.233847 144.877972 
L 110.366968 148.86397 
L 112.633209 158.625103 
L 116.032572 175.974847 
L 119.431934 195.314547 
L 122.831296 214.733359 
L 125.097538 225.760275 
L 128.4969 240.846215 
L 130.763142 249.731036 
L 134.162504 261.433442 
L 136.428746 268.206597 
L 139.828108 276.537638 
L 142.09435 281.150443 
L 145.493712 287.588896 
L 147.759954 291.532296 
L 151.159316 296.400691 
L 153.425557 299.303472 
L 155.691799 301.841123 
L 161.357403 307.506718 
L 163.623645 309.460162 
L 165.889886 311.005877 
L 168.156128 312.508994 
L 179.487336 318.898763 
L 181.753577 319.921126 
L 185.15294 321.32079 
L 186.28606 321.923254 
L 189.685423 323.030814 
L 194.217906 324.576529 
L 196.484147 325.203335 
L 201.016631 326.523888 
L 203.282872 327.120266 
L 205.549114 327.704473 
L 211.214718 328.988513 
L 225.945288 331.173205 
L 240.675858 332.670237 
L 250.873945 333.357898 
L 256.539549 333.589146 
L 266.737636 334.24638 
L 272.40324 334.495885 
L 301.864381 335.335683 
L 332.458642 335.883378 
L 378.916594 336.278935 
L 434.439513 336.388474 
L 457.101928 336.400645 
L 670.128636 336.467585 
L 670.128636 336.467585 
" clip-path="url(#p054fa858d3)" style="fill: none; stroke-dasharray: 5.55,2.4; stroke-dashoffset: 0; stroke: #0000ff; stroke-width: 1.5"/>
   </g>
   <g id="line2d_13">
    <path d="M 104.701364 257.368332 
L 105.834484 258.445464 
L 106.967605 260.17983 
L 108.100726 262.571429 
L 109.233847 265.297731 
L 110.366968 268.36482 
L 111.500088 271.790953 
L 114.899451 282.884809 
L 117.165692 290.010922 
L 120.565055 300.301493 
L 122.831296 305.906233 
L 125.097538 310.725945 
L 127.363779 314.7302 
L 129.630021 317.760776 
L 131.896263 320.541847 
L 135.295625 323.456798 
L 137.561866 325.124224 
L 144.360591 329.031111 
L 146.626833 330.211697 
L 154.558678 333.351812 
L 160.224282 335.17746 
L 162.490524 335.597359 
L 169.289248 337.130904 
L 173.821732 337.958531 
L 177.221094 338.548824 
L 180.620456 339.090433 
L 184.019819 339.522503 
L 193.084785 340.356216 
L 197.617268 340.812628 
L 202.149751 341.116903 
L 205.549114 341.323809 
L 213.480959 341.816734 
L 225.945288 342.583507 
L 232.744013 342.833012 
L 247.474583 343.210313 
L 259.938911 343.447647 
L 267.870757 343.593699 
L 321.127434 344.056196 
L 348.322333 344.165735 
L 382.315956 344.238761 
L 670.128636 344.287445 
L 670.128636 344.287445 
" clip-path="url(#p054fa858d3)" style="fill: none; stroke-dasharray: 5.55,2.4; stroke-dashoffset: 0; stroke: #000000; stroke-width: 1.5"/>
   </g>
   <g id="line2d_14">
    <path d="M 104.701364 346.892037 
L 105.834484 345.772306 
L 106.967605 344.050111 
L 108.100726 341.847162 
L 109.233847 338.737474 
L 110.366968 335.049665 
L 112.633209 325.915338 
L 117.165692 305.236829 
L 121.698175 283.548128 
L 122.831296 278.923152 
L 125.097538 271.085036 
L 128.4969 261.555152 
L 129.630021 258.816679 
L 131.896263 254.617688 
L 133.029383 252.901579 
L 136.428746 249.52413 
L 137.561866 249.274624 
L 139.828108 248.29486 
L 140.961229 248.203577 
L 143.22747 248.392228 
L 144.360591 248.830383 
L 145.493712 248.939922 
L 147.759954 249.548472 
L 150.026195 250.534322 
L 154.558678 253.887429 
L 156.82492 255.846958 
L 159.091161 257.544811 
L 161.357403 259.534768 
L 164.756765 262.614028 
L 165.889886 264.111059 
L 172.688611 271.693585 
L 176.087973 274.803272 
L 178.354215 277.103589 
L 179.487336 277.985986 
L 182.886698 281.606855 
L 190.818543 288.757311 
L 193.084785 290.497762 
L 195.351027 292.512061 
L 196.484147 293.357944 
L 198.750389 295.353986 
L 203.282872 298.834889 
L 204.415993 299.486037 
L 206.682234 301.135206 
L 207.815355 302.163654 
L 212.347838 305.388966 
L 215.747201 307.969216 
L 218.013442 309.344537 
L 219.146563 310.007856 
L 222.545925 312.405541 
L 227.078409 315.004047 
L 229.34465 316.020325 
L 230.477771 316.586276 
L 232.744013 317.918999 
L 233.877133 318.442351 
L 235.010254 319.136098 
L 236.143375 319.622937 
L 237.276496 320.280171 
L 239.542737 321.13214 
L 242.9421 322.744796 
L 246.341462 324.083604 
L 248.607704 325.099882 
L 250.873945 326.000535 
L 255.406428 327.740986 
L 258.805791 329.110223 
L 261.072032 329.828311 
L 263.338274 330.503801 
L 265.604515 331.173205 
L 273.536361 333.315299 
L 275.802602 334.094242 
L 280.335086 335.213973 
L 284.867569 336.108541 
L 288.266931 336.814458 
L 295.065656 338.25672 
L 298.465018 338.713132 
L 312.062468 340.660491 
L 334.724883 343.009491 
L 350.588574 344.190077 
L 363.052903 344.829054 
L 366.452265 345.029875 
L 368.718507 345.188098 
L 373.25099 345.407176 
L 385.715319 345.833161 
L 431.04015 346.703386 
L 484.296827 347.165884 
L 495.628035 347.214568 
L 534.154142 347.324107 
L 563.615282 347.372791 
L 670.128636 347.48233 
L 670.128636 347.48233 
" clip-path="url(#p054fa858d3)" style="fill: none; stroke: #add8e6; stroke-width: 1.5; stroke-linecap: square"/>
   </g>
   <g id="line2d_15">
    <path d="M 104.701364 345.285466 
L 105.834484 344.238761 
L 106.967605 342.534823 
L 108.100726 340.191908 
L 109.233847 337.508205 
L 110.366968 334.483714 
L 113.76633 323.706304 
L 117.165692 312.63679 
L 120.565055 302.102799 
L 123.964417 293.491825 
L 126.230659 288.526062 
L 127.363779 286.298771 
L 129.630021 282.933493 
L 130.763142 281.393863 
L 131.896263 279.5743 
L 133.029383 278.326774 
L 134.162504 276.73846 
L 135.295625 275.783037 
L 137.561866 273.53749 
L 144.360591 268.103143 
L 148.893074 265.322073 
L 150.026195 264.750036 
L 151.159316 264.348393 
L 152.292437 263.794613 
L 154.558678 262.985243 
L 157.958041 261.804657 
L 162.490524 260.654498 
L 164.756765 260.319796 
L 165.889886 259.960752 
L 170.422369 259.711247 
L 172.688611 259.425229 
L 177.221094 259.00533 
L 178.354215 259.102697 
L 181.753577 258.652371 
L 184.019819 258.816679 
L 185.15294 259.029672 
L 186.28606 259.102697 
L 188.552302 259.705161 
L 189.685423 259.839042 
L 190.818543 260.094633 
L 191.951664 260.478019 
L 197.617268 261.65252 
L 198.750389 261.981136 
L 199.88351 262.157616 
L 201.016631 262.650541 
L 207.815355 264.61007 
L 210.081597 265.029969 
L 213.480959 266.314008 
L 215.747201 267.050353 
L 222.545925 269.667115 
L 223.679046 270.135698 
L 225.945288 270.83553 
L 228.211529 272.040458 
L 232.744013 273.96956 
L 233.877133 274.529425 
L 235.010254 274.845871 
L 236.143375 275.302283 
L 237.276496 275.588301 
L 239.542737 276.817571 
L 241.808979 277.596514 
L 244.07522 278.643219 
L 248.607704 280.633176 
L 252.007066 282.574449 
L 254.273308 283.548128 
L 255.406428 283.907172 
L 257.67267 284.862594 
L 262.205153 286.706499 
L 265.604515 288.337412 
L 272.40324 291.331475 
L 276.935723 292.889361 
L 279.201965 293.91781 
L 280.335086 294.246426 
L 282.601327 295.226191 
L 286.00069 296.51023 
L 288.266931 297.337857 
L 289.400052 297.648218 
L 293.932535 299.339985 
L 296.198777 300.216296 
L 297.331897 300.75182 
L 300.73126 302.035859 
L 302.997501 302.96694 
L 305.263743 303.745883 
L 307.529985 304.646536 
L 308.663105 304.962982 
L 312.062468 306.173995 
L 314.328709 306.952938 
L 316.594951 307.725796 
L 319.994313 308.88204 
L 321.127434 309.180229 
L 322.260555 309.648812 
L 325.659917 310.464268 
L 330.1924 311.833505 
L 332.458642 312.624619 
L 346.056091 316.762755 
L 349.455454 317.62081 
L 352.854816 318.527548 
L 356.254178 319.440372 
L 360.786662 320.712241 
L 378.916594 324.740838 
L 381.182836 325.148566 
L 395.913406 328.288681 
L 410.643976 330.935871 
L 414.043338 331.428796 
L 420.842063 332.536356 
L 423.108305 332.858887 
L 426.507667 333.455265 
L 450.303204 336.558867 
L 453.702566 336.850971 
L 459.36817 337.410837 
L 469.566257 338.640106 
L 478.631223 339.352109 
L 482.030586 339.656384 
L 488.82931 340.155395 
L 495.628035 340.71526 
L 499.027398 340.879568 
L 502.42676 341.08039 
L 508.092364 341.433348 
L 526.222296 342.394856 
L 535.287263 342.784328 
L 539.819746 343.015577 
L 553.417195 343.611955 
L 556.816558 343.788435 
L 594.209544 345.096816 
L 666.729274 346.551249 
L 670.128636 346.599933 
L 670.128636 346.599933 
" clip-path="url(#p054fa858d3)" style="fill: none; stroke-dasharray: 9.6,2.4,1.5,2.4; stroke-dashoffset: 0; stroke: #ff0000; stroke-width: 1.5"/>
   </g>
   <g id="line2d_16">
    <path d="M 104.701364 347.470159 
L 108.100726 347.23891 
L 109.233847 347.019832 
L 113.76633 345.541057 
L 117.165692 343.313766 
L 120.565055 340.216249 
L 123.964417 336.291106 
L 125.097538 334.958383 
L 128.4969 330.18127 
L 131.896263 324.941659 
L 134.162504 320.882634 
L 139.828108 310.263447 
L 144.360591 302.005431 
L 148.893074 293.704817 
L 151.159316 289.335433 
L 155.691799 280.401927 
L 157.958041 276.233364 
L 167.023007 259.656477 
L 169.289248 255.463572 
L 172.688611 249.597156 
L 177.221094 242.154596 
L 178.354215 240.268093 
L 179.487336 238.685864 
L 188.552302 224.384953 
L 201.016631 206.128471 
L 203.282872 202.98227 
L 222.545925 178.159539 
L 223.679046 176.80856 
L 225.945288 174.465644 
L 227.078409 173.035553 
L 230.477771 169.372086 
L 233.877133 165.550395 
L 236.143375 163.353532 
L 237.276496 162.276399 
L 239.542737 159.872629 
L 250.873945 148.930911 
L 253.140187 146.746218 
L 257.67267 142.833246 
L 261.072032 139.973063 
L 262.205153 139.115009 
L 264.471395 137.076368 
L 272.40324 130.990874 
L 273.536361 130.248444 
L 274.669482 129.329534 
L 276.935723 127.832502 
L 279.201965 126.085966 
L 280.335086 125.489587 
L 282.601327 123.901273 
L 288.266931 120.47514 
L 290.533173 119.12416 
L 292.799414 117.687984 
L 293.932535 117.115947 
L 295.065656 116.330918 
L 296.198777 115.716283 
L 297.331897 114.961682 
L 300.73126 113.069093 
L 305.263743 110.567955 
L 308.663105 108.724051 
L 314.328709 105.94298 
L 316.594951 104.853676 
L 317.728072 104.275554 
L 318.861192 103.873912 
L 323.393676 101.817015 
L 325.659917 100.95896 
L 330.1924 99.090713 
L 332.458642 98.050094 
L 342.656729 93.826761 
L 353.987937 89.980728 
L 363.052903 86.968409 
L 365.319145 86.256406 
L 368.718507 85.331411 
L 373.25099 84.047372 
L 375.517232 83.359711 
L 377.783473 82.842444 
L 383.449077 81.527977 
L 385.715319 80.937684 
L 402.712131 76.988198 
L 412.910218 75.101695 
L 418.575822 74.079332 
L 428.773909 72.357137 
L 433.306392 71.681647 
L 440.105117 70.756652 
L 442.371358 70.446292 
L 445.770721 69.886427 
L 451.436324 69.156167 
L 455.968808 68.730183 
L 463.900653 67.744333 
L 468.433136 67.178382 
L 471.832499 66.892364 
L 475.231861 66.60026 
L 478.631223 66.277729 
L 483.163707 65.851744 
L 486.563069 65.571811 
L 495.628035 64.786783 
L 499.027398 64.622474 
L 502.42676 64.403396 
L 509.225485 63.965241 
L 512.624847 63.715736 
L 539.819746 62.35867 
L 551.150954 61.835318 
L 564.748403 61.208512 
L 598.742027 60.040097 
L 629.336288 59.328094 
L 641.800617 59.084674 
L 654.264945 58.853426 
L 670.128636 58.60392 
L 670.128636 58.60392 
" clip-path="url(#p054fa858d3)" style="fill: none; stroke-dasharray: 1.5,2.475; stroke-dashoffset: 0; stroke: #008000; stroke-width: 1.5"/>
   </g>
   <g id="patch_3">
    <path d="M 76.43 361.92625 
L 76.43 44.16 
" style="fill: none; stroke: #000000; stroke-width: 0.8; stroke-linejoin: miter; stroke-linecap: square"/>
   </g>
   <g id="patch_4">
    <path d="M 698.4 361.92625 
L 698.4 44.16 
" style="fill: none; stroke: #000000; stroke-width: 0.8; stroke-linejoin: miter; stroke-linecap: square"/>
   </g>
   <g id="patch_5">
    <path d="M 76.43 361.92625 
L 698.4 361.92625 
" style="fill: none; stroke: #000000; stroke-width: 0.8; stroke-linejoin: miter; stroke-linecap: square"/>
   </g>
   <g id="patch_6">
    <path d="M 76.43 44.16 
L 698.4 44.16 
" style="fill: none; stroke: #000000; stroke-width: 0.8; stroke-linejoin: miter; stroke-linecap: square"/>
   </g>
   <g id="text_14">
    <text style="font: 24px 'Times New Roman'; text-anchor: middle" x="387.415" y="38.16" transform="rotate(-0 387.415 38.16)">SSEIR on BA_Network</text>
   </g>
   <g id="legend_1">
    <g id="patch_7">
     <path d="M 590.4 276.832187 
L 684.4 276.832187 
Q 688.4 276.832187 688.4 272.832187 
L 688.4 133.254062 
Q 688.4 129.254062 684.4 129.254062 
L 590.4 129.254062 
Q 586.4 129.254062 586.4 133.254062 
L 586.4 272.832187 
Q 586.4 276.832187 590.4 276.832187 
z
" style="fill: #ffffff; opacity: 0.8; stroke: #cccccc; stroke-linejoin: miter"/>
    </g>
    <g id="line2d_17">
     <path d="M 594.4 144.254062 
L 614.4 144.254062 
L 634.4 144.254062 
" style="fill: none; stroke-dasharray: 5.55,2.4; stroke-dashoffset: 0; stroke: #0000ff; stroke-width: 1.5"/>
    </g>
    <g id="text_15">
     <text style="font: 20px 'Times New Roman'; text-anchor: start" x="650.4" y="151.254062" transform="rotate(-0 650.4 151.254062)">S_i</text>
    </g>
    <g id="line2d_18">
     <path d="M 594.4 172.569687 
L 614.4 172.569687 
L 634.4 172.569687 
" style="fill: none; stroke-dasharray: 5.55,2.4; stroke-dashoffset: 0; stroke: #000000; stroke-width: 1.5"/>
    </g>
    <g id="text_16">
     <text style="font: 20px 'Times New Roman'; text-anchor: start" x="650.4" y="179.569687" transform="rotate(-0 650.4 179.569687)">S_a</text>
    </g>
    <g id="line2d_19">
     <path d="M 594.4 200.885312 
L 614.4 200.885312 
L 634.4 200.885312 
" style="fill: none; stroke: #add8e6; stroke-width: 1.5; stroke-linecap: square"/>
    </g>
    <g id="text_17">
     <text style="font: 20px 'Times New Roman'; text-anchor: start" x="650.4" y="207.885312" transform="rotate(-0 650.4 207.885312)">E_t</text>
    </g>
    <g id="line2d_20">
     <path d="M 594.4 229.200937 
L 614.4 229.200937 
L 634.4 229.200937 
" style="fill: none; stroke-dasharray: 9.6,2.4,1.5,2.4; stroke-dashoffset: 0; stroke: #ff0000; stroke-width: 1.5"/>
    </g>
    <g id="text_18">
     <text style="font: 20px 'Times New Roman'; text-anchor: start" x="650.4" y="236.200937" transform="rotate(-0 650.4 236.200937)">I_t</text>
    </g>
    <g id="line2d_21">
     <path d="M 594.4 257.516562 
L 614.4 257.516562 
L 634.4 257.516562 
" style="fill: none; stroke-dasharray: 1.5,2.475; stroke-dashoffset: 0; stroke: #008000; stroke-width: 1.5"/>
    </g>
    <g id="text_19">
     <text style="font: 20px 'Times New Roman'; text-anchor: start" x="650.4" y="264.516562" transform="rotate(-0 650.4 264.516562)">R_t</text>
    </g>
   </g>
  </g>
 </g>
 <defs>
  <clipPath id="p054fa858d3">
   <rect x="76.43" y="44.16" width="621.97" height="317.76625"/>
  </clipPath>
 </defs>
</svg>
