<?xml version="1.0" encoding="utf-8" standalone="no"?>
<!DOCTYPE svg PUBLIC "-//W3C//DTD SVG 1.1//EN"
  "http://www.w3.org/Graphics/SVG/1.1/DTD/svg11.dtd">
<svg xmlns:xlink="http://www.w3.org/1999/xlink" width="720pt" height="432pt" viewBox="0 0 720 432" xmlns="http://www.w3.org/2000/svg" version="1.1">
 <metadata>
  <rdf:RDF xmlns:dc="http://purl.org/dc/elements/1.1/" xmlns:cc="http://creativecommons.org/ns#" xmlns:rdf="http://www.w3.org/1999/02/22-rdf-syntax-ns#">
   <cc:Work>
    <dc:type rdf:resource="http://purl.org/dc/dcmitype/StillImage"/>
    <dc:date>2024-09-08T21:15:08.662689</dc:date>
    <dc:format>image/svg+xml</dc:format>
    <dc:creator>
     <cc:Agent>
      <dc:title>Matplotlib v3.9.2, https://matplotlib.org/</dc:title>
     </cc:Agent>
    </dc:creator>
   </cc:Work>
  </rdf:RDF>
 </metadata>
 <defs>
  <style type="text/css">*{stroke-linejoin: round; stroke-linecap: butt}</style>
 </defs>
 <g id="figure_1">
  <g id="patch_1">
   <path d="M 0 432 
L 720 432 
L 720 0 
L 0 0 
z
" style="fill: #ffffff"/>
  </g>
  <g id="axes_1">
   <g id="patch_2">
    <path d="M 76.43 361.92625 
L 698.4 361.92625 
L 698.4 44.16 
L 76.43 44.16 
z
" style="fill: #ffffff"/>
   </g>
   <g id="matplotlib.axis_1">
    <g id="xtick_1">
     <g id="line2d_1">
      <defs>
       <path id="m33dd10c2bc" d="M 0 0 
L 0 3.5 
" style="stroke: #000000; stroke-width: 0.8"/>
      </defs>
      <g>
       <use xlink:href="#m33dd10c2bc" x="103.568243" y="361.92625" style="stroke: #000000; stroke-width: 0.8"/>
      </g>
     </g>
     <g id="text_1">
      <text style="font: 20px 'Times New Roman'; text-anchor: middle" x="103.568243" y="382.81375" transform="rotate(-0 103.568243 382.81375)">0</text>
     </g>
    </g>
    <g id="xtick_2">
     <g id="line2d_2">
      <g>
       <use xlink:href="#m33dd10c2bc" x="216.880322" y="361.92625" style="stroke: #000000; stroke-width: 0.8"/>
      </g>
     </g>
     <g id="text_2">
      <text style="font: 20px 'Times New Roman'; text-anchor: middle" x="216.880322" y="382.81375" transform="rotate(-0 216.880322 382.81375)">100</text>
     </g>
    </g>
    <g id="xtick_3">
     <g id="line2d_3">
      <g>
       <use xlink:href="#m33dd10c2bc" x="330.1924" y="361.92625" style="stroke: #000000; stroke-width: 0.8"/>
      </g>
     </g>
     <g id="text_3">
      <text style="font: 20px 'Times New Roman'; text-anchor: middle" x="330.1924" y="382.81375" transform="rotate(-0 330.1924 382.81375)">200</text>
     </g>
    </g>
    <g id="xtick_4">
     <g id="line2d_4">
      <g>
       <use xlink:href="#m33dd10c2bc" x="443.504479" y="361.92625" style="stroke: #000000; stroke-width: 0.8"/>
      </g>
     </g>
     <g id="text_4">
      <text style="font: 20px 'Times New Roman'; text-anchor: middle" x="443.504479" y="382.81375" transform="rotate(-0 443.504479 382.81375)">300</text>
     </g>
    </g>
    <g id="xtick_5">
     <g id="line2d_5">
      <g>
       <use xlink:href="#m33dd10c2bc" x="556.816558" y="361.92625" style="stroke: #000000; stroke-width: 0.8"/>
      </g>
     </g>
     <g id="text_5">
      <text style="font: 20px 'Times New Roman'; text-anchor: middle" x="556.816558" y="382.81375" transform="rotate(-0 556.816558 382.81375)">400</text>
     </g>
    </g>
    <g id="xtick_6">
     <g id="line2d_6">
      <g>
       <use xlink:href="#m33dd10c2bc" x="670.128636" y="361.92625" style="stroke: #000000; stroke-width: 0.8"/>
      </g>
     </g>
     <g id="text_6">
      <text style="font: 20px 'Times New Roman'; text-anchor: middle" x="670.128636" y="382.81375" transform="rotate(-0 670.128636 382.81375)">500</text>
     </g>
    </g>
    <g id="text_7">
     <text style="font: 20px 'Times New Roman'; text-anchor: middle" x="387.415" y="404.979375" transform="rotate(-0 387.415 404.979375)">(A)   Time (t)</text>
    </g>
   </g>
   <g id="matplotlib.axis_2">
    <g id="ytick_1">
     <g id="line2d_7">
      <defs>
       <path id="m53a4b5b866" d="M 0 0 
L -3.5 0 
" style="stroke: #000000; stroke-width: 0.8"/>
      </defs>
      <g>
       <use xlink:href="#m53a4b5b866" x="76.43" y="347.48233" style="stroke: #000000; stroke-width: 0.8"/>
      </g>
     </g>
     <g id="text_8">
      <text style="font: 20px 'Times New Roman'; text-anchor: end" x="69.43" y="354.42608" transform="rotate(-0 69.43 354.42608)">0.0</text>
     </g>
    </g>
    <g id="ytick_2">
     <g id="line2d_8">
      <g>
       <use xlink:href="#m53a4b5b866" x="76.43" y="289.140033" style="stroke: #000000; stroke-width: 0.8"/>
      </g>
     </g>
     <g id="text_9">
      <text style="font: 20px 'Times New Roman'; text-anchor: end" x="69.43" y="296.083783" transform="rotate(-0 69.43 296.083783)">0.2</text>
     </g>
    </g>
    <g id="ytick_3">
     <g id="line2d_9">
      <g>
       <use xlink:href="#m53a4b5b866" x="76.43" y="230.797736" style="stroke: #000000; stroke-width: 0.8"/>
      </g>
     </g>
     <g id="text_10">
      <text style="font: 20px 'Times New Roman'; text-anchor: end" x="69.43" y="237.741486" transform="rotate(-0 69.43 237.741486)">0.4</text>
     </g>
    </g>
    <g id="ytick_4">
     <g id="line2d_10">
      <g>
       <use xlink:href="#m53a4b5b866" x="76.43" y="172.455439" style="stroke: #000000; stroke-width: 0.8"/>
      </g>
     </g>
     <g id="text_11">
      <text style="font: 20px 'Times New Roman'; text-anchor: end" x="69.43" y="179.399189" transform="rotate(-0 69.43 179.399189)">0.6</text>
     </g>
    </g>
    <g id="ytick_5">
     <g id="line2d_11">
      <g>
       <use xlink:href="#m53a4b5b866" x="76.43" y="114.113142" style="stroke: #000000; stroke-width: 0.8"/>
      </g>
     </g>
     <g id="text_12">
      <text style="font: 20px 'Times New Roman'; text-anchor: end" x="69.43" y="121.056892" transform="rotate(-0 69.43 121.056892)">0.8</text>
     </g>
    </g>
    <g id="ytick_6">
     <g id="line2d_12">
      <g>
       <use xlink:href="#m53a4b5b866" x="76.43" y="55.770845" style="stroke: #000000; stroke-width: 0.8"/>
      </g>
     </g>
     <g id="text_13">
      <text style="font: 20px 'Times New Roman'; text-anchor: end" x="69.43" y="62.714595" transform="rotate(-0 69.43 62.714595)">1.0</text>
     </g>
    </g>
    <g id="text_14">
     <text style="font: 20px 'Times New Roman'; text-anchor: middle" x="36.114375" y="203.043125" transform="rotate(-90 36.114375 203.043125)">Density</text>
    </g>
   </g>
   <g id="line2d_13">
    <path d="M 104.701364 145.290245 
L 106.967605 146.552252 
L 109.233847 148.093957 
L 111.500088 149.996445 
L 113.76633 152.357724 
L 116.032572 155.294542 
L 118.298813 158.943004 
L 120.565055 163.456934 
L 122.831296 169.002532 
L 125.097538 175.74752 
L 127.363779 183.843015 
L 129.630021 193.397127 
L 131.896263 204.441318 
L 134.162504 216.894154 
L 136.428746 230.531628 
L 140.961229 259.721391 
L 144.360591 281.124671 
L 146.626833 294.113677 
L 148.893074 305.591899 
L 151.159316 315.339931 
L 152.292437 319.547041 
L 153.425557 323.320138 
L 154.558678 326.677158 
L 155.691799 329.641909 
L 156.82492 332.242315 
L 157.958041 334.508796 
L 159.091161 336.47286 
L 160.224282 338.165946 
L 161.357403 339.618525 
L 162.490524 340.859444 
L 163.623645 341.915492 
L 165.889886 343.568471 
L 168.156128 344.74443 
L 170.422369 345.573657 
L 172.688611 346.154523 
L 176.087973 346.712996 
L 179.487336 347.036088 
L 185.15294 347.300635 
L 194.217906 347.437304 
L 219.146563 347.480867 
L 670.128636 347.48233 
L 670.128636 347.48233 
" clip-path="url(#p970cb6d756)" style="fill: none; stroke-dasharray: 5.55,2.4; stroke-dashoffset: 0; stroke: #0000ff; stroke-width: 1.5"/>
   </g>
   <g id="line2d_14">
    <path d="M 104.701364 263.08903 
L 108.100726 263.828808 
L 111.500088 264.836988 
L 113.76633 265.71565 
L 116.032572 266.810037 
L 118.298813 268.172066 
L 120.565055 269.861032 
L 122.831296 271.942007 
L 125.097538 274.482285 
L 127.363779 277.545208 
L 129.630021 281.180848 
L 131.896263 285.413743 
L 134.162504 290.229023 
L 136.428746 295.55996 
L 139.828108 304.2343 
L 145.493712 318.839299 
L 147.759954 324.107157 
L 150.026195 328.796846 
L 152.292437 332.826257 
L 154.558678 336.178551 
L 156.82492 338.889418 
L 159.091161 341.028832 
L 161.357403 342.683152 
L 163.623645 343.941131 
L 165.889886 344.884921 
L 168.156128 345.585493 
L 171.55549 346.304769 
L 174.954852 346.753459 
L 179.487336 347.097633 
L 186.28606 347.333048 
L 197.617268 347.449552 
L 233.877133 347.481771 
L 670.128636 347.482329 
L 670.128636 347.482329 
" clip-path="url(#p970cb6d756)" style="fill: none; stroke-dasharray: 5.55,2.4; stroke-dashoffset: 0; stroke: #000000; stroke-width: 1.5"/>
   </g>
   <g id="line2d_15">
    <path d="M 104.701364 346.934933 
L 106.967605 345.719965 
L 109.233847 344.296044 
L 111.500088 342.594703 
L 113.76633 340.534559 
L 116.032572 338.020244 
L 118.298813 334.94257 
L 120.565055 331.180916 
L 122.831296 326.609147 
L 125.097538 321.106642 
L 127.363779 314.575889 
L 129.630021 306.967275 
L 131.896263 298.309623 
L 134.162504 288.741608 
L 138.694987 268.096887 
L 142.09435 253.146135 
L 144.360591 244.455219 
L 145.493712 240.677701 
L 146.626833 237.341501 
L 147.759954 234.479318 
L 148.893074 232.111307 
L 150.026195 230.245062 
L 151.159316 228.876307 
L 152.292437 227.990166 
L 153.425557 227.562849 
L 154.558678 227.563575 
L 155.691799 227.956549 
L 156.82492 228.702865 
L 157.958041 229.762209 
L 159.091161 231.094309 
L 160.224282 232.660087 
L 162.490524 236.347286 
L 164.756765 240.561585 
L 168.156128 247.420212 
L 176.087973 263.684814 
L 179.487336 270.215506 
L 182.886698 276.345232 
L 186.28606 282.05067 
L 189.685423 287.334029 
L 193.084785 292.211134 
L 196.484147 296.704486 
L 199.88351 300.839303 
L 203.282872 304.641352 
L 206.682234 308.135781 
L 210.081597 311.346536 
L 213.480959 314.296096 
L 216.880322 317.005385 
L 220.279684 319.493787 
L 224.812167 322.498778 
L 229.34465 325.181306 
L 233.877133 327.575897 
L 238.409617 329.713417 
L 242.9421 331.621441 
L 247.474583 333.324599 
L 253.140187 335.198723 
L 258.805791 336.824769 
L 264.471395 338.23557 
L 271.270119 339.684253 
L 278.068844 340.905974 
L 286.00069 342.091578 
L 295.065656 343.187167 
L 304.130622 344.060095 
L 314.328709 344.831961 
L 326.793038 345.543073 
L 341.523608 346.141737 
L 359.653541 346.631276 
L 382.315956 347.000068 
L 412.910218 347.258317 
L 460.501291 347.414369 
L 563.615282 347.477202 
L 670.128636 347.481974 
L 670.128636 347.481974 
" clip-path="url(#p970cb6d756)" style="fill: none; stroke: #add8e6; stroke-width: 1.5; stroke-linecap: square"/>
   </g>
   <g id="line2d_16">
    <path d="M 104.701364 345.557034 
L 108.100726 344.857877 
L 110.366968 344.209719 
L 112.633209 343.372938 
L 114.899451 342.3013 
L 117.165692 340.939242 
L 119.431934 339.221579 
L 121.698175 337.074262 
L 123.964417 334.41687 
L 126.230659 331.167655 
L 128.4969 327.251892 
L 130.763142 322.61392 
L 133.029383 317.2323 
L 135.295625 311.135907 
L 137.561866 304.416935 
L 140.961229 293.538045 
L 146.626833 275.257104 
L 148.893074 268.612739 
L 151.159316 262.633359 
L 153.425557 257.416793 
L 155.691799 252.994237 
L 157.958041 249.344075 
L 160.224282 246.409735 
L 162.490524 244.116416 
L 164.756765 242.383918 
L 167.023007 241.134972 
L 169.289248 240.299716 
L 171.55549 239.817436 
L 173.821732 239.636623 
L 176.087973 239.71414 
L 178.354215 240.014047 
L 180.620456 240.506365 
L 184.019819 241.551698 
L 187.419181 242.904987 
L 190.818543 244.511107 
L 195.351027 246.969394 
L 199.88351 249.711672 
L 205.549114 253.43383 
L 212.347838 258.190296 
L 223.679046 266.45459 
L 238.409617 277.171288 
L 247.474583 283.492397 
L 255.406428 288.762938 
L 263.338274 293.752275 
L 270.136999 297.788987 
L 276.935723 301.597394 
L 283.734448 305.175987 
L 290.533173 308.526931 
L 297.331897 311.655174 
L 304.130622 314.567724 
L 312.062468 317.704459 
L 319.994313 320.574339 
L 327.926159 323.193587 
L 335.858004 325.578909 
L 343.78985 327.747036 
L 352.854816 329.980001 
L 361.919782 331.974381 
L 370.984749 333.75261 
L 381.182836 335.520873 
L 391.380923 337.069807 
L 402.712131 338.564195 
L 415.176459 339.968183 
L 428.773909 341.254657 
L 443.504479 342.405678 
L 459.36817 343.412173 
L 477.498103 344.323524 
L 497.894277 345.109618 
L 520.556692 345.757546 
L 547.751591 346.307248 
L 580.612094 346.744102 
L 623.670684 347.081367 
L 670.128636 347.275013 
L 670.128636 347.275013 
" clip-path="url(#p970cb6d756)" style="fill: none; stroke-dasharray: 9.6,2.4,1.5,2.4; stroke-dashoffset: 0; stroke: #ff0000; stroke-width: 1.5"/>
   </g>
   <g id="line2d_17">
    <path d="M 104.701364 347.454325 
L 110.366968 347.172183 
L 114.899451 346.704632 
L 118.298813 346.138626 
L 121.698175 345.308709 
L 123.964417 344.561981 
L 126.230659 343.620386 
L 128.4969 342.444245 
L 130.763142 340.990343 
L 133.029383 339.214069 
L 135.295625 337.072686 
L 137.561866 334.529618 
L 139.828108 331.559266 
L 142.09435 328.151474 
L 144.360591 324.314509 
L 146.626833 320.075594 
L 150.026195 313.062982 
L 153.425557 305.439945 
L 157.958041 294.685132 
L 172.688611 259.178514 
L 178.354215 246.252019 
L 184.019819 233.936125 
L 189.685423 222.259867 
L 194.217906 213.381586 
L 198.750389 204.909432 
L 203.282872 196.835219 
L 207.815355 189.148819 
L 212.347838 181.838855 
L 216.880322 174.893122 
L 221.412805 168.298886 
L 225.945288 162.04309 
L 230.477771 156.112516 
L 235.010254 150.493908 
L 239.542737 145.174072 
L 244.07522 140.13996 
L 248.607704 135.378734 
L 253.140187 130.877817 
L 258.805791 125.599068 
L 264.471395 120.684686 
L 270.136999 116.112347 
L 275.802602 111.860677 
L 281.468206 107.909278 
L 287.13381 104.238744 
L 292.799414 100.830661 
L 298.465018 97.6676 
L 304.130622 94.733096 
L 310.929347 91.491597 
L 317.728072 88.531825 
L 324.526796 85.830499 
L 331.325521 83.366061 
L 338.124246 81.118586 
L 346.056091 78.746295 
L 353.987937 76.617608 
L 361.919782 74.70826 
L 370.984749 72.766618 
L 380.049715 71.05331 
L 390.247802 69.366167 
L 400.445889 67.901786 
L 411.777097 66.500903 
L 424.241426 65.195475 
L 437.838875 64.008504 
L 452.569445 62.954071 
L 468.433136 62.038012 
L 486.563069 61.213496 
L 506.959243 60.506221 
L 530.75478 59.901709 
L 560.21592 59.387085 
L 596.475785 58.988141 
L 645.199979 58.692302 
L 670.128636 58.60392 
L 670.128636 58.60392 
" clip-path="url(#p970cb6d756)" style="fill: none; stroke-dasharray: 1.5,2.475; stroke-dashoffset: 0; stroke: #008000; stroke-width: 1.5"/>
   </g>
   <g id="patch_3">
    <path d="M 76.43 361.92625 
L 76.43 44.16 
" style="fill: none; stroke: #000000; stroke-width: 0.8; stroke-linejoin: miter; stroke-linecap: square"/>
   </g>
   <g id="patch_4">
    <path d="M 698.4 361.92625 
L 698.4 44.16 
" style="fill: none; stroke: #000000; stroke-width: 0.8; stroke-linejoin: miter; stroke-linecap: square"/>
   </g>
   <g id="patch_5">
    <path d="M 76.43 361.92625 
L 698.4 361.92625 
" style="fill: none; stroke: #000000; stroke-width: 0.8; stroke-linejoin: miter; stroke-linecap: square"/>
   </g>
   <g id="patch_6">
    <path d="M 76.43 44.16 
L 698.4 44.16 
" style="fill: none; stroke: #000000; stroke-width: 0.8; stroke-linejoin: miter; stroke-linecap: square"/>
   </g>
   <g id="text_15">
    <text style="font: 24px 'Times New Roman'; text-anchor: middle" x="387.415" y="38.16" transform="rotate(-0 387.415 38.16)">SSEIR Theoretical model</text>
   </g>
   <g id="legend_1">
    <g id="patch_7">
     <path d="M 590.4 276.832187 
L 684.4 276.832187 
Q 688.4 276.832187 688.4 272.832187 
L 688.4 133.254062 
Q 688.4 129.254062 684.4 129.254062 
L 590.4 129.254062 
Q 586.4 129.254062 586.4 133.254062 
L 586.4 272.832187 
Q 586.4 276.832187 590.4 276.832187 
z
" style="fill: #ffffff; opacity: 0.8; stroke: #cccccc; stroke-linejoin: miter"/>
    </g>
    <g id="line2d_18">
     <path d="M 594.4 144.254062 
L 614.4 144.254062 
L 634.4 144.254062 
" style="fill: none; stroke-dasharray: 5.55,2.4; stroke-dashoffset: 0; stroke: #0000ff; stroke-width: 1.5"/>
    </g>
    <g id="text_16">
     <text style="font: 20px 'Times New Roman'; text-anchor: start" x="650.4" y="151.254062" transform="rotate(-0 650.4 151.254062)">S_i</text>
    </g>
    <g id="line2d_19">
     <path d="M 594.4 172.569687 
L 614.4 172.569687 
L 634.4 172.569687 
" style="fill: none; stroke-dasharray: 5.55,2.4; stroke-dashoffset: 0; stroke: #000000; stroke-width: 1.5"/>
    </g>
    <g id="text_17">
     <text style="font: 20px 'Times New Roman'; text-anchor: start" x="650.4" y="179.569687" transform="rotate(-0 650.4 179.569687)">S_a</text>
    </g>
    <g id="line2d_20">
     <path d="M 594.4 200.885312 
L 614.4 200.885312 
L 634.4 200.885312 
" style="fill: none; stroke: #add8e6; stroke-width: 1.5; stroke-linecap: square"/>
    </g>
    <g id="text_18">
     <text style="font: 20px 'Times New Roman'; text-anchor: start" x="650.4" y="207.885312" transform="rotate(-0 650.4 207.885312)">E_t</text>
    </g>
    <g id="line2d_21">
     <path d="M 594.4 229.200937 
L 614.4 229.200937 
L 634.4 229.200937 
" style="fill: none; stroke-dasharray: 9.6,2.4,1.5,2.4; stroke-dashoffset: 0; stroke: #ff0000; stroke-width: 1.5"/>
    </g>
    <g id="text_19">
     <text style="font: 20px 'Times New Roman'; text-anchor: start" x="650.4" y="236.200937" transform="rotate(-0 650.4 236.200937)">I_t</text>
    </g>
    <g id="line2d_22">
     <path d="M 594.4 257.516562 
L 614.4 257.516562 
L 634.4 257.516562 
" style="fill: none; stroke-dasharray: 1.5,2.475; stroke-dashoffset: 0; stroke: #008000; stroke-width: 1.5"/>
    </g>
    <g id="text_20">
     <text style="font: 20px 'Times New Roman'; text-anchor: start" x="650.4" y="264.516562" transform="rotate(-0 650.4 264.516562)">R_t</text>
    </g>
   </g>
  </g>
 </g>
 <defs>
  <clipPath id="p970cb6d756">
   <rect x="76.43" y="44.16" width="621.97" height="317.76625"/>
  </clipPath>
 </defs>
</svg>
