<?xml version="1.0" encoding="utf-8" standalone="no"?>
<!DOCTYPE svg PUBLIC "-//W3C//DTD SVG 1.1//EN"
  "http://www.w3.org/Graphics/SVG/1.1/DTD/svg11.dtd">
<svg xmlns:xlink="http://www.w3.org/1999/xlink" width="720pt" height="432pt" viewBox="0 0 720 432" xmlns="http://www.w3.org/2000/svg" version="1.1">
 <metadata>
  <rdf:RDF xmlns:dc="http://purl.org/dc/elements/1.1/" xmlns:cc="http://creativecommons.org/ns#" xmlns:rdf="http://www.w3.org/1999/02/22-rdf-syntax-ns#">
   <cc:Work>
    <dc:type rdf:resource="http://purl.org/dc/dcmitype/StillImage"/>
    <dc:date>2024-09-08T21:15:08.946765</dc:date>
    <dc:format>image/svg+xml</dc:format>
    <dc:creator>
     <cc:Agent>
      <dc:title>Matplotlib v3.9.2, https://matplotlib.org/</dc:title>
     </cc:Agent>
    </dc:creator>
   </cc:Work>
  </rdf:RDF>
 </metadata>
 <defs>
  <style type="text/css">*{stroke-linejoin: round; stroke-linecap: butt}</style>
 </defs>
 <g id="figure_1">
  <g id="patch_1">
   <path d="M 0 432 
L 720 432 
L 720 0 
L 0 0 
z
" style="fill: #ffffff"/>
  </g>
  <g id="axes_1">
   <g id="patch_2">
    <path d="M 76.43 361.92625 
L 698.4 361.92625 
L 698.4 44.16 
L 76.43 44.16 
z
" style="fill: #ffffff"/>
   </g>
   <g id="matplotlib.axis_1">
    <g id="xtick_1">
     <g id="line2d_1">
      <defs>
       <path id="m9906f90cbd" d="M 0 0 
L 0 3.5 
" style="stroke: #000000; stroke-width: 0.8"/>
      </defs>
      <g>
       <use xlink:href="#m9906f90cbd" x="103.568243" y="361.92625" style="stroke: #000000; stroke-width: 0.8"/>
      </g>
     </g>
     <g id="text_1">
      <text style="font: 20px 'Times New Roman'; text-anchor: middle" x="103.568243" y="382.81375" transform="rotate(-0 103.568243 382.81375)">0</text>
     </g>
    </g>
    <g id="xtick_2">
     <g id="line2d_2">
      <g>
       <use xlink:href="#m9906f90cbd" x="216.880322" y="361.92625" style="stroke: #000000; stroke-width: 0.8"/>
      </g>
     </g>
     <g id="text_2">
      <text style="font: 20px 'Times New Roman'; text-anchor: middle" x="216.880322" y="382.81375" transform="rotate(-0 216.880322 382.81375)">100</text>
     </g>
    </g>
    <g id="xtick_3">
     <g id="line2d_3">
      <g>
       <use xlink:href="#m9906f90cbd" x="330.1924" y="361.92625" style="stroke: #000000; stroke-width: 0.8"/>
      </g>
     </g>
     <g id="text_3">
      <text style="font: 20px 'Times New Roman'; text-anchor: middle" x="330.1924" y="382.81375" transform="rotate(-0 330.1924 382.81375)">200</text>
     </g>
    </g>
    <g id="xtick_4">
     <g id="line2d_4">
      <g>
       <use xlink:href="#m9906f90cbd" x="443.504479" y="361.92625" style="stroke: #000000; stroke-width: 0.8"/>
      </g>
     </g>
     <g id="text_4">
      <text style="font: 20px 'Times New Roman'; text-anchor: middle" x="443.504479" y="382.81375" transform="rotate(-0 443.504479 382.81375)">300</text>
     </g>
    </g>
    <g id="xtick_5">
     <g id="line2d_5">
      <g>
       <use xlink:href="#m9906f90cbd" x="556.816558" y="361.92625" style="stroke: #000000; stroke-width: 0.8"/>
      </g>
     </g>
     <g id="text_5">
      <text style="font: 20px 'Times New Roman'; text-anchor: middle" x="556.816558" y="382.81375" transform="rotate(-0 556.816558 382.81375)">400</text>
     </g>
    </g>
    <g id="xtick_6">
     <g id="line2d_6">
      <g>
       <use xlink:href="#m9906f90cbd" x="670.128636" y="361.92625" style="stroke: #000000; stroke-width: 0.8"/>
      </g>
     </g>
     <g id="text_6">
      <text style="font: 20px 'Times New Roman'; text-anchor: middle" x="670.128636" y="382.81375" transform="rotate(-0 670.128636 382.81375)">500</text>
     </g>
    </g>
    <g id="text_7">
     <text style="font: 20px 'Times New Roman'; text-anchor: middle" x="387.415" y="404.979375" transform="rotate(-0 387.415 404.979375)">(D)   Time (t)</text>
    </g>
   </g>
   <g id="matplotlib.axis_2">
    <g id="ytick_1">
     <g id="line2d_7">
      <defs>
       <path id="md296a8ef65" d="M 0 0 
L -3.5 0 
" style="stroke: #000000; stroke-width: 0.8"/>
      </defs>
      <g>
       <use xlink:href="#md296a8ef65" x="76.43" y="347.48233" style="stroke: #000000; stroke-width: 0.8"/>
      </g>
     </g>
     <g id="text_8">
      <text style="font: 20px 'Times New Roman'; text-anchor: end" x="69.43" y="354.42608" transform="rotate(-0 69.43 354.42608)">0.0</text>
     </g>
    </g>
    <g id="ytick_2">
     <g id="line2d_8">
      <g>
       <use xlink:href="#md296a8ef65" x="76.43" y="289.000183" style="stroke: #000000; stroke-width: 0.8"/>
      </g>
     </g>
     <g id="text_9">
      <text style="font: 20px 'Times New Roman'; text-anchor: end" x="69.43" y="295.943933" transform="rotate(-0 69.43 295.943933)">0.2</text>
     </g>
    </g>
    <g id="ytick_3">
     <g id="line2d_9">
      <g>
       <use xlink:href="#md296a8ef65" x="76.43" y="230.518037" style="stroke: #000000; stroke-width: 0.8"/>
      </g>
     </g>
     <g id="text_10">
      <text style="font: 20px 'Times New Roman'; text-anchor: end" x="69.43" y="237.461787" transform="rotate(-0 69.43 237.461787)">0.4</text>
     </g>
    </g>
    <g id="ytick_4">
     <g id="line2d_10">
      <g>
       <use xlink:href="#md296a8ef65" x="76.43" y="172.035891" style="stroke: #000000; stroke-width: 0.8"/>
      </g>
     </g>
     <g id="text_11">
      <text style="font: 20px 'Times New Roman'; text-anchor: end" x="69.43" y="178.979641" transform="rotate(-0 69.43 178.979641)">0.6</text>
     </g>
    </g>
    <g id="ytick_5">
     <g id="line2d_11">
      <g>
       <use xlink:href="#md296a8ef65" x="76.43" y="113.553745" style="stroke: #000000; stroke-width: 0.8"/>
      </g>
     </g>
     <g id="text_12">
      <text style="font: 20px 'Times New Roman'; text-anchor: end" x="69.43" y="120.497495" transform="rotate(-0 69.43 120.497495)">0.8</text>
     </g>
    </g>
    <g id="ytick_6">
     <g id="line2d_12">
      <g>
       <use xlink:href="#md296a8ef65" x="76.43" y="55.071599" style="stroke: #000000; stroke-width: 0.8"/>
      </g>
     </g>
     <g id="text_13">
      <text style="font: 20px 'Times New Roman'; text-anchor: end" x="69.43" y="62.015349" transform="rotate(-0 69.43 62.015349)">1.0</text>
     </g>
    </g>
    <g id="text_14">
     <text style="font: 20px 'Times New Roman'; text-anchor: middle" x="36.114375" y="203.043125" transform="rotate(-90 36.114375 203.043125)">Density</text>
    </g>
   </g>
   <g id="line2d_13">
    <path d="M 104.701364 144.549282 
L 109.233847 146.678033 
L 112.633209 148.145934 
L 118.298813 150.339015 
L 120.565055 151.116827 
L 133.029383 156.204774 
L 139.828108 159.456381 
L 143.22747 161.403837 
L 146.626833 163.509194 
L 148.893074 165.012185 
L 152.292437 167.228659 
L 157.958041 171.720088 
L 159.091161 172.573927 
L 163.623645 176.52732 
L 164.756765 177.357766 
L 167.023007 179.550847 
L 170.422369 182.761517 
L 173.821732 186.662276 
L 174.954852 187.802678 
L 178.354215 191.861339 
L 180.620456 194.884866 
L 184.019819 198.908437 
L 188.552302 205.013973 
L 190.818543 208.376697 
L 195.351027 214.827277 
L 196.484147 216.318572 
L 197.617268 218.178304 
L 198.750389 219.757322 
L 201.016631 223.242858 
L 202.149751 224.880358 
L 206.682234 232.190627 
L 208.948476 235.430538 
L 213.480959 242.536118 
L 214.61408 244.436788 
L 215.747201 246.062592 
L 222.545925 257.226833 
L 227.078409 264.420137 
L 232.744013 273.847459 
L 240.675858 286.005898 
L 247.474583 295.749023 
L 248.607704 297.211077 
L 249.740824 298.866121 
L 252.007066 301.5563 
L 254.273308 304.462863 
L 261.072032 311.948578 
L 266.737636 317.498533 
L 269.003878 319.510319 
L 270.136999 320.299828 
L 272.40324 322.282373 
L 280.335086 327.750453 
L 283.734448 329.809025 
L 288.266931 332.160007 
L 295.065656 335.247865 
L 298.465018 336.394115 
L 309.796226 339.97907 
L 316.594951 341.458668 
L 325.659917 343.008445 
L 335.858004 344.277508 
L 347.189212 345.160588 
L 358.52042 345.815588 
L 372.117869 346.271749 
L 397.046527 346.809785 
L 410.643976 346.909205 
L 471.832499 347.11974 
L 670.128636 347.189919 
L 670.128636 347.189919 
" clip-path="url(#p5cf9cff530)" style="fill: none; stroke-dasharray: 5.55,2.4; stroke-dashoffset: 0; stroke: #0000ff; stroke-width: 1.5"/>
   </g>
   <g id="line2d_14">
    <path d="M 104.701364 260.495985 
L 108.100726 261.057414 
L 114.899451 262.285539 
L 119.431934 263.051655 
L 127.363779 264.349959 
L 135.295625 265.888039 
L 139.828108 266.812057 
L 148.893074 269.145495 
L 157.958041 271.888307 
L 160.224282 272.841566 
L 167.023007 275.367995 
L 172.688611 277.759915 
L 178.354215 280.596299 
L 180.620456 281.818576 
L 187.419181 285.491255 
L 201.016631 293.579335 
L 204.415993 295.92447 
L 207.815355 297.971345 
L 216.880322 303.837104 
L 221.412805 307.041925 
L 222.545925 307.732015 
L 228.211529 311.761435 
L 232.744013 314.697238 
L 235.010254 316.16514 
L 239.542737 318.960587 
L 241.808979 320.45773 
L 245.208341 322.902284 
L 246.341462 323.487105 
L 247.474583 324.311703 
L 249.740824 325.639248 
L 252.007066 327.025275 
L 255.406428 328.779739 
L 257.67267 330.189159 
L 262.205153 332.218489 
L 265.604515 333.65715 
L 269.003878 335.113356 
L 271.270119 335.98474 
L 272.40324 336.47599 
L 275.802602 337.499427 
L 276.935723 337.774293 
L 279.201965 338.557954 
L 290.533173 340.967418 
L 293.932535 341.522999 
L 299.598139 342.511347 
L 315.46183 344.452954 
L 322.260555 345.09041 
L 339.257367 346.131392 
L 344.92297 346.353624 
L 350.588574 346.56416 
L 378.916594 347.037865 
L 452.569445 347.312731 
L 670.128636 347.347821 
L 670.128636 347.347821 
" clip-path="url(#p5cf9cff530)" style="fill: none; stroke-dasharray: 5.55,2.4; stroke-dashoffset: 0; stroke: #000000; stroke-width: 1.5"/>
   </g>
   <g id="line2d_15">
    <path d="M 104.701364 346.985231 
L 106.967605 345.955946 
L 110.366968 344.681035 
L 117.165692 342.844695 
L 121.698175 341.990856 
L 123.964417 341.493758 
L 126.230659 340.903088 
L 128.4969 340.587285 
L 131.896263 340.30657 
L 136.428746 339.376704 
L 138.694987 339.119383 
L 144.360591 337.709963 
L 146.626833 337.142686 
L 147.759954 336.739159 
L 154.558678 334.949606 
L 156.82492 334.212731 
L 157.958041 333.733177 
L 159.091161 333.528489 
L 160.224282 332.990454 
L 161.357403 332.715588 
L 162.490524 332.241882 
L 163.623645 331.902686 
L 164.756765 331.697998 
L 170.422369 329.855811 
L 171.55549 329.247596 
L 172.688611 328.820677 
L 174.954852 328.2534 
L 177.221094 327.206569 
L 179.487336 326.194828 
L 180.620456 325.522284 
L 182.886698 324.639203 
L 184.019819 324.317551 
L 188.552302 322.276525 
L 189.685423 321.457775 
L 191.951664 320.241346 
L 193.084785 319.808578 
L 194.217906 319.53956 
L 195.351027 319.04831 
L 196.484147 318.826078 
L 198.750389 317.995631 
L 199.88351 317.422506 
L 202.149751 316.65639 
L 203.282872 316.118355 
L 205.549114 314.85514 
L 207.815355 314.398979 
L 208.948476 313.913578 
L 210.081597 313.743979 
L 212.347838 312.878444 
L 214.61408 312.112328 
L 215.747201 311.983667 
L 216.880322 311.597685 
L 220.279684 310.732149 
L 221.412805 310.287685 
L 227.078409 309.217461 
L 228.211529 308.708667 
L 229.34465 308.644336 
L 232.744013 308.04197 
L 237.276496 307.87822 
L 239.542737 307.655988 
L 241.808979 307.720318 
L 242.9421 307.843131 
L 244.07522 307.720318 
L 245.208341 307.749559 
L 246.341462 307.568265 
L 247.474583 307.743711 
L 248.607704 308.223265 
L 249.740824 308.287595 
L 252.007066 308.919202 
L 255.406428 309.562506 
L 257.67267 310.182417 
L 259.938911 311.147372 
L 265.604515 312.784872 
L 266.737636 313.375542 
L 269.003878 314.13581 
L 270.136999 314.849292 
L 272.40324 315.457506 
L 275.802602 316.972194 
L 276.935723 317.328935 
L 279.201965 318.445944 
L 282.601327 319.451837 
L 284.867569 320.463578 
L 287.13381 321.53965 
L 288.266931 321.890542 
L 293.932535 324.656748 
L 296.198777 325.6334 
L 298.465018 326.867373 
L 301.864381 328.200766 
L 302.997501 328.74465 
L 304.130622 329.130632 
L 305.263743 329.697909 
L 313.195588 332.458266 
L 315.46183 333.230231 
L 317.728072 333.885231 
L 322.260555 335.376525 
L 324.526796 335.990588 
L 326.793038 336.522775 
L 327.926159 336.920454 
L 330.1924 337.446793 
L 332.458642 338.136883 
L 335.858004 338.844517 
L 349.455454 341.721838 
L 351.721695 341.949919 
L 353.987937 342.277419 
L 358.52042 342.897329 
L 361.919782 343.242374 
L 369.851628 344.195633 
L 372.117869 344.365231 
L 402.712131 346.154785 
L 406.111493 346.23666 
L 415.176459 346.558312 
L 420.842063 346.686972 
L 428.773909 346.862419 
L 441.238237 347.032017 
L 459.36817 347.201615 
L 484.296827 347.347821 
L 525.089176 347.453088 
L 670.128636 347.476481 
L 670.128636 347.476481 
" clip-path="url(#p5cf9cff530)" style="fill: none; stroke: #add8e6; stroke-width: 1.5; stroke-linecap: square"/>
   </g>
   <g id="line2d_16">
    <path d="M 104.701364 345.803892 
L 106.967605 345.435454 
L 110.366968 344.692731 
L 112.633209 344.137151 
L 117.165692 342.885633 
L 119.431934 342.236481 
L 123.964417 341.16041 
L 126.230659 340.458624 
L 128.4969 339.81532 
L 131.896263 338.546258 
L 135.295625 337.300588 
L 136.428746 336.937999 
L 139.828108 335.540275 
L 144.360591 333.686391 
L 153.425557 329.206659 
L 157.958041 326.867373 
L 159.091161 325.978444 
L 165.889886 321.925632 
L 168.156128 320.206257 
L 170.422369 318.703265 
L 171.55549 317.884515 
L 179.487336 310.644426 
L 181.753577 308.965988 
L 182.886698 307.843131 
L 184.019819 306.99514 
L 188.552302 302.70255 
L 194.217906 296.754916 
L 195.351027 295.860139 
L 198.750389 292.099737 
L 199.88351 291.04121 
L 204.415993 285.959112 
L 205.549114 284.842103 
L 206.682234 283.450228 
L 215.747201 273.759736 
L 219.146563 269.777102 
L 220.279684 268.414468 
L 224.812167 263.56045 
L 227.078409 260.887816 
L 228.211529 259.840985 
L 231.610892 256.133217 
L 233.877133 253.869958 
L 235.010254 252.747101 
L 236.143375 251.448797 
L 237.276496 250.454601 
L 238.409617 249.261565 
L 239.542737 248.384333 
L 246.341462 242.243708 
L 247.474583 241.360627 
L 250.873945 238.10902 
L 253.140187 236.196654 
L 255.406428 234.933439 
L 259.938911 231.763707 
L 261.072032 231.120403 
L 264.471395 229.8221 
L 266.737636 228.862993 
L 267.870757 228.547189 
L 269.003878 228.459466 
L 272.40324 227.664109 
L 274.669482 227.576385 
L 276.935723 227.412635 
L 278.068844 227.090983 
L 279.201965 226.979867 
L 280.335086 227.2021 
L 281.468206 227.289823 
L 282.601327 227.576385 
L 287.13381 228.260626 
L 288.266931 228.693394 
L 289.400052 228.710939 
L 291.666293 229.360091 
L 295.065656 230.360135 
L 296.198777 230.506341 
L 297.331897 230.8046 
L 301.864381 232.488886 
L 302.997501 232.792993 
L 304.130622 233.401207 
L 305.263743 233.681921 
L 306.396864 234.214109 
L 323.393676 244.150226 
L 332.458642 249.945806 
L 334.724883 251.349378 
L 338.124246 253.823172 
L 341.523608 256.080583 
L 344.92297 258.074825 
L 347.189212 259.472548 
L 348.322333 260.437503 
L 350.588574 261.98728 
L 351.721695 262.858664 
L 353.987937 264.3792 
L 356.254178 266.051789 
L 359.653541 268.467102 
L 361.919782 270.139691 
L 372.117869 277.058129 
L 376.650353 279.888665 
L 380.049715 282.023263 
L 390.247802 287.848085 
L 392.514044 289.093755 
L 395.913406 291.345317 
L 398.179647 292.491568 
L 407.244614 297.597059 
L 408.377735 298.023979 
L 414.043338 300.9013 
L 415.176459 301.544604 
L 416.30958 302.035854 
L 418.575822 303.269827 
L 421.975184 304.802059 
L 429.90703 308.112149 
L 432.173271 308.989381 
L 434.439513 309.94264 
L 444.6376 313.907729 
L 446.903841 314.69139 
L 448.036962 315.11831 
L 450.303204 315.779158 
L 452.569445 316.463399 
L 453.702566 316.878622 
L 454.835687 317.165185 
L 457.101928 317.954694 
L 461.634412 319.200364 
L 463.900653 319.93139 
L 470.699378 321.791123 
L 474.09874 322.668355 
L 480.897465 324.457909 
L 484.296827 325.20648 
L 489.962431 326.463846 
L 499.027398 328.463936 
L 504.693001 329.62773 
L 506.959243 330.101436 
L 510.358605 330.703802 
L 517.15733 331.79157 
L 522.822934 332.77407 
L 537.553504 334.961302 
L 545.48535 335.920409 
L 547.751591 336.160186 
L 554.550316 336.943847 
L 561.349041 337.721659 
L 563.615282 337.990677 
L 570.414007 338.639829 
L 574.94649 339.148624 
L 580.612094 339.610633 
L 585.144577 340.008311 
L 590.810181 340.517106 
L 595.342664 340.809517 
L 607.806993 341.669204 
L 610.073235 341.756927 
L 612.339476 341.961615 
L 622.537563 342.546436 
L 642.933737 343.593267 
L 663.329912 344.441258 
L 668.995516 344.634249 
L 670.128636 344.675187 
L 670.128636 344.675187 
" clip-path="url(#p5cf9cff530)" style="fill: none; stroke-dasharray: 9.6,2.4,1.5,2.4; stroke-dashoffset: 0; stroke: #ff0000; stroke-width: 1.5"/>
   </g>
   <g id="line2d_17">
    <path d="M 104.701364 347.458937 
L 108.100726 347.353669 
L 117.165692 346.944294 
L 120.565055 346.710365 
L 134.162504 345.347731 
L 142.09435 344.312597 
L 145.493712 343.686838 
L 151.159316 342.680945 
L 162.490524 339.838713 
L 164.756765 339.154472 
L 167.023007 338.394204 
L 168.156128 338.107642 
L 170.422369 337.166079 
L 176.087973 335.288802 
L 182.886698 332.142463 
L 188.552302 329.13648 
L 189.685423 328.639382 
L 194.217906 326.18898 
L 195.351027 325.346837 
L 198.750389 323.235632 
L 201.016631 321.644917 
L 206.682234 317.826033 
L 212.347838 313.270274 
L 214.61408 311.357908 
L 215.747201 310.486524 
L 225.945288 300.918845 
L 229.34465 297.380675 
L 233.877133 292.433085 
L 235.010254 291.064603 
L 237.276496 288.596657 
L 238.409617 287.415317 
L 244.07522 280.385763 
L 253.140187 269.315093 
L 256.539549 264.747637 
L 258.805791 261.882012 
L 261.072032 259.022235 
L 264.471395 254.396298 
L 266.737636 251.390315 
L 275.802602 238.617814 
L 279.201965 234.325225 
L 281.468206 231.307546 
L 286.00069 225.248796 
L 288.266931 222.043974 
L 289.400052 220.657947 
L 290.533173 218.97951 
L 292.799414 215.944286 
L 295.065656 212.844733 
L 296.198777 211.552277 
L 299.598139 206.984822 
L 300.73126 205.709911 
L 313.195588 189.808615 
L 323.393676 177.603391 
L 332.458642 167.521069 
L 334.724883 165.234418 
L 338.124246 161.602676 
L 343.78985 156.081962 
L 346.056091 153.970756 
L 357.387299 143.233434 
L 361.919782 139.18647 
L 367.585386 134.309059 
L 374.384111 129.039817 
L 377.783473 126.54263 
L 380.049715 124.957763 
L 386.84844 120.267495 
L 392.514044 116.670843 
L 395.913406 114.179504 
L 398.179647 112.887049 
L 406.111493 107.892673 
L 409.510855 106.196691 
L 412.910218 104.348655 
L 415.176459 103.032807 
L 416.30958 102.52986 
L 418.575822 101.21986 
L 423.108305 98.997539 
L 425.374546 97.962405 
L 429.90703 96.003253 
L 432.173271 95.09678 
L 434.439513 94.090887 
L 440.105117 91.704815 
L 444.6376 89.92111 
L 446.903841 89.125753 
L 448.036962 88.687136 
L 450.303204 87.985351 
L 455.968808 86.11977 
L 459.36817 85.020306 
L 461.634412 84.458877 
L 463.900653 83.692761 
L 470.699378 81.76285 
L 474.09874 80.868073 
L 479.764344 79.300752 
L 487.69619 77.528743 
L 494.494914 75.920484 
L 501.293639 74.499368 
L 508.092364 73.072403 
L 522.822934 70.586912 
L 539.819746 68.048787 
L 547.751591 67.165707 
L 554.550316 66.382046 
L 561.349041 65.598385 
L 563.615282 65.329367 
L 570.414007 64.674367 
L 574.94649 64.165573 
L 580.612094 63.703564 
L 585.144577 63.305885 
L 590.810181 62.79709 
L 595.342664 62.50468 
L 607.806993 61.644992 
L 610.073235 61.545572 
L 612.339476 61.340885 
L 620.271322 60.878876 
L 629.336288 60.334992 
L 637.268134 59.908072 
L 662.196791 58.913876 
L 666.729274 58.720885 
L 670.128636 58.60392 
L 670.128636 58.60392 
" clip-path="url(#p5cf9cff530)" style="fill: none; stroke-dasharray: 1.5,2.475; stroke-dashoffset: 0; stroke: #008000; stroke-width: 1.5"/>
   </g>
   <g id="patch_3">
    <path d="M 76.43 361.92625 
L 76.43 44.16 
" style="fill: none; stroke: #000000; stroke-width: 0.8; stroke-linejoin: miter; stroke-linecap: square"/>
   </g>
   <g id="patch_4">
    <path d="M 698.4 361.92625 
L 698.4 44.16 
" style="fill: none; stroke: #000000; stroke-width: 0.8; stroke-linejoin: miter; stroke-linecap: square"/>
   </g>
   <g id="patch_5">
    <path d="M 76.43 361.92625 
L 698.4 361.92625 
" style="fill: none; stroke: #000000; stroke-width: 0.8; stroke-linejoin: miter; stroke-linecap: square"/>
   </g>
   <g id="patch_6">
    <path d="M 76.43 44.16 
L 698.4 44.16 
" style="fill: none; stroke: #000000; stroke-width: 0.8; stroke-linejoin: miter; stroke-linecap: square"/>
   </g>
   <g id="text_15">
    <text style="font: 24px 'Times New Roman'; text-anchor: middle" x="387.415" y="38.16" transform="rotate(-0 387.415 38.16)">SSEIR on NW_Network</text>
   </g>
   <g id="legend_1">
    <g id="patch_7">
     <path d="M 590.4 276.832187 
L 684.4 276.832187 
Q 688.4 276.832187 688.4 272.832187 
L 688.4 133.254062 
Q 688.4 129.254062 684.4 129.254062 
L 590.4 129.254062 
Q 586.4 129.254062 586.4 133.254062 
L 586.4 272.832187 
Q 586.4 276.832187 590.4 276.832187 
z
" style="fill: #ffffff; opacity: 0.8; stroke: #cccccc; stroke-linejoin: miter"/>
    </g>
    <g id="line2d_18">
     <path d="M 594.4 144.254062 
L 614.4 144.254062 
L 634.4 144.254062 
" style="fill: none; stroke-dasharray: 5.55,2.4; stroke-dashoffset: 0; stroke: #0000ff; stroke-width: 1.5"/>
    </g>
    <g id="text_16">
     <text style="font: 20px 'Times New Roman'; text-anchor: start" x="650.4" y="151.254062" transform="rotate(-0 650.4 151.254062)">S_i</text>
    </g>
    <g id="line2d_19">
     <path d="M 594.4 172.569687 
L 614.4 172.569687 
L 634.4 172.569687 
" style="fill: none; stroke-dasharray: 5.55,2.4; stroke-dashoffset: 0; stroke: #000000; stroke-width: 1.5"/>
    </g>
    <g id="text_17">
     <text style="font: 20px 'Times New Roman'; text-anchor: start" x="650.4" y="179.569687" transform="rotate(-0 650.4 179.569687)">S_a</text>
    </g>
    <g id="line2d_20">
     <path d="M 594.4 200.885312 
L 614.4 200.885312 
L 634.4 200.885312 
" style="fill: none; stroke: #add8e6; stroke-width: 1.5; stroke-linecap: square"/>
    </g>
    <g id="text_18">
     <text style="font: 20px 'Times New Roman'; text-anchor: start" x="650.4" y="207.885312" transform="rotate(-0 650.4 207.885312)">E_t</text>
    </g>
    <g id="line2d_21">
     <path d="M 594.4 229.200937 
L 614.4 229.200937 
L 634.4 229.200937 
" style="fill: none; stroke-dasharray: 9.6,2.4,1.5,2.4; stroke-dashoffset: 0; stroke: #ff0000; stroke-width: 1.5"/>
    </g>
    <g id="text_19">
     <text style="font: 20px 'Times New Roman'; text-anchor: start" x="650.4" y="236.200937" transform="rotate(-0 650.4 236.200937)">I_t</text>
    </g>
    <g id="line2d_22">
     <path d="M 594.4 257.516562 
L 614.4 257.516562 
L 634.4 257.516562 
" style="fill: none; stroke-dasharray: 1.5,2.475; stroke-dashoffset: 0; stroke: #008000; stroke-width: 1.5"/>
    </g>
    <g id="text_20">
     <text style="font: 20px 'Times New Roman'; text-anchor: start" x="650.4" y="264.516562" transform="rotate(-0 650.4 264.516562)">R_t</text>
    </g>
   </g>
  </g>
 </g>
 <defs>
  <clipPath id="p5cf9cff530">
   <rect x="76.43" y="44.16" width="621.97" height="317.76625"/>
  </clipPath>
 </defs>
</svg>
